<?xml version="1.0" encoding="utf-8"?>
<svg viewBox="0 0 450 581" xmlns="http://www.w3.org/2000/svg">
  <g transform="matrix(0.1, 0, 0, -0.1, 0, 581)" fill="#000000" stroke="none">
    <path d="M 2140 5746 C 2115 5732 2070 5709 2040 5694 C 2010 5679 1977 5659 1968 5650 C 1955 5638 1936 5634 1898 5637 C 1861 5639 1811.949 5641.756 1821.949 5634.756 C 1844.949 5619.756 1956 5618 1969 5634 C 1975 5642 2004 5658 2031 5670 C 2059 5682 2100 5705 2123 5721 C 2186 5767 2249 5762 2333 5706 C 2365 5685 2415.149 5720.435 2403.149 5751.435 C 2397.149 5765.435 2367 5742 2360 5731 C 2354 5720 2342 5722 2299 5744 C 2233 5776 2197 5777 2140 5746 Z"/>
    <path d="M 2603.454 5757.539 C 2599.892 5749.131 2638 5761 2648 5763 C 2657 5766 2649.746 5769.831 2627.746 5768.831 C 2605.746 5768.831 2608.585 5769.65 2603.454 5757.539 Z"/>
    <path d="M 2390 5757 C 2390 5741 2409 5712 2424 5707 C 2432 5704 2454.86 5708 2461.86 5716 C 2471.86 5728 2468.145 5737.145 2453.145 5732.145 C 2441.145 5727.145 2422 5724 2409 5741 C 2399 5754 2390 5761 2390 5757 Z"/>
    <path d="M 2535 5740 C 2519 5729 2497 5720 2488 5720 C 2478 5720 2453.71 5741.149 2453.71 5733.149 C 2453.71 5717.149 2505 5696 2529 5716 C 2538 5724 2601.069 5748.659 2612.069 5756.659 C 2642.069 5779.659 2570 5763 2535 5740 Z"/>
    <path d="M2147 5723 c-14 -14 -6 -23 11 -14 13 7 34 5 68 -5 67 -20 91 -12 27 9 -54 18 -95 22 -106 10z"/>
    <path d="M 2610.687 5743.039 C 2592.687 5732.039 2529 5687 2525 5680 C 2515 5664 2536 5643 2568 5637 C 2583 5634 2612 5620 2632 5607 C 2652 5593 2671 5585 2675 5588 C 2682.662 5581.93 2688.747 5580.592 2696.493 5577 C 2710.324 5570.647 2739.732 5564.154 2763.294 5580.577 C 2770.303 5585.463 2757.055 5588.915 2751.055 5585.915 C 2746.055 5582.915 2702 5593 2681 5611 C 2657 5630 2639.406 5629.377 2629 5635 C 2622.802 5638.019 2611 5653 2588 5659 L 2547 5672 L 2627.095 5738.109 C 2667.095 5776.109 2657.687 5771.039 2610.687 5743.039 Z"/>
    <path d="M2140 5680 c0 -6 15 -10 34 -10 44 0 66 -9 66 -26 0 -8 5 -14 10 -14 15 0 12 14 -9 36 -20 22 -101 33 -101 14z"/>
    <path d="M2472 5660 c-8 -13 -8 -20 -2 -20 6 0 13 7 17 15 9 24 -1 27 -15 5z"/>
    <path d="M 1654 5642 C 1643 5640 1614 5619 1589 5593 C 1565 5568 1524 5527 1499 5501 C 1474 5476 1430 5421 1403 5380 C 1375 5339 1343 5297 1332 5287 C 1314 5270 1291 5220 1263 5134 C 1257 5116 1256 5096 1261 5089 C 1268 5078 1270 5078 1270 5091 C 1270 5140 1314 5244 1353 5289 C 1376 5316 1406 5357 1420 5380 C 1446 5423 1518 5500 1532 5500 C 1537 5500 1546 5513 1551 5529 C 1557 5546 1582 5575 1606 5595 C 1647 5629 1655 5632 1708 5630 C 1797 5626 1860.647 5626.622 1852.647 5635.622 C 1845.647 5642.622 1696 5648 1654 5642 Z"/>
    <path d="M2530 5624 c0 -12 30 -34 47 -34 10 0 29 -9 43 -20 35 -28 48 -25 20 4 -20 22 -110 62 -110 50z"/>
    <path d="M1765 5596 c-21 -14 -26 -16 -50 -16 -20 0 -19 -20 4 -49 12 -16 21 -20 25 -12 4 6 2 11 -3 11 -6 0 -11 7 -11 15 0 8 7 15 15 15 8 0 15 -7 15 -15 0 -19 34 -20 49 -1 9 10 9 20 0 40 -14 30 -17 31 -44 12z m33 -42 c-10 -10 -28 6 -28 24 0 15 1 15 17 -1 9 -9 14 -19 11 -23z"/>
    <path d="M1830 5591 c0 -24 23 -48 42 -43 21 5 25 42 4 42 -8 0 -21 3 -30 6 -9 3 -16 1 -16 -5z"/>
    <path d="M 2791.562 5587.338 C 2739.099 5593.324 2743.507 5574.761 2762 5573.915 C 2781.323 5576.731 2818.186 5566.084 2828.956 5565.762 C 2868.961 5564.565 2828.976 5583.069 2791.562 5587.338 Z"/>
    <path d="M1671 5574 c-1 -6 -11 -15 -23 -21 -12 -5 -17 -12 -11 -16 15 -9 47 17 40 34 -3 8 -6 9 -6 3z"/>
    <path d="M 2815 5560 C 2805 5549 2800 5534 2803 5525 C 2810 5507 2895.292 5527.453 2889.254 5535.434 C 2883.562 5542.958 2865 5531 2846 5528 C 2816 5522 2809 5543 2836 5558 C 2846 5563 2848 5570 2843 5573 C 2837 5577 2825 5571 2815 5560 Z"/>
    <path d="M 2900 5520 C 2914 5509 2968.085 5455.896 2976.085 5455.896 C 2984.085 5455.896 2947.889 5494.228 2933.019 5507.972 C 2888.406 5549.208 2867 5546 2900 5520 Z"/>
    <path d="M2775 5509 c-4 -6 -5 -12 -2 -15 2 -3 7 2 10 11 7 17 1 20 -8 4z"/>
    <path d="M1655 5500 c-3 -5 3 -10 14 -10 11 0 23 5 26 10 3 6 -3 10 -14 10 -11 0 -23 -4 -26 -10z"/>
    <path d="M 2916 5461 C 2894 5436 2895 5430 2938 5382 C 2965 5352 2981 5341 2993 5346 C 3012 5353 3033.642 5362.972 3017.642 5372.972 C 3012.642 5375.972 3003.632 5380.792 3003.632 5372.792 C 3003.632 5349.792 2969 5366 2937 5407 C 2913 5439 2912 5445 2925 5453 C 2933 5457 2950 5458 2961 5455 C 2974 5450 2980 5452 2976 5458 C 2965 5476 2931 5478 2916 5461 Z"/>
    <path d="M1967 5429 c-4 -16 -3 -18 9 -8 16 13 19 29 5 29 -5 0 -11 -9 -14 -21z"/>
    <path d="M1515 5410 c-3 -5 -1 -10 4 -10 6 0 11 5 11 10 0 6 -2 10 -4 10 -3 0 -8 -4 -11 -10z"/>
    <path d="M2833 5393 c-12 -25 -10 -63 2 -63 6 0 10 11 10 24 0 34 11 42 24 17 7 -13 8 -22 1 -26 -15 -9 -12 -25 4 -25 23 0 27 30 9 61 -20 33 -38 37 -50 12z"/>
    <path d="M 3007.924 5372.255 C 3007.924 5365.255 3053 5322 3069 5305 C 3085 5289 3119 5238 3145 5192 C 3190 5115 3193 5106 3193 5037 C 3193 4979 3194 4971 3202 4995 C 3218 5047 3203 5116 3160 5198 C 3118 5275 3007.924 5397.255 3007.924 5372.255 Z"/>
    <path d="M2384 5316 c-5 -11 -14 -20 -20 -19 -6 1 -11 -4 -11 -12 0 -16 24 -8 47 15 12 12 13 19 5 27 -8 7 -14 4 -21 -11z"/>
    <path d="M2645 5320 c3 -5 8 -10 11 -10 2 0 4 5 4 10 0 6 -5 10 -11 10 -5 0 -7 -4 -4 -10z"/>
    <path d="M2446 5283 c10 -15 19 -30 21 -32 2 -2 3 5 3 17 0 12 -9 26 -21 32 -20 11 -20 11 -3 -17z"/>
    <path d="M3035 5247 c-4 -10 -5 -21 -1 -24 10 -10 18 4 13 24 -4 17 -4 17 -12 0z"/>
    <path d="M3077 5234 c-4 -4 -7 -14 -7 -23 0 -11 3 -12 11 -4 6 6 10 16 7 23 -2 6 -7 8 -11 4z"/>
    <path d="M3112 5168 c1 -13 6 -28 11 -35 5 -7 10 -35 10 -63 2 -40 5 -50 20 -50 9 0 17 7 17 15 0 8 -5 15 -12 15 -9 0 -9 3 0 12 17 17 15 41 -2 35 -10 -4 -16 6 -21 38 -6 47 -25 72 -23 33z"/>
    <path d="M3035 5160 c-3 -5 1 -10 9 -10 8 0 18 5 21 10 3 6 -1 10 -9 10 -8 0 -18 -4 -21 -10z"/>
    <path d="M2210 5085 c-9 -36 -20 -59 -28 -57 -6 1 -12 -5 -12 -13 0 -14 3 -13 25 1 29 19 38 46 33 95 -3 31 -4 29 -18 -26z"/>
    <path d="M3078 5134 c-4 -3 -3 -14 2 -23 4 -9 13 -27 18 -41 l11 -25 0 31 c1 31 -20 70 -31 58z"/>
    <path d="M1236 5063 c5 -10 9 -92 10 -183 3 -250 4 -267 12 -247 13 30 7 399 -7 425 -14 26 -27 30 -15 5z"/>
    <path d="M2711 5054 c0 -11 3 -14 6 -6 3 7 2 16 -1 19 -3 4 -6 -2 -5 -13z"/>
    <path d="M3030 5043 c0 -21 3 -24 9 -14 5 8 7 20 4 28 -8 21 -13 15 -13 -14z"/>
    <path d="M2332 5051 c-11 -6 -11 -10 0 -18 32 -24 38 -24 36 1 -2 27 -13 32 -36 17z"/>
    <path d="M2420 5020 c0 -5 5 -10 11 -10 5 0 7 5 4 10 -3 6 -8 10 -11 10 -2 0 -4 -4 -4 -10z"/>
    <path d="M1954 5007 c3 -20 23 -43 31 -35 3 3 -3 16 -14 29 -16 19 -19 20 -17 6z"/>
    <path d="M3024 5001 c4 -5 1 -12 -4 -14 -6 -3 -5 -4 2 -3 15 3 23 26 8 26 -6 0 -9 -4 -6 -9z"/>
    <path d="M3140 4985 c0 -14 5 -25 10 -25 6 0 10 11 10 25 0 14 -4 25 -10 25 -5 0 -10 -11 -10 -25z"/>
    <path d="M1897 4960 c3 -12 0 -20 -6 -20 -7 0 -9 5 -6 10 3 6 1 10 -5 10 -7 0 -9 -7 -6 -16 3 -9 6 -25 6 -37 1 -21 1 -21 14 3 24 45 29 70 13 70 -10 0 -13 -7 -10 -20z"/>
    <path d="M2013 4965 c0 -8 4 -12 9 -9 5 3 6 10 3 15 -9 13 -12 11 -12 -6z"/>
    <path d="M2250 4960 c0 -5 11 -10 25 -10 14 0 25 -5 25 -10 0 -6 6 -10 13 -8 6 1 26 -6 44 -15 41 -22 60 -23 43 -3 -21 26 -150 65 -150 46z"/>
    <path d="M 1785 4938 C 1769 4925 1760 4908 1760 4890 C 1760 4874 1753 4854 1744 4846 C 1736 4837 1732 4830 1735 4830 C 1743 4830 1702 4761 1683 4742 C 1676 4734 1671 4716 1672 4700 C 1673 4684 1669 4660 1662 4646 C 1655 4632 1645 4609 1639 4596 C 1632 4582 1630 4565 1633 4557 C 1641 4535 1625 4485 1610 4488 C 1602 4490 1599 4483 1602 4465 C 1605 4451 1603 4437 1598 4433 C 1585 4426 1570 4449 1577 4467 C 1580 4475 1579 4480 1574 4479 C 1552 4475 1540 4481 1540 4495 C 1540 4504 1531 4510 1518 4510 C 1506 4510 1486 4520 1473 4532 C 1453 4550 1450 4551 1450 4537 C 1450 4516 1436 4515 1420 4535 C 1401 4557 1395 4553 1395 4520 C 1395 4504 1398 4490 1403 4490 C 1407 4490 1410 4494 1410 4499 C 1410 4518 1511 4493 1525 4470 C 1528 4465 1536 4462 1541 4465 C 1546 4469 1550 4438 1550 4391 C 1550 4347 1554 4309 1559 4306 C 1576 4295 1602 4351 1597 4386 C 1592 4415 1594 4420 1612 4420 C 1627 4420 1631 4425 1627 4439 C 1623 4456 1630 4457 1744 4452 C 1810 4450 1866 4447 1867 4446 C 1869 4444 1877 4406 1886 4360 C 1894 4313 1908 4260 1917 4240 C 1925 4221 1933 4183 1933 4155 C 1934 4112 1926 4090 1877 3998 L 1820 3891 L 1764 3923 C 1697 3961 1609 4053 1575 4121 C 1561 4148 1545 4170 1540 4170 C 1526 4170 1527 4165 1555 4110 C 1589 4042 1688 3940 1752 3905 C 1781 3890 1806 3876 1808 3874 C 1810 3873 1804 3858 1795 3840 C 1786 3822 1780 3807 1782 3806 C 1784 3805 1824 3772 1871 3733 C 2060 3576 2362.325 3409.716 2397.325 3423.716 C 2404.325 3425.716 2380.634 3436.979 2354.107 3443.177 C 2342.815 3451.053 2310.331 3460.922 2291.119 3471.539 C 2276.954 3476.44 2237.376 3497.454 2240 3496 C 2252.395 3489.132 2005 3650 1940 3706 C 1904 3737 1860 3775 1842 3790 L 1809 3819 L 1871 3937 C 1904 4002 1935 4060 1940 4065 C 1962 4093 1968 4151 1954 4202 C 1938 4260 1880 4489 1880 4495 C 1880 4501 1974 4529 2040 4542 C 2076 4549 2107 4557 2110 4561 C 2124.176 4565.853 2148 4576 2195 4585 C 2206 4587 2381.018 4610.793 2384.018 4610.793 C 2386.018 4611.793 2395.717 4625.29 2387.34 4623.94 C 2358.694 4619.323 2217.793 4600.971 2193.47 4598.706 C 2180.994 4597.544 2160.617 4592.441 2140.176 4588 C 2119.735 4583.559 2114.506 4583.316 2100 4579 C 2088.096 4575.458 2076 4569 2048 4566 C 2019 4562 1962 4549 1923 4538 C 1854 4518 1851 4516 1857 4492 L 1863 4468 L 1762 4472 C 1706 4474 1658 4479 1654 4483 C 1650 4486 1653 4496 1659 4504 C 1666 4512 1672 4546 1674 4579 C 1675 4627 1684 4655 1718 4723 C 1747 4780 1763 4826 1767 4864 C 1772 4913 1776 4921 1797 4926 C 1822 4933 1856 4912 1834 4903 C 1810 4894 1792 4874 1786 4848 C 1781 4827 1783 4822 1794 4826 C 1802 4829 1812.949 4835.684 1809.949 4844.684 C 1805.949 4853.684 1807 4871 1823 4883 C 1858 4913 1863 4954 1832 4956 C 1820 4957 1798 4949 1785 4938 Z"/>
    <path d="M 3192.868 4982.887 C 3187.639 4965.867 3139.179 4902.34 3140.764 4896.746 C 3148.764 4889.746 3177.217 4933.038 3185.217 4951.038 C 3198.217 4980.038 3203.632 5017.924 3192.868 4982.887 Z"/>
    <path d="M 2020 4930 C 2020 4925 2015.057 4907.525 1990.057 4896.525 C 1954.057 4880.525 1951.165 4871.842 1936.899 4850 C 1933.899 4833 1911 4820 1903 4820 C 1892 4820 1894.478 4815.496 1847.36 4830.784 C 1758.172 4859.721 1792.178 4837.436 1786.399 4825.791 C 1780.076 4813.051 1886 4805 1870 4795 C 1864 4791 1862 4784 1866 4779 C 1869 4774 1876 4772 1881 4776 C 1886 4779 1888 4786 1885 4791 C 1881 4796 1886 4800 1894 4800 C 1915 4800 1961 4840 1954 4852 C 1951 4857 1957 4864 1969 4867 C 1981 4870 1990 4876 1990 4880 C 1990 4893 2045 4884 2073 4866 C 2088 4856 2100 4850 2100 4854 C 2100 4857 2082 4871 2060 4885 C 2034 4902 2022 4915 2026 4925 C 2030 4933 2029 4940 2026 4940 C 2023 4940 2020 4936 2020 4930 Z"/>
    <path d="M3028 4931 c-2 -5 -21 -17 -42 -27 -22 -11 -41 -26 -42 -34 -2 -8 -6 -26 -10 -39 -5 -17 -4 -22 4 -17 6 4 14 22 18 42 4 20 11 33 18 31 6 -2 24 2 39 10 16 8 36 12 45 8 15 -5 13 -9 -8 -25 -14 -11 -33 -20 -42 -20 -10 0 -18 -4 -18 -10 0 -22 48 -9 74 20 22 25 24 33 14 43 -18 18 -46 28 -50 18z"/>
    <path d="M 2148 4898.418 C 2123.994 4893.994 2130.532 4897.05 2118.424 4887.468 C 2109.791 4877.728 2095.367 4858.513 2095.367 4853.513 C 2095.367 4847.513 2120.74 4879.576 2130.74 4878.576 C 2139.74 4878.576 2143 4887 2152 4885 C 2162 4883 2196.323 4879.051 2200.323 4884.051 C 2203.323 4889.051 2188.898 4893.05 2177.582 4896.525 C 2169.934 4898.873 2172.006 4902.842 2148 4898.418 Z"/>
    <path d="M2905 4900 c-4 -6 -2 -17 4 -23 15 -15 25 -2 13 19 -7 12 -11 13 -17 4z"/>
    <path d="M 3143.632 4880.774 C 3146.038 4869.359 3146.622 4862.991 3150.613 4843.387 L 3157.594 4808.584 C 3168.82 4806.309 3158 4853.968 3158 4854 C 3156 4876 3149 4895 3143 4898 C 3136 4900 3141.226 4892.189 3143.632 4880.774 Z"/>
    <path d="M 2186.892 4886.949 C 2189.892 4881.949 2323.348 4842.203 2335.348 4843.203 C 2356.348 4843.203 2290.108 4863.172 2270.171 4868.418 C 2220.165 4881.576 2179.892 4898.949 2186.892 4886.949 Z"/>
    <path d="M1830 4855 c-11 -13 -10 -14 4 -9 9 3 16 10 16 15 0 13 -6 11 -20 -6z"/>
    <path d="M 3069 4840 C 3050 4824 3025 4811 3013 4810 C 3001 4810 2988 4805 2985 4799 C 2958.358 4646.471 2947.958 4696.293 2952.604 4676.84 C 2959.821 4646.623 2989 4732 2989 4758 C 2990 4770 2996 4780 3003 4780 C 3010 4780 3033 4792 3053 4806 C 3108 4843 3096.378 4857.63 3060 4779 C 3015.438 4682.679 3073.983 4719.704 3062.991 4719.49 C 3034.074 4718.927 3098.349 4844.689 3120 4837 C 3152.04 4825.622 3106 4872 3069 4840 Z"/>
    <path d="M2380 4845 c0 -8 2 -15 4 -15 2 0 6 7 10 15 3 8 1 15 -4 15 -6 0 -10 -7 -10 -15z"/>
    <path d="M2030 4840 c20 -13 43 -13 35 0 -3 6 -16 10 -28 10 -18 0 -19 -2 -7 -10z"/>
    <path d="M2886 4824 c-10 -14 -15 -28 -12 -32 3 -3 6 0 6 7 0 7 4 10 9 7 5 -3 11 4 14 16 9 32 2 33 -17 2z"/>
    <path d="M2410 4831 c0 -10 19 -25 25 -20 1 2 -3 10 -11 17 -8 7 -14 8 -14 3z"/>
    <path d="M2645 4800 c-3 -6 1 -7 9 -4 18 7 21 14 7 14 -6 0 -13 -4 -16 -10z"/>
    <path d="M 3133.198 4789.415 C 3117.198 4773.415 3092 4747 3076 4737 C 3061 4727 3051 4716 3053 4713 C 3065 4701 3136.095 4767.917 3156.99 4801.82 C 3169.188 4821.612 3160.377 4822.217 3133.198 4789.415 Z"/>
    <path d="M2085 4772 c-45 -19 -98 -53 -92 -59 7 -6 137 58 137 68 0 11 4 12 -45 -9z"/>
    <path d="M2547 4773 c-3 -5 1 -21 8 -38 l13 -30 1 32 c1 30 -12 52 -22 36z"/>
    <path d="M 2110 4739 C 2080 4727 2034 4711 2007 4702 C 1975 4691 1960 4681 1962 4670 C 1966 4642 1950 4611 1934 4617 C 1926 4620 1920 4616 1920 4607 C 1920 4598 1927 4593 1938 4595 C 1947 4597 1958 4599 1961 4599 C 1965 4600 1975 4617 1983 4639 C 1997 4672 2004 4678 2035 4682 C 2061 4685 2074 4682 2080 4670 C 2086 4659 2105 4653 2136 4651 C 2162 4650 2289.401 4649.495 2292.401 4648.495 C 2295.401 4647.495 2308.827 4645.93 2304.769 4663.283 C 2288.357 4660.459 2178 4669 2143 4673 C 2099 4679 2080 4686 2080 4696 C 2080 4704 2083 4711 2088 4711 C 2092 4712 2108 4714 2123 4716 C 2139 4717 2158 4724 2165 4730 C 2181 4744 2200 4735 2200 4714 C 2200 4706 2205 4691 2212 4681 C 2221 4666 2228 4664 2243 4672 C 2261 4681 2261 4682 2241 4696 C 2203 4723 2223 4750 2273 4741 C 2278 4740 2300.176 4751.059 2282.059 4755.294 C 2256.177 4761.706 2168 4761 2110 4739 Z"/>
    <path d="M2379 4732 c0 -4 -3 -19 -5 -34 -6 -36 2 -35 20 1 14 26 14 30 1 35 -8 3 -15 2 -16 -2z"/>
    <path d="M 2883 4724 C 2880 4715 2881 4672 2887 4629 C 2895 4567 2903 4544 2925 4518 C 2968 4467 2981 4425 2986 4326 C 2988 4276 2997 4208 3006 4175 C 3031 4078 3001 3964 2931 3898 C 2909 3876 2890 3855 2890 3851 C 2890 3846 2876 3826 2860 3805 C 2843 3784 2802 3717 2769 3656 C 2712 3553 2708 3542 2713 3498 C 2723 3419 2743 3399 2830 3387 C 2872 3380 3182 3274 3231 3249 C 3261 3233 3313 3214 3346 3207 C 3379 3199 3421 3185 3440 3175 C 3459 3165 3500 3151 3530 3144 C 3648 3117 3768 3059 3848 2991 C 3995 2866 4103 2749 4164 2650 C 4196 2598 4240 2528 4261 2494 C 4283 2461 4311 2407 4324 2374 C 4337 2342 4359 2290 4373 2260 C 4426 2146 4481 1990 4493 1920 C 4495 1906 4498 1921 4499 1952 C 4500 1992 4492 2030 4474 2077 C 4460 2114 4438 2172 4426 2205 C 4413 2238 4393 2284 4381 2307 C 4370 2330 4351 2372 4340 2399 C 4329 2427 4305 2473 4287 2502 C 4268 2531 4225 2600 4190 2655 C 4155 2710 4109 2776 4086 2803 C 4044 2852 3864 3015 3800 3061 C 3760 3090 3574 3164 3515 3175 C 3494 3179 3460 3190 3440 3199 C 3421 3209 3383 3222 3355 3229 C 3328 3236 3280 3254 3250 3270 C 3219 3285 3167 3306 3135 3315 C 3102 3325 3024 3350 2961 3371 C 2899 3393 2835 3410 2820 3410 C 2805 3410 2781 3419 2766 3431 C 2744 3448 2740 3459 2740 3501 C 2740 3541 2748 3565 2781 3623 C 2803 3663 2828 3710 2836 3728 C 2852 3767 2878 3802 2941 3873 C 3025 3966 3050 4064 3025 4193 C 3017 4236 3010 4299 3010 4333 C 3010 4404 2990 4465 2943 4534 C 2916 4574 2910 4591 2911 4634 C 2911 4672 2912.396 4679.198 2927.217 4665.802 C 2942.038 4652.406 2985.17 4684.964 2954.66 4682.575 C 2913.343 4679.34 2927 4671.84 2904.387 4735.991 C 2900.73 4746.365 2887 4733 2883 4724 Z"/>
    <path d="M1642 4688 c-7 -7 -12 -16 -12 -21 0 -5 7 -1 16 8 9 9 14 18 12 20 -2 3 -10 -1 -16 -7z"/>
    <path d="M1326 4675 c-3 -8 -1 -15 4 -15 6 0 10 7 10 15 0 8 -2 15 -4 15 -2 0 -6 -7 -10 -15z"/>
    <path d="M 2540 4680 C 2526 4675 2476 4659 2428 4644 C 2380 4630 2342 4614 2345 4610 C 2350 4602 2410 4615 2510 4645 C 2598 4672 2607 4673 2630 4660 C 2650 4649 2652 4650 2647 4665 C 2643 4674 2658.223 4667.295 2640 4686 C 2635.115 4691.014 2566 4689 2540 4680 Z"/>
    <path d="M1928 4673 c-24 -6 -23 -22 0 -20 10 0 19 7 19 14 0 7 -1 12 -1 12 -1 -1 -9 -3 -18 -6z"/>
    <path d="M2709 4668 c-10 -6 -7 -8 11 -6 14 1 31 -1 38 -6 7 -4 19 -2 27 4 12 10 15 9 15 -4 0 -9 -7 -16 -16 -16 -11 0 -14 -6 -8 -22 3 -13 8 -25 10 -27 4 -4 88 -20 91 -17 3 3 -17 64 -27 86 -8 17 -119 24 -141 8z m131 -36 c0 -5 -7 -17 -15 -28 -14 -18 -14 -18 -15 9 0 17 5 27 15 27 8 0 15 -4 15 -8z"/>
    <path d="M1475 4621 c-3 -5 -1 -12 5 -16 5 -3 10 1 10 9 0 18 -6 21 -15 7z"/>
    <path d="M2635 4610 c3 -5 8 -10 11 -10 2 0 4 5 4 10 0 6 -5 10 -11 10 -5 0 -7 -4 -4 -10z"/>
    <path d="M 2640.33 4682.005 C 2605.365 4678.524 2710.247 4595.949 2717 4590 C 2758.372 4553.553 2805.226 4514.591 2801.226 4531.591 C 2798.226 4550.591 2655.519 4683.517 2640.33 4682.005 Z"/>
    <path d="M1251 4575 c0 -5 6 -21 14 -35 8 -14 14 -20 14 -15 0 6 -6 21 -14 35 -8 14 -14 21 -14 15z"/>
    <path d="M 1325 4540 C 1322 4529 1321 4511 1325 4501 C 1328 4490 1326 4479 1321 4476 C 1316 4472 1309 4479 1305 4490 C 1302 4501 1294 4510 1289 4510 C 1283 4510 1283 4504 1289 4492 C 1294 4483 1299 4455 1301 4430 C 1306 4347 1370 4197 1416 4160 C 1448 4135 1480 4119 1490 4125 C 1498 4130 1501 4120 1515 4050 C 1527 3993 1540 3860 1540 3792 C 1540 3726 1536 3713 1503 3655 C 1482 3619 1460.183 3586.179 1459 3590 C 1453.73 3607.028 1402.328 3582.666 1294.474 3491.171 C 1341.714 3467.845 1380 3537.63 1396 3546.63 C 1445 3571.63 1458 3572 1420 3540 C 1392 3516 1389 3510 1405 3511 C 1426 3511 1472 3566 1516 3643 C 1547 3697 1557 3702 1557 3663 C 1557 3647 1570 3614 1586 3588 C 1618 3537 1767 3381 1846 3315 C 1873 3293 1914 3258 1938 3238 C 1962 3217 1986 3200 1992 3200 C 1998 3200 2012 3193 2022 3183 C 2032 3174 2040 3172 2040 3178 C 2040 3184 2065 3192 2095 3195 C 2125 3199 2150 3205 2150 3209 C 2150 3213 2165 3221 2183 3228 C 2201 3235 2225 3248 2236 3258 C 2258 3279 2428.353 3371.459 2533.055 3431.604 C 2587.775 3463.037 2748.397 3536.916 2745.97 3559.495 C 2743.841 3579.306 2400.737 3384.299 2349.585 3349.439 C 2322.865 3338.726 2294.573 3311.146 2294.573 3314.146 C 2294.573 3317.146 2270 3297 2246 3280 C 2221 3264 2209.544 3257.317 2198.317 3251.045 C 2187.09 3244.773 2183.845 3244.196 2180 3241 C 2170.592 3233.181 2142 3217 2095 3216 C 2073 3215 2046 3211 2035 3207 C 2021 3202 2007 3208 1985 3228 C 1969 3243 1924 3282 1885 3315 C 1771 3413 1621 3569 1598 3614 C 1582 3646 1575 3683 1569 3785 C 1559 3942 1553 3993 1534 4087 L 1518 4159 L 1482 4162 C 1452 4164 1439 4173 1410 4213 C 1390 4239 1363 4290 1350 4326 C 1331 4381 1329 4402 1335 4463 C 1339 4503 1346 4541 1352 4548 C 1360 4557 1358 4560 1347 4560 C 1338 4560 1328 4551 1325 4540 Z"/>
    <path d="M2670 4535 c0 -8 4 -15 10 -15 5 0 7 7 4 15 -4 8 -8 15 -10 15 -2 0 -4 -7 -4 -15z"/>
    <path d="M 2799 4537 C 2781 4552 2778 4530 2786 4530 C 2794 4530 2793.888 4518.444 2806 4515 C 2809 4508 2843.32 4499.074 2862.074 4490.074 C 2880.828 4481.074 2896.713 4472.409 2913.668 4462.037 C 2964.176 4431.139 2962.151 4415.072 2973.151 4415.072 C 3019.151 4415.072 2923.44 4477.46 2855 4511 C 2834.519 4521.037 2808 4530 2799 4537 Z"/>
    <path d="M1360 4520 c0 -11 5 -20 10 -20 6 0 10 9 10 20 0 11 -4 20 -10 20 -5 0 -10 -9 -10 -20z"/>
    <path d="M1362 4478 c-14 -14 -16 -58 -3 -58 10 0 26 58 19 66 -2 2 -10 -2 -16 -8z"/>
    <path d="M1455 4478 c-11 -5 -28 -23 -38 -39 -30 -52 -18 -98 23 -91 9 1 20 -10 27 -29 7 -17 17 -28 22 -24 16 9 13 41 -4 55 -19 16 -19 33 -1 68 19 37 1 74 -29 60z"/>
    <path d="M2756 4471 c-3 -5 1 -12 10 -15 20 -8 29 -1 19 13 -8 13 -22 14 -29 2z"/>
    <path d="M 2614.063 4674.466 C 2614.063 4650.466 2767 4274 2793 4246 C 2802 4235 2810 4229 2810 4233 C 2810 4240 2771 4321 2747 4365 C 2741 4376 2639.424 4657.647 2631.424 4671.647 C 2620.424 4693.647 2614.063 4691.466 2614.063 4674.466 Z"/>
    <path d="M2786 4395 c-5 -18 -3 -32 6 -39 7 -6 10 -7 6 -2 -4 5 -3 16 2 25 5 10 5 23 1 30 -6 9 -10 5 -15 -14z"/>
    <path d="M2897 4347 c-3 -8 1 -14 9 -14 16 0 19 13 5 21 -5 3 -11 0 -14 -7z"/>
    <path d="M2930 4312 c0 -5 7 -9 15 -9 8 0 12 4 9 9 -3 4 -9 8 -15 8 -5 0 -9 -4 -9 -8z"/>
    <path d="M2815 4300 c3 -5 8 -10 11 -10 2 0 4 5 4 10 0 6 -5 10 -11 10 -5 0 -7 -4 -4 -10z"/>
    <path d="M2930 4256 c0 -8 7 -16 15 -20 9 -3 15 0 15 8 0 8 -7 16 -15 20 -9 3 -15 0 -15 -8z"/>
    <path d="M 2874 4223 C 2864 4182 2860 4155.485 2808.228 4243.462 C 2794.228 4253.462 2781.971 4258.287 2792.971 4246.287 C 2798.971 4238.287 2850 4158 2851 4136 L 2852 4095 L 2862 4130 C 2867 4149 2878 4180 2886 4198 C 2903 4236 2904 4250 2890 4250 C 2885 4250 2877 4238 2874 4223 Z"/>
    <path d="M2904 4198 c-4 -6 -2 -14 4 -16 6 -2 28 -15 48 -28 20 -14 39 -22 43 -18 3 3 -4 13 -16 21 -13 9 -23 22 -23 31 0 8 -3 12 -6 9 -4 -3 -15 -2 -25 3 -12 7 -20 6 -25 -2z"/>
    <path d="M2890 4126 c0 -13 -5 -26 -12 -28 -7 -3 -12 -32 -13 -78 -2 -68 -4 -75 -33 -99 -31 -27 -136 -161 -125 -161 3 0 36 31 72 69 36 37 74 71 84 74 9 4 16 10 15 14 -1 4 2 31 6 58 3 28 9 65 11 83 2 18 7 47 10 63 4 18 3 29 -4 29 -6 0 -11 -11 -11 -24z"/>
    <path d="M2931 4060 c-25 -48 -30 -68 -25 -95 8 -42 19 -45 29 -8 4 16 12 34 18 42 7 7 12 28 13 45 1 17 5 41 9 54 15 45 -14 21 -44 -38z"/>
    <path d="M 2837 3845 C 2795 3804 2758 3760 2754 3746 C 2751 3732 2739 3718 2729 3715 C 2707 3708 2698.532 3654.592 2680 3631 C 2639.716 3579.716 2640.979 3584.374 2631.979 3576.374 C 2623.979 3567.374 2438.376 3426.662 2440.086 3421.963 C 2445.724 3406.469 2688 3596 2710 3640 C 2722 3665 2748 3698 2766 3713 C 2803 3744 2809 3760 2785 3760 C 2776 3760 2790 3778 2817 3803 C 2873 3852 2924 3909 2918 3915 C 2916 3917 2880 3886 2837 3845 Z"/>
    <path d="M2676 3728 c-9 -12 -16 -32 -16 -43 1 -19 1 -19 11 -2 6 11 12 24 13 30 1 7 5 18 9 25 14 21 -1 13 -17 -10z"/>
    <path d="M1256 3493 c-49 -18 -97 -39 -105 -47 -27 -23 -59 -37 -136 -57 -41 -10 -89 -27 -107 -38 -18 -10 -57 -22 -87 -25 -30 -4 -63 -12 -74 -17 -10 -6 -79 -26 -153 -44 -147 -38 -266 -88 -373 -160 -91 -61 -221 -184 -221 -210 0 -18 1 -17 17 4 9 13 28 36 43 50 155 147 328 246 500 286 41 10 113 30 159 46 45 16 98 29 117 29 19 0 56 11 82 24 26 13 74 30 107 38 33 9 99 36 147 60 48 25 104 48 125 51 46 8 84 31 62 39 -8 2 -54 -10 -103 -29z"/>
    <path d="M1381 3456 c-8 -19 -8 -33 -2 -39 6 -6 12 -1 16 16 10 39 -1 57 -14 23z"/>
    <path d="M1320 3430 c0 -6 7 -10 15 -10 8 0 15 2 15 4 0 2 -7 6 -15 10 -8 3 -15 1 -15 -4z"/>
    <path d="M 2380 3430 C 2384.286 3427.425 2393.901 3418.967 2417 3420 C 2459.957 3421.921 2460.066 3424.934 2414.066 3432.934 C 2395.066 3435.934 2366.572 3438.066 2380 3430 Z"/>
    <path d="M1288 3413 c7 -3 16 -2 19 1 4 3 -2 6 -13 5 -11 0 -14 -3 -6 -6z"/>
    <path d="M1173 3398 c-51 -17 -39 -28 13 -12 26 7 50 11 55 8 5 -3 9 0 9 5 0 13 -34 13 -77 -1z"/>
    <path d="M2710 3353 c0 -35 3 -44 10 -33 13 20 13 67 0 75 -6 4 -10 -12 -10 -42z"/>
    <path d="M2752 3337 c3 -62 19 -72 29 -16 4 26 0 40 -14 54 -18 20 -18 19 -15 -38z"/>
    <path d="M1366 3364 c-3 -9 -2 -23 4 -32 7 -14 9 -10 10 16 0 35 -5 41 -14 16z"/>
    <path d="M968 3323 c6 -2 18 -2 25 0 6 3 1 5 -13 5 -14 0 -19 -2 -12 -5z"/>
    <path d="M1366 3243 c8 -65 14 -67 14 -5 0 29 -5 52 -10 52 -7 0 -8 -18 -4 -47z"/>
    <path d="M1380 3131 c0 -11 4 -22 9 -25 4 -3 6 6 3 19 -5 30 -12 33 -12 6z"/>
    <path d="M139 2963 c-13 -15 -12 -15 9 -4 23 12 28 21 13 21 -5 0 -15 -7 -22 -17z"/>
    <path d="M215 2970 c-3 -5 -2 -10 4 -10 5 0 13 5 16 10 3 6 2 10 -4 10 -5 0 -13 -4 -16 -10z"/>
    <path d="M4020 2782 c6 -13 14 -21 18 -18 3 4 -2 14 -12 24 -18 16 -18 16 -6 -6z"/>
    <path d="M4040 2700 c0 -5 5 -10 11 -10 5 0 7 5 4 10 -3 6 -8 10 -11 10 -2 0 -4 -4 -4 -10z"/>
    <path d="M4101 2604 c0 -11 3 -14 6 -6 3 7 2 16 -1 19 -3 4 -6 -2 -5 -13z"/>
    <path d="M4291 2344 c0 -11 3 -14 6 -6 3 7 2 16 -1 19 -3 4 -6 -2 -5 -13z"/>
    <path d="M4453 1925 c4 -22 7 -57 7 -78 0 -25 4 -36 11 -31 10 6 9 28 -4 107 -2 15 -8 31 -12 35 -4 4 -5 -11 -2 -33z"/>
    <path d="M4493 1730 c0 -36 2 -50 4 -32 2 17 2 47 0 65 -2 17 -4 3 -4 -33z"/>
    <path d="M4492 1620 c0 -14 2 -19 5 -12 2 6 2 18 0 25 -3 6 -5 1 -5 -13z"/>
    <path d="M4492 1490 c0 -14 2 -19 5 -12 2 6 2 18 0 25 -3 6 -5 1 -5 -13z"/>
    <path d="M4494 1355 c0 -60 1 -84 3 -52 2 32 2 81 0 110 -2 29 -3 3 -3 -58z"/>
    <path d="M4493 1185 c0 -27 2 -38 4 -22 2 15 2 37 0 50 -2 12 -4 0 -4 -28z"/>
    <path d="M 3722.09 1135.09 C 3694.177 1113.414 3577.095 998.855 3555 933 C 3540.358 889.358 3518.358 843.285 3502.179 767.553 C 3472.449 628.391 3463 626 3495 420 C 3504 362 3512 248 3513 165 L 3515 15 L 1755 10 L -5 5 L 1760 5 L 3525 5 L 3525 165 C 3525 253 3522 348 3518 375 C 3515 403 3506 472 3499 530 L 3487 635 C 3487 635 3564 870 3571 907 C 3585 991 3719.138 1101.466 3745 1121.268 C 3767.553 1138.536 3793 1156 3828 1131 C 3843 1121 3872 1110.821 3893 1093.089 C 3905.937 1063.441 3935.257 1005.993 3922.089 1041.106 C 3927.731 982.106 3921 934 3944 871 C 3962 822 3970 779 3970 736 C 3970 649 3934.95 379.732 3928.341 338.195 C 3915.999 260.626 3912 273 3894 151 C 3890 126 3869.358 61.805 3861.358 41.805 C 3833.358 -29.195 3833 0 4187 2 L 4505 5 L 4188 7 C 3841 11 3861.089 -17.284 3888.089 41.716 C 3893.089 52.716 3907 123 3915 170 C 3930 260 3929.272 261.652 3947.878 338.195 C 3960.236 389.032 3991 646 3990 737 C 3990 777 3981 823 3965 868 C 3938 942 3949.179 1059.163 3925.179 1093.358 C 3919.181 1101.904 3887 1126 3855 1145 C 3776 1193 3761.643 1165.806 3722.09 1135.09 Z"/>
    <path d="M4492 1105 c0 -16 2 -22 5 -12 2 9 2 23 0 30 -3 6 -5 -1 -5 -18z"/>
    <path d="M4491 954 c0 -11 3 -14 6 -6 3 7 2 16 -1 19 -3 4 -6 -2 -5 -13z"/>
    <path d="M4491 764 c0 -11 3 -14 6 -6 3 7 2 16 -1 19 -3 4 -6 -2 -5 -13z"/>
    <path d="M 2257.237 4733.765 C 2263.671 4719.468 2343.378 4713.42 2299.884 4664.471 C 2275.642 4637.188 2297.822 4606.481 2319.884 4669 C 2331.639 4702.311 2319.637 4709.714 2299.707 4728.706 C 2287.639 4740.206 2256.472 4746.588 2257.237 4733.765 Z" transform="matrix(1, 0, 0, 1, 5.352282, 15.047726)"/>
  </g>
  <path d="M 191.153 18.543 C 187.453 20.143 184.153 22.743 184.153 24.043 C 184.153 24.543 186.153 23.543 188.553 21.943 C 190.953 20.243 193.453 18.943 193.953 18.943 C 194.553 18.943 195.353 18.443 195.653 17.943 C 196.453 16.543 195.253 16.743 191.153 18.543 Z"/>
  <path d="M 230.153 24.343 C 230.153 25.243 230.653 25.943 231.153 25.943 C 231.753 25.943 232.153 25.543 232.153 25.043 C 232.153 24.443 231.753 23.743 231.153 23.443 C 230.653 23.143 230.153 23.543 230.153 24.343 Z"/>
  <path d="M 157.453 26.443 C 157.153 27.343 157.153 28.243 157.453 28.543 C 158.353 29.443 160.153 27.943 160.153 26.343 C 160.153 24.443 158.253 24.543 157.453 26.443 Z"/>
  <path d="M 180.253 29.743 C 178.553 32.843 178.953 33.743 180.753 31.143 C 181.653 29.843 182.153 28.543 181.853 28.243 C 181.553 28.043 180.853 28.643 180.253 29.743 Z"/>
  <path d="M 183.653 30.943 C 183.353 31.443 183.553 31.943 184.053 31.943 C 184.653 31.943 185.153 31.443 185.153 30.943 C 185.153 30.343 184.953 29.943 184.753 29.943 C 184.453 29.943 183.953 30.343 183.653 30.943 Z"/>
  <path d="M 156.153 33.643 C 156.153 34.643 156.653 36.143 157.153 36.943 C 157.953 38.143 158.153 37.843 158.153 35.743 C 158.153 34.243 157.753 32.743 157.153 32.443 C 156.653 32.143 156.153 32.643 156.153 33.643 Z"/>
  <path d="M 151.153 34.443 C 150.353 35.343 150.353 35.943 150.953 35.943 C 152.153 35.943 153.553 34.043 152.853 33.343 C 152.653 33.143 151.853 33.543 151.153 34.443 Z"/>
  <path d="M 167.053 36.143 C 166.253 36.843 164.953 38.243 164.253 39.243 C 163.053 40.743 163.053 40.943 164.553 40.343 C 165.453 40.043 166.153 39.143 166.153 38.343 C 166.153 37.543 166.753 37.243 167.653 37.543 C 168.553 37.943 169.153 37.543 169.153 36.543 C 169.153 34.643 168.953 34.543 167.053 36.143 Z"/>
  <path d="M 250.353 39.943 C 250.353 41.843 250.553 42.643 250.853 41.643 C 251.053 40.743 251.053 39.143 250.853 38.143 C 250.553 37.243 250.353 38.043 250.353 39.943 Z"/>
  <path d="M 158.953 40.443 C 158.653 41.843 158.853 42.943 159.253 42.943 C 159.753 42.943 160.153 42.543 160.153 42.043 C 160.153 41.543 160.453 40.443 160.753 39.543 C 161.053 38.643 160.953 37.943 160.353 37.943 C 159.853 37.943 159.153 39.043 158.953 40.443 Z"/>
  <path d="M 254.253 41.543 C 254.253 42.643 254.553 42.943 254.853 42.143 C 255.153 41.443 255.053 40.543 254.753 40.243 C 254.453 39.843 254.153 40.443 254.253 41.543 Z"/>
  <path d="M 215.153 41.943 C 215.153 42.443 215.653 42.943 216.253 42.943 C 216.753 42.943 216.953 42.443 216.653 41.943 C 216.353 41.343 215.853 40.943 215.553 40.943 C 215.353 40.943 215.153 41.343 215.153 41.943 Z"/>
  <path d="M 167.053 43.543 C 165.853 44.943 165.953 45.143 167.553 44.843 C 168.653 44.643 169.653 43.843 169.953 43.143 C 170.453 41.443 168.653 41.643 167.053 43.543 Z"/>
  <path d="M 177.153 44.443 C 177.153 45.843 177.553 46.943 178.053 46.943 C 178.453 46.943 178.653 45.843 178.353 44.443 C 178.153 43.043 177.753 41.943 177.553 41.943 C 177.353 41.943 177.153 43.043 177.153 44.443 Z"/>
  <path d="M 255.153 45.343 C 255.153 45.543 255.853 46.043 256.753 46.343 C 257.553 46.643 257.953 46.543 257.653 45.943 C 257.053 44.943 255.153 44.543 255.153 45.343 Z"/>
  <path d="M 171.753 47.643 C 171.353 48.543 171.753 49.943 172.653 50.843 C 173.953 52.243 174.153 52.043 174.153 49.143 C 174.153 45.743 172.753 44.843 171.753 47.643 Z"/>
  <path d="M 147.853 49.943 C 145.753 52.443 145.653 53.043 147.553 52.343 C 148.353 52.043 149.153 50.943 149.453 49.843 C 150.053 47.443 149.953 47.443 147.853 49.943 Z"/>
  <path d="M 163.153 50.443 C 163.153 51.243 163.353 51.943 163.553 51.943 C 163.753 51.943 164.153 51.243 164.553 50.443 C 164.853 49.643 164.653 48.943 164.153 48.943 C 163.553 48.943 163.153 49.643 163.153 50.443 Z"/>
  <path d="M 274.153 53.143 C 274.153 56.343 275.853 57.743 276.753 55.443 C 277.153 54.543 276.753 53.043 275.753 52.143 C 274.253 50.643 274.153 50.743 274.153 53.143 Z"/>
  <path d="M 155.753 53.443 C 155.453 54.343 155.153 55.643 155.253 56.243 C 155.253 56.943 155.753 56.343 156.253 55.043 C 156.753 53.743 157.053 52.443 156.753 52.243 C 156.553 52.043 156.153 52.543 155.753 53.443 Z"/>
  <path d="M 141.253 54.543 C 141.253 55.643 141.553 55.943 141.853 55.143 C 142.153 54.443 142.053 53.543 141.753 53.243 C 141.453 52.843 141.153 53.443 141.253 54.543 Z"/>
  <path d="M 173.153 54.443 C 173.153 55.243 173.653 55.943 174.153 55.943 C 174.753 55.943 175.153 55.243 175.153 54.443 C 175.153 53.643 174.753 52.943 174.153 52.943 C 173.653 52.943 173.153 53.643 173.153 54.443 Z"/>
  <path d="M 196.653 55.643 L 194.953 58.443 L 197.253 56.243 C 198.453 55.043 199.253 53.743 198.953 53.443 C 198.653 53.143 197.653 54.143 196.653 55.643 Z"/>
  <path d="M 144.953 54.543 C 144.653 54.743 144.653 56.143 144.953 57.443 C 145.453 60.243 147.153 59.843 147.153 56.943 C 147.153 55.043 145.853 53.543 144.953 54.543 Z"/>
  <path d="M 149.753 55.443 C 149.453 56.343 149.153 57.643 149.253 58.243 C 149.253 58.943 149.753 58.343 150.253 57.043 C 150.753 55.743 151.053 54.443 150.753 54.243 C 150.553 54.043 150.153 54.543 149.753 55.443 Z"/>
  <path d="M 224.253 57.543 C 224.253 58.643 224.553 58.943 224.853 58.143 C 225.153 57.443 225.053 56.543 224.753 56.243 C 224.453 55.843 224.153 56.443 224.253 57.543 Z"/>
  <path d="M 278.153 57.843 C 278.153 59.043 278.653 59.943 279.153 59.943 C 279.753 59.943 280.153 59.343 280.153 58.543 C 280.153 57.743 279.753 56.743 279.153 56.443 C 278.653 56.143 278.153 56.743 278.153 57.843 Z"/>
  <path d="M 160.153 58.043 C 160.153 58.543 160.653 58.743 161.153 58.443 C 161.753 58.143 162.153 57.643 162.153 57.343 C 162.153 57.143 161.753 56.943 161.153 56.943 C 160.653 56.943 160.153 57.443 160.153 58.043 Z"/>
  <path d="M 164.353 59.143 C 163.853 59.843 163.053 61.443 162.753 62.643 C 162.353 63.743 161.453 65.043 160.653 65.343 C 159.853 65.643 159.153 66.343 159.153 66.943 C 159.153 67.543 159.553 67.843 160.053 67.543 C 160.553 67.143 161.153 67.543 161.453 68.143 C 161.653 68.843 162.253 68.043 162.653 66.443 C 163.053 64.743 164.053 62.243 164.853 60.643 C 166.253 57.843 166.053 57.043 164.353 59.143 Z"/>
  <path d="M 135.353 61.343 C 133.653 65.243 133.853 66.943 135.653 63.543 C 136.553 61.943 137.053 60.143 136.853 59.643 C 136.753 59.143 136.053 59.943 135.353 61.343 Z"/>
  <path d="M 150.853 59.543 C 150.453 59.943 150.153 61.243 150.153 62.343 C 150.253 64.243 150.253 64.343 151.253 62.643 C 152.353 60.743 152.053 58.343 150.853 59.543 Z"/>
  <path d="M 167.253 62.943 C 165.653 65.843 165.153 67.843 165.653 69.943 C 166.753 74.843 168.553 74.943 167.753 70.143 C 167.353 67.243 167.453 65.943 168.253 65.943 C 168.853 65.943 169.153 65.043 168.853 63.943 C 168.553 62.843 168.653 61.943 169.153 61.943 C 169.553 61.943 170.153 61.243 170.553 60.443 C 171.753 57.343 169.453 59.143 167.253 62.943 Z"/>
  <path d="M 138.953 61.643 C 138.753 64.843 138.553 65.443 137.353 67.543 C 136.453 69.243 136.553 70.043 137.753 71.543 C 139.153 73.343 139.253 73.343 138.253 71.243 C 137.353 69.543 137.553 68.743 138.853 67.443 C 140.553 65.643 141.553 59.943 140.053 59.943 C 139.553 59.943 139.053 60.743 138.953 61.643 Z"/>
  <path d="M 203.653 63.043 C 202.553 64.743 203.753 65.143 205.153 63.443 C 205.953 62.543 205.953 61.943 205.353 61.943 C 204.753 61.943 203.953 62.443 203.653 63.043 Z"/>
  <path d="M 310.153 64.443 C 310.153 65.243 310.353 65.943 310.553 65.943 C 310.753 65.943 311.153 65.243 311.553 64.443 C 311.853 63.643 311.653 62.943 311.153 62.943 C 310.553 62.943 310.153 63.643 310.153 64.443 Z"/>
  <path d="M 178.653 64.943 C 178.353 65.443 178.553 65.943 179.053 65.943 C 179.653 65.943 180.153 65.443 180.153 64.943 C 180.153 64.343 179.953 63.943 179.753 63.943 C 179.453 63.943 178.953 64.343 178.653 64.943 Z"/>
  <path d="M 271.053 66.743 C 270.953 67.743 270.953 69.043 271.053 69.843 C 271.253 70.543 270.953 70.943 270.453 70.643 C 269.953 70.343 269.553 70.943 269.553 71.943 C 269.553 74.543 271.853 73.243 273.653 69.643 C 275.453 65.943 275.553 66.243 273.153 65.643 C 271.753 65.243 271.153 65.643 271.053 66.743 Z"/>
  <path d="M 282.153 66.543 C 282.153 68.143 283.853 70.243 284.853 69.843 C 285.453 69.643 285.053 68.543 284.053 67.543 C 282.953 66.443 282.153 66.043 282.153 66.543 Z"/>
  <path d="M 176.153 68.543 C 176.153 69.343 176.653 69.743 177.153 69.443 C 177.753 69.143 178.153 68.443 178.153 67.843 C 178.153 67.343 177.753 66.943 177.153 66.943 C 176.653 66.943 176.153 67.643 176.153 68.543 Z"/>
  <path d="M 197.153 68.043 C 197.153 68.543 197.653 68.743 198.153 68.443 C 198.753 68.143 199.153 67.643 199.153 67.343 C 199.153 67.143 198.753 66.943 198.153 66.943 C 197.653 66.943 197.153 67.443 197.153 68.043 Z"/>
  <path d="M 132.853 69.843 C 132.453 71.543 132.553 71.943 133.353 71.143 C 133.853 70.643 134.153 69.543 133.953 68.843 C 133.653 68.043 133.253 68.543 132.853 69.843 Z"/>
  <path d="M 183.953 71.043 C 182.053 72.143 181.553 73.943 183.153 73.943 C 183.653 73.943 184.553 73.043 185.153 71.943 C 186.353 69.643 186.353 69.643 183.953 71.043 Z"/>
  <path d="M 145.253 72.543 C 145.253 73.643 145.553 73.943 145.853 73.143 C 146.153 72.443 146.053 71.543 145.753 71.243 C 145.453 70.843 145.153 71.443 145.253 72.543 Z"/>
  <path d="M 170.253 72.543 C 170.253 73.643 170.553 73.943 170.853 73.143 C 171.153 72.443 171.053 71.543 170.753 71.243 C 170.453 70.843 170.153 71.443 170.253 72.543 Z"/>
  <path d="M 141.153 73.943 C 141.153 74.443 141.653 74.943 142.253 74.943 C 142.753 74.943 142.953 74.443 142.653 73.943 C 142.353 73.343 141.853 72.943 141.553 72.943 C 141.353 72.943 141.153 73.343 141.153 73.943 Z"/>
  <path d="M 174.653 73.943 C 174.353 74.443 174.753 74.943 175.553 74.943 C 176.453 74.943 177.153 74.443 177.153 73.943 C 177.153 73.343 176.753 72.943 176.253 72.943 C 175.653 72.943 174.953 73.343 174.653 73.943 Z"/>
  <path d="M 137.353 75.343 C 138.053 76.143 138.853 76.543 139.053 76.443 C 139.553 75.843 138.053 73.943 137.053 73.943 C 136.553 73.943 136.653 74.543 137.353 75.343 Z"/>
  <path d="M 151.953 76.643 C 152.453 78.743 152.653 78.943 152.953 77.543 C 153.153 76.543 152.953 75.343 152.353 74.743 C 151.753 74.143 151.653 74.743 151.953 76.643 Z"/>
  <path d="M 231.153 75.943 C 230.553 77.043 230.453 77.943 230.953 77.943 C 231.553 77.943 232.153 77.043 232.453 75.943 C 232.753 74.843 232.753 73.943 232.553 73.943 C 232.353 73.943 231.753 74.843 231.153 75.943 Z"/>
  <path d="M 273.153 76.843 C 271.753 79.543 271.853 79.843 274.153 79.243 C 275.253 78.943 276.153 77.843 276.153 76.843 C 276.153 74.343 274.553 74.443 273.153 76.843 Z"/>
  <path d="M 166.153 79.943 C 166.153 80.443 166.653 80.943 167.153 80.943 C 167.753 80.943 168.153 80.443 168.153 79.943 C 168.153 79.343 167.753 78.943 167.153 78.943 C 166.653 78.943 166.153 79.343 166.153 79.943 Z"/>
  <path d="M 255.853 83.543 C 255.453 83.943 255.153 84.943 255.153 85.843 C 255.153 86.943 255.453 87.043 256.253 86.243 C 256.853 85.643 257.253 84.643 256.953 83.943 C 256.753 83.343 256.253 83.143 255.853 83.543 Z"/>
  <path d="M 133.353 85.943 C 133.353 87.343 133.553 87.843 133.853 87.143 C 134.053 86.543 134.053 85.343 133.853 84.643 C 133.553 84.043 133.353 84.543 133.353 85.943 Z"/>
  <path d="M 163.153 85.943 C 163.153 87.043 163.553 87.943 164.053 87.943 C 164.553 87.943 165.153 87.043 165.453 85.943 C 165.753 84.643 165.453 83.943 164.553 83.943 C 163.753 83.943 163.153 84.843 163.153 85.943 Z"/>
  <path d="M 278.953 84.643 C 279.653 84.943 280.553 84.843 280.853 84.543 C 281.253 84.243 280.653 83.943 279.553 84.043 C 278.453 84.043 278.153 84.343 278.953 84.643 Z"/>
  <path d="M 283.453 85.443 C 283.153 86.343 283.153 87.243 283.353 87.543 C 283.653 87.843 284.153 87.143 284.453 85.943 C 285.053 83.643 284.353 83.243 283.453 85.443 Z"/>
  <path d="M 154.153 85.943 C 154.153 86.443 154.653 86.943 155.253 86.943 C 155.753 86.943 155.953 86.443 155.653 85.943 C 155.353 85.343 154.853 84.943 154.553 84.943 C 154.353 84.943 154.153 85.343 154.153 85.943 Z"/>
  <path d="M 305.153 86.343 C 305.153 87.143 305.653 88.143 306.153 88.443 C 306.753 88.743 307.153 88.343 307.153 87.543 C 307.153 86.743 306.753 85.743 306.153 85.443 C 305.653 85.143 305.153 85.543 305.153 86.343 Z"/>
  <path d="M 259.753 86.743 C 259.453 87.243 259.853 87.643 260.653 87.643 C 261.453 87.643 261.853 87.243 261.553 86.743 C 261.253 86.343 260.853 85.943 260.653 85.943 C 260.453 85.943 260.053 86.343 259.753 86.743 Z"/>
  <path d="M 276.653 87.943 C 276.953 88.443 277.653 88.943 278.253 88.943 C 278.753 88.943 279.153 88.443 279.153 87.943 C 279.153 87.343 278.453 86.943 277.553 86.943 C 276.753 86.943 276.353 87.343 276.653 87.943 Z"/>
  <path d="M 157.253 89.543 C 157.253 90.643 157.553 90.943 157.853 90.143 C 158.153 89.443 158.053 88.543 157.753 88.243 C 157.453 87.843 157.153 88.443 157.253 89.543 Z"/>
  <path d="M 166.753 89.743 C 166.453 90.243 166.853 90.643 167.653 90.643 C 168.453 90.643 168.853 90.243 168.553 89.743 C 168.253 89.343 167.853 88.943 167.653 88.943 C 167.453 88.943 167.053 89.343 166.753 89.743 Z"/>
  <path d="M 290.453 94.443 C 290.453 96.643 290.653 97.443 290.853 96.143 C 291.053 94.943 291.053 93.143 290.853 92.143 C 290.553 91.243 290.353 92.243 290.453 94.443 Z"/>
  <path d="M 138.153 93.443 C 138.153 94.243 138.353 94.943 138.553 94.943 C 138.753 94.943 139.153 94.243 139.553 93.443 C 139.853 92.643 139.653 91.943 139.153 91.943 C 138.553 91.943 138.153 92.643 138.153 93.443 Z"/>
  <path d="M 151.753 94.543 C 149.953 96.343 149.753 97.543 151.153 98.443 C 151.753 98.743 152.153 98.243 152.153 97.243 C 152.153 96.143 152.653 94.843 153.353 94.143 C 154.053 93.443 154.253 92.943 153.953 92.943 C 153.553 92.943 152.553 93.643 151.753 94.543 Z"/>
  <path d="M 132.253 97.543 C 132.253 98.643 132.553 98.943 132.853 98.143 C 133.153 97.443 133.053 96.543 132.753 96.243 C 132.453 95.843 132.153 96.443 132.253 97.543 Z"/>
  <path d="M 154.853 99.043 C 155.253 101.043 154.953 102.443 154.153 102.943 C 153.553 103.343 153.153 104.543 153.353 105.543 C 153.753 107.143 154.053 106.943 155.053 104.443 C 157.353 98.943 157.553 95.943 155.853 95.943 C 154.553 95.943 154.353 96.643 154.853 99.043 Z"/>
  <path d="M 162.253 97.643 C 162.953 98.643 163.753 99.643 163.853 99.843 C 164.053 100.043 164.153 99.543 164.153 98.743 C 164.153 97.843 163.453 96.843 162.553 96.543 C 161.053 95.943 161.053 96.143 162.253 97.643 Z"/>
  <path d="M 128.853 97.543 C 128.453 97.943 128.153 98.943 128.153 99.843 C 128.153 100.943 128.453 101.043 129.253 100.243 C 129.853 99.643 130.253 98.643 129.953 97.943 C 129.753 97.343 129.253 97.143 128.853 97.543 Z"/>
  <path d="M 135.153 100.443 C 135.153 101.843 135.653 102.943 136.153 102.943 C 136.753 102.943 137.153 101.843 137.153 100.443 C 137.153 99.043 136.753 97.943 136.153 97.943 C 135.653 97.943 135.153 99.043 135.153 100.443 Z"/>
  <path d="M 158.353 100.943 C 157.753 102.043 157.153 103.743 157.253 104.643 C 157.253 105.843 157.653 105.443 158.353 103.643 C 158.853 102.143 159.753 101.143 160.253 101.443 C 160.753 101.843 160.853 101.343 160.553 100.543 C 159.753 98.543 159.853 98.543 158.353 100.943 Z"/>
  <path d="M 278.153 100.943 C 278.153 102.043 278.553 102.943 279.053 102.943 C 280.153 102.943 281.253 100.343 280.453 99.543 C 279.253 98.343 278.153 99.043 278.153 100.943 Z"/>
  <path d="M 142.153 101.543 C 142.153 102.343 142.653 102.743 143.153 102.443 C 143.753 102.043 143.953 101.343 143.653 100.843 C 142.753 99.443 142.153 99.743 142.153 101.543 Z"/>
  <path d="M 148.753 104.243 C 149.053 105.243 149.653 105.743 149.953 105.443 C 150.253 105.143 149.953 104.343 149.253 103.643 C 148.253 102.743 148.153 102.843 148.753 104.243 Z"/>
  <path d="M 139.853 105.243 C 139.453 106.243 139.153 108.543 139.253 110.243 C 139.253 113.143 139.353 113.243 140.153 111.143 C 140.653 109.943 141.653 108.943 142.353 108.943 C 143.253 108.943 143.353 108.743 142.553 108.143 C 141.853 107.743 141.253 106.543 140.953 105.443 C 140.653 103.543 140.553 103.543 139.853 105.243 Z"/>
  <path d="M 131.153 107.043 C 131.153 107.543 131.653 107.743 132.153 107.443 C 132.753 107.143 133.153 106.643 133.153 106.343 C 133.153 106.143 132.753 105.943 132.153 105.943 C 131.653 105.943 131.153 106.443 131.153 107.043 Z"/>
  <path d="M 160.553 107.643 C 160.253 108.643 159.553 110.543 158.953 111.943 C 158.253 113.743 158.353 114.143 159.053 113.343 C 160.253 112.243 162.353 105.943 161.553 105.943 C 161.253 105.943 160.853 106.743 160.553 107.643 Z"/>
  <path d="M 130.253 112.243 C 128.953 114.343 129.053 114.343 130.753 112.743 C 131.753 111.743 132.353 110.743 132.053 110.543 C 131.753 110.243 130.953 111.043 130.253 112.243 Z"/>
  <path d="M 142.853 110.643 C 142.453 110.943 142.153 111.943 142.153 112.843 C 142.253 114.143 142.453 114.143 143.253 112.643 C 144.353 110.743 144.053 109.343 142.853 110.643 Z"/>
  <path d="M 149.753 111.443 C 149.453 112.343 149.753 112.943 150.653 112.943 C 151.453 112.943 152.153 112.243 152.153 111.443 C 152.153 110.643 151.753 109.943 151.253 109.943 C 150.753 109.943 150.153 110.643 149.753 111.443 Z"/>
  <path d="M 134.653 112.943 C 134.253 114.143 134.153 115.343 134.453 115.643 C 134.753 115.843 135.253 115.143 135.653 113.943 C 136.053 112.743 136.153 111.543 135.853 111.243 C 135.553 111.043 135.053 111.743 134.653 112.943 Z"/>
  <path d="M 144.153 115.043 C 143.453 116.143 143.153 117.343 143.453 117.543 C 143.653 117.743 144.353 116.843 144.953 115.443 C 146.353 112.443 145.653 112.143 144.153 115.043 Z"/>
  <path d="M 154.153 116.943 C 154.153 118.143 153.253 119.343 151.853 119.843 C 150.553 120.343 148.953 121.543 148.153 122.443 C 147.053 123.843 147.453 123.743 150.353 122.143 C 152.953 120.643 154.153 120.443 154.553 121.243 C 154.753 121.943 155.053 120.743 155.053 118.643 C 155.153 116.643 154.953 114.943 154.653 114.943 C 154.353 114.943 154.153 115.843 154.153 116.943 Z"/>
  <path d="M 131.453 117.543 C 131.153 118.343 131.353 119.543 132.053 120.243 C 132.853 121.043 133.153 120.643 133.153 118.643 C 133.153 115.643 132.453 115.143 131.453 117.543 Z"/>
  <path d="M 157.153 118.843 C 157.153 121.343 157.753 121.543 158.453 119.443 C 158.853 118.643 158.653 117.743 158.153 117.443 C 157.553 117.043 157.153 117.743 157.153 118.843 Z"/>
  <path d="M 136.153 118.943 C 136.153 119.443 136.653 119.943 137.153 119.943 C 137.753 119.943 138.153 119.443 138.153 118.943 C 138.153 118.343 137.753 117.943 137.153 117.943 C 136.653 117.943 136.153 118.343 136.153 118.943 Z"/>
  <path d="M 222.926 104.95 C 222.742 105.271 221.868 105.431 219.766 105.577 C 216.406 105.796 213.001 106.727 207.033 109.044 C 200.421 111.622 198.166 112.409 197.522 112.409 C 196.8 112.409 196.018 113.428 196.34 113.952 C 196.478 114.171 196.386 114.156 196.049 113.909 C 195.558 113.53 193.533 113.56 192.842 113.967 C 192.076 114.419 192.244 115.22 193.196 115.614 C 194.698 116.255 194.975 116.633 194.33 117.186 C 194.039 117.449 193.701 117.566 193.579 117.463 C 193.471 117.347 193.379 117.536 193.379 117.872 C 193.379 118.207 193.211 118.541 192.996 118.629 C 192.689 118.746 192.689 118.774 192.996 118.789 C 193.211 118.803 193.379 118.964 193.379 119.124 C 193.379 119.299 193.257 119.357 193.103 119.27 C 192.842 119.124 192.474 120.012 192.459 120.843 C 192.459 121.207 192.535 121.207 192.935 120.814 C 193.425 120.348 194.913 120.406 194.913 120.887 C 194.913 121.032 195.098 121.149 195.328 121.149 C 195.834 121.149 198.688 118.818 198.457 118.585 C 198.366 118.497 198.457 118.25 198.641 118.031 C 198.825 117.813 198.902 117.566 198.81 117.463 C 198.703 117.376 198.841 117.099 199.086 116.851 C 199.393 116.56 199.485 116.138 199.378 115.701 C 198.995 114.244 200.866 112.962 203.811 112.686 C 207.416 112.335 208.107 112.161 208.107 111.549 C 208.107 110.675 211.082 108.883 211.926 109.248 C 212.448 109.481 212.862 109.437 213.568 109.087 C 214.089 108.825 214.811 108.621 215.179 108.621 C 215.532 108.621 216.191 108.359 216.621 108.038 C 218.171 106.873 220.379 107.397 220.379 108.913 C 220.379 109.335 220.793 110.442 221.3 111.389 C 221.806 112.335 222.22 113.239 222.22 113.413 C 222.22 114.244 223.156 115.016 223.846 114.754 C 224.215 114.608 224.905 114.419 225.365 114.317 C 225.948 114.201 226.393 113.793 226.838 112.962 C 227.19 112.307 227.881 111.564 228.372 111.287 C 229.4 110.733 229.461 110.588 228.817 110.078 C 228.188 109.583 228.219 108.883 228.863 109.116 C 229.231 109.248 229.307 109.189 229.139 108.942 C 228.97 108.665 229.078 108.679 229.553 108.971 C 230.29 109.393 230.382 111.053 229.722 111.826 C 229.369 112.248 228.802 115.03 229.063 115.03 C 229.538 115.03 231.424 112.991 231.424 112.482 C 231.424 112.131 231.563 111.782 231.716 111.68 C 232.223 111.389 230.199 115.777 230.812 115.736 C 231.064 115.719 231.661 114.949 232.007 114.306 C 232.376 113.621 233.556 111.36 232.666 111.083 C 232.237 110.952 232.883 109.838 232.774 109.294 C 232.499 107.928 232.903 107.9 232.084 107.18 C 231.455 106.627 231.794 107.228 230.995 106.378 L 229.737 105.745 L 227.344 105.227 C 225.427 105.198 223.846 105.023 223.601 104.834 C 223.295 104.586 223.125 104.616 222.926 104.95 Z M 224.215 107.966 C 224.383 108.082 224.552 108.315 224.583 108.475 C 224.598 108.636 224.705 108.956 224.798 109.204 C 224.89 109.437 224.69 109.961 224.353 110.369 L 223.739 111.098 L 223.141 110.413 C 221.898 109.014 222.803 106.99 224.215 107.966 Z M 227.436 108.956 C 227.436 109.087 227.283 109.204 227.083 109.204 C 226.884 109.204 226.822 109.306 226.946 109.422 C 227.083 109.539 227.39 109.379 227.636 109.058 C 228.111 108.475 228.111 108.475 227.988 109.058 C 227.927 109.379 228.08 109.816 228.341 110.02 C 228.756 110.34 228.724 110.355 228.188 110.122 C 227.804 109.932 227.39 109.932 227.053 110.122 C 226.7 110.296 226.301 110.282 225.887 110.063 L 225.242 109.743 L 225.871 109.233 C 226.516 108.694 227.436 108.534 227.436 108.956 Z M 197.829 115.322 C 197.936 115.482 197.813 115.802 197.568 116.036 C 197.184 116.414 197.107 116.4 196.969 115.904 C 196.754 115.104 197.398 114.667 197.829 115.322 Z M 197.522 117.507 C 197.522 117.827 197.368 118.06 197.169 118.031 C 196.985 117.988 196.34 117.929 195.757 117.9 C 194.223 117.798 194.806 116.925 196.402 116.925 C 197.322 116.925 197.522 117.027 197.522 117.507 Z" style=""/>
  <path d="M 135.451 232.612 C 135.068 233.885 134.702 234.634 134.798 234.917 C 134.893 235.271 133.251 239.685 132.772 241.17 C 132.39 242.655 132.485 244.282 133.059 245.06 C 133.825 245.979 134.016 245.696 134.112 243.433 C 134.112 240.887 135.164 237.492 137.46 231.905 C 137.842 230.986 139.811 224.492 139.237 224.492 C 138.663 224.492 135.834 231.41 135.451 232.612 Z" style=""/>
  <path d="M 187.214 265.893 C 186.927 266.246 187.023 266.6 187.596 266.6 C 188.075 266.6 202.66 262.981 202.947 262.628 C 204.463 262.203 205.41 261.342 201.018 262.201 C 200.556 262.291 188.094 264.943 187.214 265.893 Z" style=""/>
  <path d="M 183.597 266.892 C 182.545 267.033 179.58 267.811 176.901 268.519 C 168.77 270.782 154.472 276.026 152.559 276.451 C 151.602 276.734 146.94 279.05 147.227 279.191 C 147.992 279.828 164.699 273.228 163.987 273.398 C 163.532 273.507 164.752 272.762 165.709 272.762 C 166.665 272.762 167.909 272.409 168.579 271.914 C 169.344 271.348 169.206 271.592 170.686 271.441 C 172.524 271.254 173.568 270.744 171.927 270.999 C 170.854 271.326 171.853 271.478 172.883 270.853 C 174.123 270.1 174.51 270.923 174.701 270.57 C 174.892 270.145 175.849 269.721 176.901 269.58 C 177.953 269.438 178.91 269.297 179.101 269.226 C 179.197 269.084 179.58 269.014 180.058 268.872 C 182.163 268.448 189.194 266.49 189.194 266.137 C 189.194 265.924 188.148 265.502 188.052 265.502 C 187.861 265.573 184.65 266.68 183.597 266.892 Z" style=""/>
  <path d="M 137.386 231.498 C 139.491 227.962 136.363 231.246 136.363 230.999 C 136.363 230.751 133.399 238.219 133.216 238.985 C 132.88 240.4 131.919 241.049 132.208 242.7 C 132.499 244.363 132.079 251.59 135.319 261.44 C 135.552 262.148 139.058 270.45 141.379 274.392 C 143.7 278.334 150.26 282.902 146.496 278.526 C 142.397 273.76 138.279 266.23 136.509 261.244 C 131.869 248.337 133.751 237.58 137.386 231.498 Z" style=""/>
  <path d="M 288.241 243.722 C 286.229 246.229 269.548 267.933 270.781 270.656 C 271.16 271.493 276.932 262.949 278.026 261.409 C 279.256 259.681 288.467 246.024 289.598 244.722 C 291.222 242.851 290.298 241.159 288.241 243.722 Z" style=""/>
  <path d="M 203.163 263.215 C 202.792 263.817 215.777 271.494 216.931 272.298 C 220.146 274.537 234.629 281.709 236.808 282.944 C 239.077 284.23 250.177 287.697 251.655 288.257 C 253.864 289.094 262.697 290.479 264.517 291.273 C 266.962 291.179 262.592 289.822 258.225 288.751 C 256.826 288.408 254.103 287.681 252.581 287.196 C 250.972 286.685 246.035 285.02 244.389 284.631 C 243.48 284.277 230.053 278.017 226.963 276.478 C 223.873 274.939 220.758 272.504 216.821 270.578 C 208.701 266.605 204.124 261.655 203.163 263.215 Z" style=""/>
  <path d="M 270.56 269.135 C 270.512 269.417 268.031 277.641 267.555 279.167 C 267.002 280.936 263.219 292.22 264.999 291.149 C 266.284 290.376 272.191 269.468 272.74 266.857 C 273.187 264.735 270.704 268.144 270.56 269.135 Z" style=""/>
  <path d="M 202.718 262.131 C 202.557 261.984 202.38 260.685 202.157 263.724 C 201.829 268.158 197.889 438.938 196.764 443.192 C 195.845 446.642 191.439 579.147 192.256 581.51 C 193.328 584.534 194.203 581.532 194.203 578.271 C 194.203 576.712 196.782 471.455 197.395 463.751 C 199.284 438.089 204.864 258.588 202.718 262.131 Z" style=""/>
  <path d="M 210.472 303.047 C 205.572 304.947 205.072 310.447 209.472 314.347 C 212.872 317.347 214.172 317.347 217.172 314.247 C 219.772 311.747 220.772 304.747 218.572 304.747 C 217.972 304.747 217.672 305.447 218.072 306.247 C 218.372 307.047 218.072 309.047 217.572 310.747 C 216.072 314.847 212.072 315.947 209.472 312.747 C 206.972 309.647 207.172 307.947 210.772 304.647 C 212.472 303.047 213.772 301.747 213.572 301.847 C 213.372 301.947 211.972 302.447 210.472 303.047 Z"/>
  <path d="M 212.472 308.247 C 211.872 311.247 212.172 312.547 213.272 311.547 C 213.572 311.147 213.672 309.647 213.472 308.047 L 213.172 305.247 L 212.472 308.247 Z"/>
  <path d="M 206.872 391.247 C 205.372 394.447 205.372 395.747 206.672 395.747 C 207.272 395.747 207.672 394.947 207.672 394.047 C 207.672 393.147 208.372 391.547 209.372 390.547 C 210.772 389.047 210.772 388.747 209.472 388.747 C 208.672 388.747 207.472 389.847 206.872 391.247 Z"/>
  <path d="M 212.372 392.447 C 211.272 393.447 211.572 397.747 212.672 397.747 C 213.272 397.747 213.672 396.347 213.672 394.747 C 213.672 391.647 213.472 391.247 212.372 392.447 Z"/>
  <path d="M 217.672 396.747 C 215.872 401.247 210.672 402.347 207.972 398.947 C 207.272 397.947 206.672 397.747 206.672 398.347 C 206.672 400.447 210.172 402.547 213.172 402.147 C 216.272 401.847 219.572 398.447 219.672 395.447 C 219.672 392.947 219.072 393.347 217.672 396.747 Z"/>
  <path d="M 210.372 469.447 C 209.972 469.747 209.672 470.547 209.672 471.147 C 209.672 471.747 210.172 471.647 210.872 470.947 C 211.472 470.347 211.772 469.547 211.572 469.247 C 211.272 468.947 210.672 469.047 210.372 469.447 Z"/>
  <path d="M 204.272 473.247 C 202.472 475.947 202.072 480.747 203.672 480.747 C 204.272 480.747 204.672 479.647 204.672 478.347 C 204.672 477.047 205.572 474.847 206.772 473.347 C 208.372 471.347 208.472 470.747 207.372 470.747 C 206.572 470.747 205.172 471.847 204.272 473.247 Z"/>
  <path d="M 214.672 475.847 C 214.672 478.547 210.972 482.747 208.672 482.747 C 207.972 482.747 207.672 483.047 207.972 483.347 C 208.372 483.747 209.872 483.447 211.472 482.847 C 214.972 481.347 217.172 477.347 215.672 474.947 C 214.872 473.547 214.772 473.647 214.672 475.847 Z"/>
  <path d="M 208.372 476.747 C 207.772 479.147 209.172 480.347 210.072 478.147 C 210.872 475.947 210.772 474.747 209.772 474.747 C 209.272 474.747 208.672 475.647 208.372 476.747 Z"/>
  <path d="M 203.672 549.547 C 200.372 551.747 198.772 553.847 198.672 555.947 C 198.672 558.447 200.272 558.947 200.372 556.547 C 200.672 553.647 204.772 549.547 206.872 550.047 C 207.972 550.347 208.672 550.047 208.672 549.147 C 208.672 547.347 206.772 547.447 203.672 549.547 Z"/>
  <path d="M 210.672 554.547 C 210.672 557.847 208.272 560.447 204.672 560.947 C 202.172 561.247 202.172 561.247 204.472 561.947 C 208.972 563.247 215.472 554.547 211.672 552.247 C 211.072 551.847 210.672 552.847 210.672 554.547 Z"/>
  <path d="M 205.472 553.347 C 204.972 553.747 204.672 554.947 204.672 556.147 C 204.672 557.547 204.972 557.847 205.772 557.047 C 206.372 556.447 206.672 555.147 206.472 554.247 C 206.372 553.347 205.872 552.947 205.472 553.347 Z"/>
</svg>