<?xml version="1.0" encoding="utf-8"?>
<svg viewBox="0 0 720 670" xmlns="http://www.w3.org/2000/svg">
  <defs>
    <style>
		.s0 { fill: #000000 } 
		.s1 { fill: none;stroke: #000000;stroke-linecap: round;stroke-width: 2 } 
	</style>
  </defs>
  <g id="Layer">
    <path id="Layer" class="s0" d="m424.4 0c0.5 0-0.4 1.6-1.7 3.6-3.6 4.9-3.2 9 0.7 11.4 1.8 1.2 3.3 3 3.3 4.1 0 2.6-0.2 2.6-6.1 0.4-2.4-1-4.9-1.8-5.4-1.8-0.5 0-2.1-0.7-3.6-1.5-1.6-1-3.1-0.8-3.7 0.1-0.7 1.2-2 1.2-4.1 0-5.9-3.1-23.1-1.8-31.9 2.5-4.4 2.3-10.6 4.1-13.7 4.1-4.8 0-5.3 0.3-3.5 2.4 2.3 2.7 1.7 3-2.3 1.5-1.4-0.5-2.1-1.6-1.6-2.4 1.2-2.2-16.8 0-23.2 2.6-2.8 1.1-7.2 4.9-9.8 8.1-2.6 3.3-5.9 7.7-7.4 9.5-2.4 3.1-3.2 3.3-6.5 1.5-2.9-1.5-6.1-1.6-12.6-0.3-7.2 1.3-9.3 1.1-12.7-1.2-5.6-3.6-6.7-1.6-4 6.6 3.6 10.9 3 24-1.4 31-3.3 5.3-4.6 6.1-9.2 5.7-5.7-0.3-6.4-2.9-0.6-2.9 1.6 0 4.5-1.5 6.5-3.4 3.3-3.3 3.4-4.9 2.9-21.8l-0.6-18.1h18.3l18.3-0.2 4.9-6.8c2.8-3.6 6.9-8.1 9.3-9.7 5.9-3.7 21.8-6.9 30.6-5.9 5.6 0.7 9.5-0.1 17.5-3.7 10.9-4.9 13.7-5.3 34-3.1 12.6 1.1 13.4 1.1 13.4-1.8 0-1.8 1.1-4.9 2.6-6.9 1.3-2 2.8-3.6 3.3-3.6z"/>
    <path id="Layer" class="s0" d="m427.5 5.1c-1.8 2.6 3.9 7.8 13.6 12.4 8.9 4.2 11.2 4.2 27.4 1.1 7.5-1.4 18 2.2 25 8.5 4.3 3.6 7.9 5.6 11.1 5.6 2.7 0 6.3 1.1 8.1 2.4 4.5 3.5 6.2 3.2 14.5-2.7 9.5-6.7 18.8-7.1 32.2-1.2 11.6 5.3 14.1 7.2 17 14.2 3.8 9.2 2.6 10-2.3 1.2-3.7-6.7-5.5-8.3-10.9-9.8-3.6-0.8-8.4-3-10.7-4.6-4.9-3.4-9.4-3.6-17.6-0.3-6.9 2.8-17.8 13.2-14.9 14.2 2.3 0.8-1 7.8-3.6 7.8-3.1 0-9.6-5.2-9.6-7.6 0-2 0.5-2.2 2.1-0.7 1.3 1 2.8 1.3 3.3 0.7 0.6-0.5 1.1 0.1 1.1 1.6 0 1.5 1.1 2.8 2.5 2.8 3.9 0 2.9-3.9-2.3-9.3-3.6-3.8-5.8-4.8-9-4.3-3.5 0.7-5.9-0.5-11.5-5.7-8.3-7.7-18.4-10.1-28.7-7-7.9 2.2-19.2 0.8-24.4-3.5-4.2-3.1-8.3-3.9-8.3-1.3 0 0.8 1.3 2.3 2.9 3.1 2.6 1.7 2.6 1.7 0 1.8-2.9 0-6.9-5.4-5.1-7.2 0.7-0.5-0.6-2.8-2.7-5-3.1-3.3-3.5-4.5-1.7-6.6 2.3-2.8 4-3.2 2.5-0.6z"/>
    <path id="Layer" class="s0" d="m396.7 21.7c0.5 0.5 0.4 1.8-0.3 2.8-1 1.5-1.6 1.5-2.6-0.1-1-1.8-2.3-1.8-6.9-0.2-6.3 2.3-7.6 2.4-7.6 0.6 0-0.6 1.6-1.9 3.7-2.7 3.6-1.7 12.1-1.8 13.7-0.4z"/>
    <path id="Layer" class="s0" d="m471.1 24.5c2.8 0 12.9 4.9 15.6 7.4 4.2 4.2 0.1 6.4-4.8 2.4-6.8-5.2-11.9-6.7-15.3-4.1-2.7 2-2.8 2.3-0.5 2.5 1.4 0 3.1 1.5 3.6 3.3 0.6 2.6 2.2 3.2 7.3 3.2 4.9 0 6.7 0.7 7.2 3 0.7 2.4 0.2 2.9-2.6 2.4-12.9-2.1-14.1-2.6-16-7-1.2-2.6-2.6-4.3-3.3-3.9-2.9 1.8-1-1.5 2.9-5.1 2.5-2.3 5.1-4.1 5.9-4.1z"/>
    <path id="Layer" class="s0" d="m391.8 26.3c0.4-0.1 0.4 1.5 0.2 3.6-0.3 3.3-1.1 3.8-7 3.4-9.2-0.3-9.2-0.4-0.8-3.9 4-1.6 7.5-3.1 7.6-3.1z"/>
    <path id="Layer" class="s0" d="m342.1 31.1c-0.6 2.2 0 3.2 1.8 3.2 4.5 0 18-3.6 20.3-5.4 1.2-0.8 2.5-1.1 3.1-0.6 1.5 1.6-6.4 7.7-11.4 8.6-2.5 0.7-4.9 1.8-5.4 2.5-1.6 2.8-7.5 1.5-8.4-1.8-1.1-4.3-2.7-4.1-5.7 0.3-1.3 2-2.8 2.8-3.4 2-0.5-1 1.3-3.9 3.9-6.9 5.7-6 6.4-6.4 5.2-1.9z"/>
    <path id="Layer" class="s0" d="m441.5 28.8c0.9 0.5 1.2 1.6 0.5 2.4-0.5 0.8-1.6 1.2-2.4 0.5-0.8-0.5-1.2-1.6-0.5-2.4 0.5-0.9 1.6-1.2 2.4-0.5z"/>
    <path id="Layer" class="s0" d="m333.5 30.7c0 3.1-15.7 14.7-17.5 12.8-1.3-1.3 4.1-7.4 10.1-11 5.4-3.4 7.4-3.7 7.4-1.8z"/>
    <path id="Layer" class="s0" d="m550.9 34.8c0 0.8-1.8 1.2-3.9 0.8-2.6-0.5-4.4 0-5.1 1.7-0.5 1.3-2.1 1.9-4.1 1.4-1.8-0.4-3.7-0.1-4.2 0.7-0.5 0.8-2.5 1.5-4.4 1.5-3.6-0.2-3.6-0.2 0.3-3.5 2.3-1.8 5.1-2.7 6.9-2.3 1.4 0.5 3.2 0.2 3.7-0.6 1.3-2 10.8-1.8 10.8 0.3z"/>
    <path id="Layer" class="s0" d="m562.5 40.9c4.8 1.3 6.2 2.7 7.7 7.7 2.3 7.5 1 9.4-1.6 2.4-2-5.1-5.3-6.9-13.1-6.9-13.3 0-18 11-8.2 19.3 9.5 8 11.9 8.7 20.4 4.6 7.7-3.8 9.4-3.8 9.4-0.2 0 2.5-12.8 8.1-17.7 7.6-4.9-0.5-17.2-8.9-19.6-13.6-2-3.8-2.6-8-2.3-13.1 0.2-1.6 3.1-4.2 6.5-6 6.9-3.8 10.3-4.1 18.5-1.8z"/>
    <path id="Layer" class="s0" d="m326.3 42.5c0.3 0 0 1.5-1 3.3-1 1.8-2.1 3.2-2.6 3.2-0.3 0 0-1.4 1-3.2 1-1.8 2.1-3.3 2.6-3.3z"/>
    <path id="Layer" class="s0" d="m357.2 44.1c-0.5 0.9-1.8 1.7-2.8 1.7-0.8 0-4.9 2.1-8.8 4.9-3.9 2.6-7.2 4.2-7.2 3.4 0-2.1 5.4-6.4 11.4-9 6.7-2.9 8.7-3.3 7.4-1z"/>
    <path id="Layer" class="s0" d="m534.7 44.6c-1 1.3-1.3 2.8-0.6 3.3 0.5 0.7 0.1 1.1-0.9 1.1-2.1 0-2.6-3.6-0.8-5.4 2-2.1 4.1-1.1 2.3 1z"/>
    <path id="Layer" class="s0" d="m317.1 45.8c1 0 1.7 0.3 1.7 0.6 0 0.5-0.7 1.3-1.7 1.8-0.8 0.5-1.6 0.2-1.6-0.6 0-1 0.8-1.8 1.6-1.8z"/>
    <path id="Layer" class="s0" d="m527.4 47.9c0.5 0.5 0.6 2 0.1 3.1-0.5 1.3-1 0.8-1-1-0.1-1.8 0.4-2.8 0.9-2.1z"/>
    <path id="Layer" class="s0" d="m309.6 49c0.5 0 1.3 0.7 1.8 1.7 0.5 0.8 0.2 1.6-0.6 1.6-1 0-1.8-0.8-1.8-1.6 0-1 0.3-1.7 0.6-1.7z"/>
    <path id="Layer" class="s0" d="m334.5 52.3c0.3 0 0.6 0.7 0.6 1.6 0 0.9-0.8 1.7-1.8 1.7-0.8 0-1.1-0.8-0.6-1.7 0.5-0.9 1.3-1.6 1.8-1.6z"/>
    <path id="Layer" class="s0" d="m415.2 53.1c1 0.5 1.7 1.7 1.7 2.6 0 0.9-0.7 1.5-1.7 1.5-0.8 0-1.6-1.1-1.6-2.6 0-1.3 0.8-2 1.6-1.5z"/>
    <path id="Layer" class="s0" d="m487.8 54.9c0.8 2.3 0.7 2.5-1.5 0.7-1.3-1.2-2.4-2.3-2.4-2.6 0-1.8 3.1-0.4 3.9 1.9z"/>
    <path id="Layer" class="s0" d="m299.2 57.9c0 2.6-3 5-4.5 3.6-0.4-0.5-0.4-2 0-3.5 1.3-3.1 4.5-3.2 4.5-0.1z"/>
    <path id="Layer" class="s0" d="m334.6 61c0.5 0.5-0.3 2.6-1.8 4.7-2.9 4.3-3.6 2.8-0.8-2.3 1-1.8 2.1-2.8 2.6-2.4z"/>
    <path id="Layer" class="s0" d="m534.4 62.1c1 0 1.8 0.7 1.8 1.7 0 0.8-0.3 1.6-0.7 1.6-0.5 0-1.3-0.8-1.8-1.6-0.5-1-0.1-1.7 0.7-1.7z"/>
    <path id="Layer" class="s0" d="m339.4 63.8c0.3 0 0.6 0.6 0.6 1.6 0 0.8-0.8 1.6-1.8 1.6-0.8 0-1.1-0.8-0.6-1.6 0.5-1 1.3-1.6 1.8-1.6z"/>
    <path id="Layer" class="s0" d="m524.7 63.8c1 0 1.7 0.6 1.7 1.4 0 0.8 0.5 3 1 4.6 0.8 2.6 0.6 2.6-1.7-0.2-1.4-1.8-2.6-3.7-2.6-4.5 0-0.7 0.8-1.3 1.6-1.3z"/>
    <path id="Layer" class="s0" d="m589.3 74.1c5.9 5.8 10.6 12.2 10.6 14 0 2.1 3.6 5.6 11.2 10.6 6 4 11.9 8.9 13 10.7 1.2 1.9 2.5 11.9 3 23.3 0.8 17.4 1.6 21 4.7 25.9 2.1 3.1 5.1 10.1 6.7 15.5 2.5 8.5 2.5 11.3 0.7 23.4-2.3 15.8-7.9 24.8-18.8 30.4-3.5 1.9-7.5 5.4-8.8 7.7-2.3 4.1-2.2 4.5 3.5 10.4 6.3 6.4 7.7 12.6 4.5 18.8-2.8 5.1-24.1 19.8-30.1 20.8-6.6 1-10.8-1.5-10.8-6.1 0-3.7 11.3-13.9 18.8-17 5.1-2.1 5.7-2.9 4.2-5.7-2.2-4.2-7.5-5.7-12.9-3.6-2.4 0.8-6.2 1.8-8.5 2.1-3.1 0.4-5 2.5-8.1 9-5.4 11.2-9 14.9-16.7 17.2l-6.4 1.8 0.7 20.6c0.5 11.3 1.3 22.9 1.9 25.7 0.7 3.1 0.2 7.8-1.3 12.4-1.5 3.9-3.4 15-4.4 24.3-1.6 15.2-2.5 18.4-8.7 29-3.7 6.5-10.3 15.2-14.5 19.3-4.3 3.9-6.9 7.2-5.7 7.2 1.1 0 7.2 2.4 13.4 5.5 15.3 7.4 35.4 15.4 47.9 19 5.5 1.8 12.2 4.6 14.7 6.2 5 3.8 21.4 11.8 23.7 11.8 6.4 0 31 30.5 44.3 54.7 8 14.7 26.5 82.3 34.5 126.7 1.6 8.5 6 32.1 10.1 52.3 4.6 23.4 7 45.2 8.8 59.7 2.6 19.8-0.2-1.6 4.1 34.1 2.9 23.7 0.5 32.3 0.5 41.8 0 9.8-1.5 45.8-2 58.1-0.5 11.1-2.7 22.8-2.7 42.1 0 35.3-3.5 23-3.8 2.8-0.3-20 1.6-33.1 2.4-40.1 1.7-15.8 4.9-83.5 1.9-106.4-0.6-5-1.2-6.6-3.1-25.4-1.3-12.9-3.6-29.6-4.9-37.2-16.4-93.6-26.2-138.2-39.4-179-8-25.1-8.9-26.5-21.1-45.8-8.4-12.9-26.5-33.5-29.6-33.5-2.3 0-15.1-6.2-23.4-11.5-4.1-2.6-10.3-5.2-13.9-5.9-3.6-0.6-11.9-3.6-18.5-6.5-6.5-3.1-13.9-6-16.3-6.5-2.5-0.7-8.7-3.6-13.9-6.6-5.2-3.1-11.6-5.5-14.4-5.5-8.5 0-7.5-4.1 3.4-15.2 15.6-15.7 19.8-24.6 21.6-44.3 0.8-9 3-20.8 4.8-26.2 3.1-8.8 3.1-10 0.6-15-1.5-3-2.4-9.2-2.3-14.1 0-4.7-0.3-12.7-1-17.6-0.9-7.6-0.6-9.7 2-13 1.6-2.1 5.1-4 7.4-4.2 2.3-0.3 6-1.6 8.1-3.1 3.5-2.3 5.4-5.6 11.2-20.1 1.1-2.6 2.7-3.5 7.1-3.5 3.3 0 7.1-1.1 8.4-2.6 3.7-3.6 6.4-3.2 11.9 1.5 2.8 2.3 5.6 4.1 6.4 4.1 1 0 1.5 2.3 1.3 5.1-0.3 5-2.9 7.8-7.4 8-3.1 0.1-14.7 8.1-17 11.7-0.9 1.5-1.1 3.3-0.4 4 1.6 1.8 15.5-4.1 21.4-9 2.7-2.5 7-5.8 9.6-7.2 6.6-4.3 5.7-9.5-2.9-18.7-8.2-8.5-8-8-5.7-10.8 6.8-8.5 11.2-12.5 15-14 2.4-1 6.7-4.6 9.3-8.4 8.8-12.2 8-41.3-1.6-54.4-2.5-3.4-3.6-7.8-4.1-16.5-0.3-6.4-1-16-1.3-21.2-0.5-8.1-1.3-10.3-4.4-12.8-2.2-1.6-4.8-3.6-5.8-4.4-0.8-0.7-3.4-2.3-5.7-3.4-6.5-3.5-11.3-8.5-11.3-12.5 0-2.1-2.2-5.5-5.2-8-6.2-5-11.1-11.9-11.1-15.3 0-1.4 4.7 2.6 10.6 8.5z"/>
    <path id="Layer" class="s0" d="m294.3 67.8c0.9 0.5 1.6 3 1.6 5.4 0 3.5-0.3 4-1.6 2-0.9-1.3-1.7-3.8-1.7-5.4 0-1.6 0.8-2.4 1.7-2z"/>
    <path id="Layer" class="s0" d="m544.2 75q0 2.7-1 0.5c-0.5-1.1-2.6-2.8-4.9-3.7-2.1-0.9-3.4-2.2-2.9-3.1 1.4-2.3 9 3.1 8.8 6.3z"/>
    <path id="Layer" class="s0" d="m287.2 69.3c1.2 1.2-1.1 4.3-3.1 4.3-1 0-1-1 0.3-2.5 1.2-1.5 2.5-2.1 2.8-1.8z"/>
    <path id="Layer" class="s0" d="m313.9 74.5c0 1.7-1 2.3-2.5 1.7-1.5-0.5-2.4 0-2.4 1.3 0 1.3-1.2 2.8-2.7 3.3-2.4 0.9-2.4 0.6-0.4-1.8 1.1-1.7 3.2-4 4.5-5.1 3.1-2.6 3.5-2.5 3.5 0.6z"/>
    <path id="Layer" class="s0" d="m526.4 73.6c1 0 1.6 1.1 1.6 2.6 0 1.3-0.6 1.9-1.6 1.4-0.8-0.4-1.7-1.6-1.7-2.6 0-0.8 0.9-1.4 1.7-1.4z"/>
    <path id="Layer" class="s0" d="m447.4 77.2c0.4 1.6 0.4 4.2 0 5.7-0.5 1.6-0.8 0.3-0.8-2.8 0-3.1 0.3-4.4 0.8-2.9z"/>
    <path id="Layer" class="s0" d="m299.5 76.8c1 0 1.1 1.2 0.6 2.6-0.5 1.5-0.9 3.3-0.9 4.1 0 0.9-0.7 1.5-1.5 1.5-0.7 0-1-1.8-0.5-4.1 0.3-2.3 1.5-4.1 2.3-4.1z"/>
    <path id="Layer" class="s0" d="m568.9 80.1c0.8 1.3 1.6 3.1 1.6 4.1 0 0.8-0.8 0.5-1.6-0.8-0.8-1.3-1.6-3.3-1.6-4.1 0-1 0.8-0.5 1.6 0.8z"/>
    <path id="Layer" class="s0" d="m453.8 80.6c0.5 0.5 0.7 2 0.2 3.1-0.5 1.3-1 0.8-1-1-0.2-1.8 0.3-2.8 0.8-2.1z"/>
    <path id="Layer" class="s0" d="m577.1 81.1c1.3 0.6 3.7 1.1 5.4 1.3 1.4 0.2 3.7 1.3 4.7 2.3 1.5 1.5 0.5 1.5-3.8 0.3-7-2.1-8.5-2.1-7.2 0 0.5 0.8 0.4 1.6-0.6 1.6-0.8 0-1.5-1.4-1.3-3.2 0.1-2.3 1-3.1 2.8-2.3z"/>
    <path id="Layer" class="s0" d="m389.7 81.7c0.5 0 1.3 0.7 1.8 1.7 0.5 0.8 0.2 1.6-0.6 1.6-1 0-1.8-0.8-1.8-1.6 0-1 0.3-1.7 0.6-1.7z"/>
    <path id="Layer" class="s0" d="m315.2 85.3c-0.5 1.2-2.1 2.5-3.9 2.8-2.7 0.5-2.8 0.2-0.9-2.1 2.7-3.1 5.6-3.4 4.8-0.7z"/>
    <path id="Layer" class="s0" d="m328 91.5c-0.6 0-1.1-1.8-1.1-4 0-2.3 0.5-4.1 1.1-4.1 0.7 0 1.1 1.8 1.1 4.1 0 2.2-0.4 4-1.1 4z"/>
    <path id="Layer" class="s0" d="m558.3 85c-0.5 0.8-2 1.6-3 1.6-1.1 0-1-0.6 0.5-1.6 3.1-2 3.8-2 2.5 0z"/>
    <path id="Layer" class="s0" d="m458.5 89.9c0.5 1-0.1 1.2-1.4 0.7-1.5-0.5-2.6-1.3-2.6-1.7 0-1.3 3.1-0.6 4 1z"/>
    <path id="Layer" class="s0" d="m570.2 89.6c-0.3 0.6 1.1 2.9 3.3 5.2 1.9 2.1 3.6 5.2 3.6 6.9 0 3.7 1.8 3.7 7-0.3 2.3-1.8 6.2-3.3 8.8-3.2 2.5 0 3.8 0.5 2.6 0.9-1.3 0.6-1.6 2.9-1.1 6 0.6 4.9 0.6 5.1-1 1.2-2.4-5.6-2.9-5.8-6.5-2.5-1.8 1.6-4.6 3.1-6.1 3.3-1.6 0.1-4.2 0.8-5.9 1.6-1.8 0.7-4.5 0.5-7-0.8-4.4-2.5-5.2-4.9-1.5-4.9 1.3 0 2.5 0.6 2.5 1.6 0 0.8 1.5 1.7 3.3 1.7 2.1 0 3.2-1.2 3.2-3.3 0-1.8-1-3.3-2.1-3.3-2.1 0-6.4-9-4.7-10.4 1.3-1.4 1.9-1.2 1.6 0.3z"/>
    <path id="Layer" class="s0" d="m579.3 89.3c3 1.1 2 3.9-1.6 3.9-1.3 0-2.3-1.2-2.3-2.5 0-2.8 0.4-2.9 3.9-1.4z"/>
    <path id="Layer" class="s0" d="m258 92c0.8 3.8-0.7 7.7-2.8 7.7-1 0-0.8-2.1 0.3-5.4 1.3-3.7 2-4.4 2.5-2.3z"/>
    <path id="Layer" class="s0" d="m322 95.1c0 4.8-0.3 5.1-2.4 2.8-1.5-1.5-2.1-3.7-1.5-5.2 1.7-4.6 3.9-3.1 3.9 2.4z"/>
    <path id="Layer" class="s0" d="m281.7 96.3c-0.5 1.8-1.8 3.6-3.1 4.1-3.1 1.1-3 0.1 0.4-4 3.5-4 3.6-4 2.7-0.1z"/>
    <path id="Layer" class="s0" d="m564.1 93.2c0.9 0 1.5 0.6 1.5 1.6 0 0.8-1.1 1.6-2.6 1.6-1.3 0-2-0.8-1.5-1.6 0.5-1 1.7-1.6 2.6-1.6z"/>
    <path id="Layer" class="s0" d="m585.2 93.2c1 0 1.7 0.6 1.7 1.6 0 0.8-0.7 1.6-1.7 1.6-0.8 0-1.6-0.8-1.6-1.6 0-1 0.8-1.6 1.6-1.6z"/>
    <path id="Layer" class="s0" d="m305.7 94.8c0.8 0 1.1 1.2 0.6 2.5-0.6 1.3-1.3 2.4-1.6 2.4-0.3 0-0.6-1.1-0.6-2.4 0-1.3 0.6-2.5 1.6-2.5z"/>
    <path id="Layer" class="s0" d="m488.1 100c1.7 1.5 2.3 4 1.7 5.4-1.5 3.8-4.3 1.5-4.3-3.7 0-3.9 0.2-4.1 2.6-1.7z"/>
    <path id="Layer" class="s0" d="m293.6 100.2c0.5 0.3 0 2.5-0.8 4.6-0.8 2.1-1.7 3.1-1.7 1.9-0.1-0.9 0.4-3.1 0.9-4.5 0.6-1.5 1.3-2.3 1.6-2z"/>
    <path id="Layer" class="s0" d="m269.1 101.8c0.5 0.5 0.6 2 0.1 3.1-0.5 1.4-0.9 0.9-0.9-0.9-0.2-1.8 0.3-2.8 0.8-2.2z"/>
    <path id="Layer" class="s0" d="m322 106.3c-0.9 0-1.6-1.1-1.6-2.5 0-1.4 0.7-2.4 1.6-2.4 0.9 0 1.7 1 1.7 2.4 0 1.4-0.8 2.5-1.7 2.5z"/>
    <path id="Layer" class="s0" d="m362.6 102.2c0.5 0.5-0.8 2.6-2.8 4.5l-3.8 3.6 2.8-4.5c1.7-2.5 3.3-4.1 3.8-3.6z"/>
    <path id="Layer" class="s0" d="m253.5 104c1.8 1.1 2 5.5 0.2 5.5-2.3 0-3.4-1.8-2.4-4.2 0.4-1.3 1.4-1.8 2.2-1.3z"/>
    <path id="Layer" class="s0" d="m277.9 107.9c0 4.7-2.8 5.4-3.6 0.8-0.5-2.1-0.5-4.4 0-4.7 1.5-1.7 3.6 0.8 3.6 3.9z"/>
    <path id="Layer" class="s0" d="m283.8 103.5c0.5 0.3 0 2.4-0.8 4.6-0.8 2.1-1.7 3.1-1.7 1.9-0.1-1 0.4-3.1 0.9-4.6 0.6-1.4 1.3-2.2 1.6-1.9z"/>
    <path id="Layer" class="s0" d="m599.9 104.6c0.7 1.2 2.2 1.5 3.2 1 0.9-0.7 2.9-0.5 4.2 0.3 2.1 1 1.5 1.8-2.9 3.1-5.4 1.7-5.6 1.5-5.6-2.3 0-2.6 0.3-3.4 1.1-2.1z"/>
    <path id="Layer" class="s0" d="m297 107.4c0.4 1.1 0.4 3.1 0 4.1-0.5 1.1-0.8 0.3-0.8-2 0-2.3 0.3-3.1 0.8-2.1z"/>
    <path id="Layer" class="s0" d="m404.8 106.7c0.4 0.5 0.6 2 0.1 3.2-0.5 1.3-1 0.8-1-1-0.1-1.8 0.4-2.8 0.9-2.2z"/>
    <path id="Layer" class="s0" d="m493.7 107.1c1 0.5 1.6 2.1 1.6 3.4 0 1.3-0.6 2.3-1.6 2.3-0.8 0-1.6-1.5-1.6-3.4 0-1.8 0.8-2.8 1.6-2.3z"/>
    <path id="Layer" class="s0" d="m300.8 107.9c1 0 1.6 0.3 1.6 0.6 0 0.5-0.6 1.4-1.6 1.8-0.8 0.5-1.6 0.2-1.6-0.6 0-1 0.8-1.8 1.6-1.8z"/>
    <path id="Layer" class="s0" d="m306.8 113.9c-1.3 2.7-2.9 6.7-3.6 9.5-0.6 2.6-1.6 3.9-1.9 2.8-0.5-1-1.5-1.6-2.3-1-0.8 0.5-1.5 0-1.5-1 0-0.9 1.2-2.1 2.5-2.6 1.3-0.5 2.8-2.6 3.4-4.4 0.5-2 1.8-4.6 2.6-5.7 2.8-3.4 3.1-2.1 0.8 2.4z"/>
    <path id="Layer" class="s0" d="m250.4 114.1c1.3 2.6 1.3 4.7 0 7.4-2.2 4.5-4.7 16.6-6.5 32.2-1.5 11.6-11.8 38.1-11.8 30.2 0-1.8 1.5-6.2 3.5-9.6 3.6-6.7 5-13.8 8.1-37 1-7.7 2.5-14.5 3.3-15.5 0.8-0.8 1.5-3.8 1.6-6.6 0-4.7 0.2-4.7 1.8-1.1z"/>
    <path id="Layer" class="s0" d="m261.1 112.3c0.3 0.8-0.5 3.8-2 6.4-2.9 5.5-3.3 2.8-0.5-3.6 1.2-2.3 2.3-3.6 2.5-2.8z"/>
    <path id="Layer" class="s0" d="m284.6 117.2c-1.6 2.8-1.6 2.6-1.8-0.5 0-1.8 0.5-3.9 1.2-4.6 1.9-1.9 2.4 2 0.6 5.1z"/>
    <path id="Layer" class="s0" d="m316.2 113.6c-0.7 1.3-1.7 2.5-2.3 2.5-0.8 0-1 1.4-0.5 3.2 0.5 1.8 0 3.3-1 3.3-1.3 0-1.5 2.1-0.8 6.9 1.3 7.8-1.7 7.7-3.5-0.4-0.8-3.4 0-6.7 2.7-11.4 3.6-6.2 7.3-9.2 5.4-4.1z"/>
    <path id="Layer" class="s0" d="m266.3 112.8c2.4 0 0.8 9.3-2 12.3-2.1 2.1-2.4 3.4-0.9 6.2 1.6 3.4 1.4 3.4-0.9 0.5-1.9-2.5-2.1-3.8-0.6-6.6 1.9-3.4 2.3-4.4 2.6-9.6 0.2-1.5 1-2.8 1.8-2.8z"/>
    <path id="Layer" fill-rule="evenodd" class="s0" d="m601.4 115.2c2 2.2 2.1 3.2 0.7 3.6-1.2 0.5-2.2 2.3-2.2 4.3 0 3.3 0.2 3.3 2.2 0.5 2.1-2.8 2.3-2.8 4.9-0.2 1.6 1.5 2.3 3.5 1.8 4.3-0.5 1-2 0.3-3.3-1.3-1.3-1.8-2.1-2.2-2.3-1 0 1.1-1.1 2.1-2.4 2.1-1.3 0-2.5 0.7-2.5 1.6 0 0.9 1 1.7 2.1 1.7 1.3 0 3.6 1.4 5.3 3.2 1.6 1.8 4.5 3.2 6.3 3 2.3-0.3 3.6 0.5 4 2.6 0.5 2.5 0 2.8-2.3 2-1.8-0.8-4.9-1.5-7.2-1.8-3.6-0.4-13.1-9.5-13.1-12.5 0-2.4-5.9-2.4-9.5-0.1-4.4 2.8-5.9 1.8-4.4-2.6 0.8-3 1.6-3.1 6.2-1.8 2.8 0.8 5.3 1.4 5.4 1.4 0.2 0-0.1-1.8-0.6-4-0.5-3.3 0-4.1 2.6-4.1 1.9 0 3.9-0.9 4.6-1.8 0.6-1.2 1.9-0.8 3.7 0.9zm-4.7 3.3c-0.8-0.5-1.7 0.5-1.7 2.3 0 2 0.9 3.4 1.7 3.4 1 0 1.6-0.9 1.6-2.2 0-1.4-0.6-3-1.6-3.5z"/>
    <path id="Layer" class="s0" d="m373 116.1c1 0 1 0.9-0.3 2.4-2.3 2.8-4.2 2.1-2.4-0.6 0.5-1 1.8-1.8 2.7-1.8z"/>
    <path id="Layer" class="s0" d="m606.3 116.1c0.8 0 2.1 0.6 2.6 1.6 0.5 0.8 0.4 1.6-0.6 1.6-0.8 0-2.1-0.8-2.6-1.6-0.5-1-0.4-1.6 0.6-1.6z"/>
    <path id="Layer" class="s0" d="m546 117.7c0.8 0 1.1 1.1 0.7 2.5-0.7 1.3-1.4 2.4-1.7 2.4-0.3 0-0.6-1.1-0.6-2.4 0-1.4 0.6-2.5 1.6-2.5z"/>
    <path id="Layer" class="s0" d="m331.2 119.3c0.3 0 0.7 0.7 0.7 1.7 0 0.8-0.9 1.6-1.8 1.6-0.9 0-1.2-0.8-0.7-1.6 0.5-1 1.3-1.7 1.8-1.7z"/>
    <path id="Layer" class="s0" d="m483.9 122.1c3.9 1 3.7 0.5 0.8 6.6-2.9 5.8-6.7 8-6.7 3.7 0-1.6 0.6-2.6 1.5-2.1 0.8 0.5 1.3-0.2 0.9-1.3-0.1-1.3-0.1-3.5 0-5.1 0.2-1.8 1.2-2.4 3.5-1.8z"/>
    <path id="Layer" class="s0" d="m501.7 125.2c1.6 1.7 2.3 3.5 1.3 3.8-1.6 0.6-4.4-2.8-4.4-5.4 0-0.8 1.3-0.2 3.1 1.6z"/>
    <path id="Layer" class="s0" d="m326.9 124.2c1 0 1.7 0.7 1.7 1.5 0 1-0.7 2.1-1.7 2.6-0.8 0.5-1.6-0.1-1.6-1.4 0-1.5 0.8-2.7 1.6-2.7z"/>
    <path id="Layer" class="s0" d="m361.3 124.2c1 0 1.6 0.4 1.6 0.7 0 0.5-0.6 1.3-1.6 1.8-0.8 0.5-1.7 0.2-1.7-0.7 0-0.9 0.9-1.8 1.7-1.8z"/>
    <path id="Layer" class="s0" d="m256.3 127.3c0.4 1.2-0.1 3-1 3.8-1.3 1.3-1.4 0.7-0.8-2.1 0.7-2.1 1.3-3 1.8-1.7z"/>
    <path id="Layer" class="s0" d="m340 132.4c-1 1.8-2.4 3.3-3.2 3.3-2.7 0-1.8-3 1.3-4.8 3.9-2.2 3.9-2.2 1.9 1.5z"/>
    <path id="Layer" class="s0" d="m591.8 130.6c0 0.8-1.5 1.8-3.3 2.3-1.8 0.5-3.3 1.6-3.3 2.5 0 1.6 15.2 6.8 20.1 6.8 1.2 0 4 1.5 6.1 3.3 2.1 1.8 4.4 3.3 5.2 3.3 0.7 0 1.3 0.8 1.3 1.8 0 1.9-7 0.1-7.8-2-0.3-0.8-1.7-1.5-3-1.5-1.4 0-2.1-0.6-1.4-1.6 0.5-0.8-1.5-1.3-4.9-1-3.1 0.3-5.8 0-5.8-1 0-0.8-0.6-1.1-1.3-0.6-0.6 0.3-3.6-0.4-6.5-1.8-5.9-2.8-7.4-9.5-2.3-10.8 4.7-1.3 6.9-1.2 6.9 0.3z"/>
    <path id="Layer" class="s0" d="m275.6 131.3c0.5 0.5 0.7 1.9 0.2 3.1-0.5 1.3-1 0.8-1-1-0.2-1.8 0.3-2.8 0.8-2.1z"/>
    <path id="Layer" class="s0" d="m316.5 131.3c0.5 0.5 0.6 1.9 0.1 3.1-0.4 1.3-0.9 0.8-0.9-1-0.2-1.8 0.3-2.8 0.8-2.1z"/>
    <path id="Layer" class="s0" d="m268.7 134c0.5 0 1.4 0.7 1.8 1.7 0.5 0.8 0.2 1.6-0.6 1.6-1 0-1.8-0.8-1.8-1.6 0-1 0.3-1.7 0.6-1.7z"/>
    <path id="Layer" class="s0" d="m325.5 134c0.8 0 1.4 0.7 1.4 1.7 0 0.8-1.1 1.6-2.6 1.6-1.3 0-1.9-0.8-1.4-1.6 0.4-1 1.6-1.7 2.6-1.7z"/>
    <path id="Layer" class="s0" d="m261.4 135.7c1.6 0 4.1 3.1 3.3 4.1-0.4 0.1-1.7-0.5-2.8-1.8-1.2-1.3-1.3-2.3-0.5-2.3z"/>
    <path id="Layer" class="s0" d="m286.4 137c1 1 1.3 2.9 1 4.6-0.5 2.3-0.8 1.9-1.6-1.5-0.5-3.1-0.4-4.1 0.6-3.1z"/>
    <path id="Layer" class="s0" d="m417.5 135.7c0.3 0 0.3 1.5-0.2 3.3-0.4 1.8-1.4 3.2-2.4 3.2-0.8 0-0.7-1.4 0.3-3.2 1-1.8 2-3.3 2.3-3.3z"/>
    <path id="Layer" class="s0" d="m488.8 140.4c0 1.7-1.5 3.5-3.3 3.9-3.7 1-3.9 0.5-1.6-3.9 2.3-3.9 4.9-4.1 4.9 0z"/>
    <path id="Layer" class="s0" d="m310.6 143.9c1 0 1.6 0.6 1.6 1.6 0 0.8-0.6 1.6-1.6 1.6-0.8 0-1.6-0.8-1.6-1.6 0-1 0.8-1.6 1.6-1.6z"/>
    <path id="Layer" class="s0" d="m457.4 152c0.5 1.2-0.2 2.8-1.1 3.8-1.4 1.3-1.8 1.1-1.8-0.7 0-1.4 0.4-3.1 1.1-3.7 0.7-0.7 1.5-0.4 1.8 0.6z"/>
    <path id="Layer" class="s0" d="m256.2 153.2c0.3 1.1 0.3 3.1 0 4.1-0.5 1.1-0.9 0.3-0.9-2 0-2.3 0.4-3.1 0.9-2.1z"/>
    <path id="Layer" class="s0" d="m306 158.6c-1.1 0-1.9-1.5-1.9-3.3 0-1.8 0.8-3.3 1.9-3.3 1.1 0 2 1.5 2 3.3 0 1.8-0.9 3.3-2 3.3z"/>
    <path id="Layer" class="s0" d="m494.3 152.2c1.8-0.2 2.8 0.3 2.2 0.8-0.5 0.5-2 0.7-3.1 0.2-1.3-0.5-0.9-1 0.9-1z"/>
    <path id="Layer" class="s0" d="m502.4 155.3c-0.5 2-1.4 3.1-1.8 2.6-0.4-0.5-0.4-1.9 0.1-3.4 1.5-3.6 2.6-3 1.7 0.8z"/>
    <path id="Layer" class="s0" d="m290 153.7c0.5 0 1.3 0.6 1.8 1.6 0.5 0.8 0.2 1.6-0.7 1.6-0.9 0-1.8-0.8-1.8-1.6 0-1 0.4-1.6 0.7-1.6z"/>
    <path id="Layer" class="s0" d="m537.8 154.5c1 0.5 1.7 2.1 1.7 3.4 0 1.3-0.7 2-1.7 1.5-0.8-0.5-1.6-2.1-1.6-3.4 0-1.4 0.8-2 1.6-1.5z"/>
    <path id="Layer" class="s0" d="m463.4 155.3c0.4 0 1 0.7 1.5 1.3 0.5 0.8-0.1 1.5-1.5 1.5-1.3 0-1.9-0.7-1.4-1.5 0.5-0.6 1.1-1.3 1.4-1.3z"/>
    <path id="Layer" class="s0" d="m491.1 156.9c1.4 0 2.6 0.7 2.6 1.7 0 0.8-0.7 1.6-1.5 1.6-1 0-2.1-0.8-2.6-1.6-0.5-1 0.2-1.7 1.5-1.7z"/>
    <path id="Layer" class="s0" d="m295.2 159.1c0.5 0.4 0.7 1.9 0.2 3.1-0.5 1.3-1 0.8-1-1-0.1-1.8 0.3-2.8 0.8-2.1z"/>
    <path id="Layer" class="s0" d="m311.4 160.2c0.3 0 1 0.7 1.5 1.3 0.5 0.8-0.2 1.5-1.5 1.5-1.3 0-1.9-0.7-1.5-1.5 0.5-0.6 1.2-1.3 1.5-1.3z"/>
    <path id="Layer" class="s0" d="m512.8 165.4c0.3 1.7 0.3 4.6 0 6.6-0.3 2.1-0.6 0.8-0.6-2.8-0.2-3.6 0.1-5.2 0.6-3.8z"/>
    <path id="Layer" class="s0" d="m616.3 163.5c1 0 1.6 0.6 1.6 1.6 0 0.8-0.6 1.6-1.6 1.6-0.8 0-1.6-0.8-1.6-1.6 0-1 0.8-1.6 1.6-1.6z"/>
    <path id="Layer" class="s0" d="m264.8 165.1c0.8 0 1.2 1.2 0.7 2.5-0.7 1.3-1.3 2.4-1.7 2.4-0.3 0-0.6-1.1-0.6-2.4 0-1.3 0.6-2.5 1.6-2.5z"/>
    <path id="Layer" class="s0" d="m375.3 165.6c0.5 0.5 0.7 2 0.2 3.1-0.5 1.3-1 0.8-1-1-0.1-1.8 0.3-2.8 0.8-2.1z"/>
    <path id="Layer" class="s0" d="m396.9 166.7c0.8 2.3-2.4 5.9-3.9 4.5-0.7-0.7-0.2-2.3 1.1-3.8 1.5-1.8 2.5-2 2.8-0.7z"/>
    <path id="Layer" class="s0" d="m289 166.7c0.5 0 0.2 0.9-1 2-1.1 1.1-1.9 3.3-1.9 5.1 0 1.6-0.7 2.4-1.7 1.9-2.2-1.4-1.9-3.4 1-6.3 1.3-1.5 3-2.7 3.6-2.7z"/>
    <path id="Layer" class="s0" d="m429.8 166.7c2.1 0 2.4 7.6 0.3 9-0.8 0.5-2 0.2-2.6-0.8-0.5-0.8-0.3-1.6 0.5-1.6 1 0 1.3-1.5 0.8-3.3-0.5-1.8 0-3.3 1-3.3z"/>
    <path id="Layer" class="s0" d="m617.9 169.2c1 0.5 1.7 2.3 1.7 3.8 0 2.4-0.4 2.4-1.7 0.3-0.8-1.3-1.6-3.1-1.6-3.8 0-0.8 0.8-0.8 1.6-0.3z"/>
    <path id="Layer" class="s0" d="m386.9 183.6c0.5 2.9 1.5 5.5 2.3 5.7 0.8 0.3 1 1.5 0.4 2.5-0.7 0.9-1.7 4.4-2.3 7.6-1 5.1-1.2 4.8-1.3-3.2-0.2-6.4-1.5-11.1-4.3-16.2-2.3-3.8-4.1-7.9-4.1-8.8 0-4 8.5 7.5 9.3 12.4z"/>
    <path id="Layer" class="s0" d="m454.5 169.2l4.7 9.5c6.2 12.6 9.3 15.7 16.8 16.8 3.5 0.7 6.2 1.8 6.2 2.6 0 1 1.2 1.3 2.5 0.8 1.3-0.6 2.8-0.3 3.3 0.7 0.6 0.8 0 2-1.3 2.5-2.8 0.9-20.6-5.4-23.9-8.7-1.8-2-2.5-2-3.6-0.2-0.8 1.2-1.5 3.3-1.5 4.8 0 1.4-1.8 3.9-4.1 5.4-3.6 2.4-4 2.4-4 0.1 0-1.4 1.7-4.6 4-7 2.3-2.5 4.1-5.6 4.1-7.2 0-1.5 0.5-3.9 1-5.4 0.7-1.6 0.3-2.4-1-2.1-1.4 0.3-2.3-1.8-2.8-6.1z"/>
    <path id="Layer" class="s0" d="m254.4 172.1c0.5 0.5 0.6 2 0.1 3.1-0.5 1.4-1 0.9-1-0.9-0.1-1.8 0.4-2.8 0.9-2.2z"/>
    <path id="Layer" class="s0" d="m292.1 171.6c2.8 0 2.5 5-1.3 13.9-1.6 4.1-2.1 4.5-2.8 1.8-0.3-1.6 0.4-3.6 1.3-4.2 1.4-0.8 1.8-3.1 1.2-6.4-0.8-3.9-0.5-5.1 1.6-5.1z"/>
    <path id="Layer" class="s0" d="m303.1 172.6c1.5 0.5 2.6 2.2 2.6 3.6 0 1.3-0.2 2.1-0.5 1.8-0.2-0.3-1.5-1.9-2.6-3.6-2-2.4-2-2.8 0.5-1.8z"/>
    <path id="Layer" class="s0" d="m369 171.6c3.2 0 3.7 5 1.3 11-1.3 3.1-2.5 7-2.5 8.7 0 2.7-10.3 12.1-11.8 10.6-0.3-0.5-3.1-0.2-5.8 0.6-6.3 1.8-6.6 0.9-1.2-5.5 3.1-3.8 4.4-4.4 5.4-2.8 1.2 1.8 2 1.6 4.3-0.5 1.4-1.5 2.6-3.4 2.6-4.2 0-1 0.6-1.3 1.4-0.9 0.9 0.5 1.8-1.1 2.3-3.7 0.5-2.6 2.2-5.7 3.5-7 1.8-2 1.9-3 0.5-4.5-1.3-1.3-1.3-1.8 0-1.8z"/>
    <path id="Layer" class="s0" d="m249.8 174.9c0.5 1.2-0.2 2.8-1.2 3.8-1.3 1.3-1.8 1.1-1.8-0.7 0-1.4 0.5-3.1 1.2-3.7 0.6-0.7 1.5-0.4 1.8 0.6z"/>
    <path id="Layer" class="s0" d="m629.9 178c0.5 2-0.2 3.6-1.8 4.3-2 0.6-2.2 1.3-0.9 2.1 2.3 1.5 1 13.4-1.3 13.4-0.8 0-1.4 1.1-1.4 2.5 0 1.4-1 2.9-2.3 3.4-1.3 0.5-3 3.1-3.5 5.7-1.3 5.9-5.7 6.4-5.7 0.7 0-2.7 1-4.1 2.6-4.1 1.7 0 2.3-1 1.7-2.5-0.5-1.4 0-2.4 1.3-2.4 3.1 0 4.6-4.1 5.2-15.2 0.3-5.3 1-10.3 1.6-11.1 1.4-2.2 3.5-0.5 4.5 3.2z"/>
    <path id="Layer" class="s0" d="m259.9 183.1c-0.9 0-1.6-1.8-1.6-4.1 0-2.3 0.7-4.1 1.6-4.1 0.9 0 1.7 1.8 1.7 4.1 0 2.3-0.8 4.1-1.7 4.1z"/>
    <path id="Layer" class="s0" d="m404.8 174.9c0.3 0 0.6 0.7 0.6 1.7 0 0.8-0.8 1.6-1.8 1.6-0.8 0-1.1-0.8-0.6-1.6 0.5-1 1.3-1.7 1.8-1.7z"/>
    <path id="Layer" class="s0" d="m439.1 175.4c0.5 0.5 0.6 2 0.2 3.1-0.5 1.3-1 0.8-1-1-0.2-1.8 0.3-2.7 0.8-2.1z"/>
    <path id="Layer" class="s0" d="m242.4 176.6c0.2 0 0.5 5.3 0.5 11.9 0.2 8.6 1.2 13.4 3.8 18 4.2 7.6 4.2 8.3-0.7 23-5.2 15.4-5.4 31.1-0.6 48.6 3.6 13.2 8.5 20.2 15.3 22 3.3 0.9 3.8 2.2 4.6 16.7 0.7 8.5 0.3 26.7-0.6 40.2-2.5 33.9-1.7 45.3 4.7 58.7 5.6 11.9 12.3 22.2 19.3 29.9 19.6 20.8 27 28.3 32.5 32.6 14.7 11.6 25.4 20.7 25.4 22 0 2.6 25-0.1 30.7-3.4 5.6-3.3 7-2 2.4 2.1-4.9 4.3-12.5 7.5-16.8 7-2.3-0.3-6.7-0.6-9.8-0.6-4.6-0.2-9.2-2.9-23.7-14.4-9.8-7.7-19.1-15.4-20.4-16.8-1.3-1.7-8.4-9.2-15.4-17-7-7.7-14.7-16.5-17-19.3-5.4-7.4-14.1-26.5-16.5-36.6-2.5-10.3-3.6-31.6-1.8-35 0.6-1.3 1.6-4.6 2.3-7.2 1-4.3 0.8-4.6-1.3-2.8-1.5 1.3-2.6 3.1-2.6 4.1 0 2.9-9.5 9.5-12.8 8.7-2.3-0.5-2-1 1.3-2.3 4.4-2 10-7.5 12.8-12.9 0.9-1.8 1.8-13 1.9-24.6 0.2-26.8 0.3-25.1-2.1-25.1-1.1 0-4.6-2.5-7.5-5.6-4.3-4.4-6.2-8.7-9.5-21.6-5.1-19.6-4.6-34 1.6-49.2l4.1-10-3.4-13.4c-2.6-10.1-4.3-13.7-6.7-14.7-3.3-1.1-3.3-1.1 0.1-2.9 1.8-1 4-3.8 4.5-6.1 0.6-2.3 1.1-4 1.4-4z"/>
    <path id="Layer" class="s0" d="m299.8 179.2c0.5 1.3 0.3 2.1-0.5 1.4-0.8-0.5-2.3 1.2-3.1 3.6-1.1 3-1.8 3.6-1.8 1.7-0.1-1.5 0.8-4.3 1.8-6.1 2.5-3.9 2.3-3.9 3.6-0.6z"/>
    <path id="Layer" class="s0" d="m495.8 177.5c1.3 1.3-0.5 5.6-2.3 5.6-0.8 0-1.4-1.5-1.4-3.3 0-3.1 1.8-4.2 3.7-2.3z"/>
    <path id="Layer" class="s0" d="m619.9 176.6c2 0 1.6 2.7-1.2 8.1-3.7 7.2-5.8 5.9-2.9-1.6 1.5-3.6 3.3-6.5 4.1-6.5z"/>
    <path id="Layer" class="s0" d="m272.2 179.7c0.5 0.8 0.1 1.9-0.8 2.6-0.9 0.5-1.7-0.2-1.7-1.5 0-2.9 1-3.4 2.5-1.1z"/>
    <path id="Layer" class="s0" d="m394.1 178.7c2.2 0.1 2.6 1.4 2.3 5.5-0.1 3.6 0.3 5.4 1.8 5.4 1.3 0 2.3-0.6 2.3-1.6 0-0.8 1-1.2 2.3-0.7 1.3 0.5 4.2-0.3 6.5-1.8 3-1.9 4.9-2.2 7.1-0.9 2.6 1.4 2.3 1.8-2.3 2.7-3 0.5-5.4 1.8-5.4 2.7 0 0.8-1 1.3-2 1.1-4.1-0.5-6.7 0.2-5.5 1.3 0.6 0.8 2.1 1.3 3.1 1.3 1.1 0 1.9 0.8 1.9 2 0 2.9 5.9 6.7 9.3 5.7 1.7-0.3 3 0 3 1 0 2.1-8.3 4.2-9.7 2.4-0.4-0.8-3.7-3.6-7.1-6.2-7.1-5.2-9.9-9.5-10.2-15.8-0.1-3.3 0.5-4.3 2.6-4.1z"/>
    <path id="Layer" class="s0" d="m323.7 186.7c3.4 7 3.4 7 0 2.9-1.8-2.3-3.9-4.9-4.8-5.9-0.9-1.1-1.1-2.4-0.6-2.9 1.6-1.6 1.9-1.3 5.4 5.9z"/>
    <path id="Layer" class="s0" d="m377 179.8c0.3 0 0.6 0.7 0.6 1.7 0 0.8-0.8 1.6-1.8 1.6-0.8 0-1.1-0.8-0.6-1.6 0.5-1 1.3-1.7 1.8-1.7z"/>
    <path id="Layer" class="s0" d="m431.7 180.6l1.7 4c1.8 4.5-0.7 7.2-5.4 5.7-1.7-0.5-3-0.2-3 0.8 0 1-1.4 1.8-3.2 1.8-3.3 0-3.3 0-0.2-3.1 2-2 4.4-2.8 6.5-2.3 2.8 0.7 3.5 0.2 3.6-2.9z"/>
    <path id="Layer" class="s0" d="m281.3 184.2c1.2 1.2 1.7 2.5 1.2 3-0.5 0.5-1.5-0.4-2-2-1-2.3-0.8-2.4 0.8-1z"/>
    <path id="Layer" class="s0" d="m267.8 187.2c0.5 1.8 1.4 3.7 2.6 4.4 1.3 1 1.1 1.3-0.3 1.3-1.2 0-2.8 1.6-3.6 3.6-1.3 3.4-1.5 3.3-1.5-1.5-0.2-2.8 0.3-6.5 1-8.2 1.1-2.7 1.3-2.7 1.8 0.4z"/>
    <path id="Layer" class="s0" d="m377 184.7c0.3 0 0.6 0.7 0.6 1.7 0 0.8-0.8 1.6-1.8 1.6-0.8 0-1.1-0.8-0.6-1.6 0.5-1 1.3-1.7 1.8-1.7z"/>
    <path id="Layer" class="s0" d="m493.5 184.7c1 0 1.8 0.7 1.8 1.7 0 0.8-0.3 1.6-0.6 1.6-0.5 0-1.3-0.8-1.8-1.6-0.5-1-0.2-1.7 0.6-1.7z"/>
    <path id="Layer" class="s0" d="m442.4 192.1c1.3 3.6 2.1 7.7 1.9 9 0 1.3 0.3 3.6 1 5.2 0.7 1.5 0.2 3.9-1.3 5.7-1.5 1.7-3.8 4.4-5.2 6.2-2.5 3.1-2.5 3.1-1.5-0.8 0.6-2.3 1.1-5.5 1-7.3 0-1.7 0.8-4.1 1.6-5.3 1.3-1.3 1.2-3.7-0.2-7.8-1.1-3.3-1.4-7.2-0.8-8.7 0.8-2.1 1.7-1.1 3.5 3.8z"/>
    <path id="Layer" class="s0" d="m253.4 188c1 0 1.6 0.3 1.6 0.6 0 0.5-0.6 1.4-1.6 1.8-0.8 0.5-1.7 0.2-1.7-0.6 0-1 0.9-1.8 1.7-1.8z"/>
    <path id="Layer" class="s0" d="m301.4 188c1.4 0-2.1 10.3-4 12.1-1.2 1.3-1.4 0.6-0.2-2.3 1-2.3 2.1-5.4 2.6-7 0.5-1.5 1.2-2.8 1.6-2.8z"/>
    <path id="Layer" class="s0" d="m382 191.9c0.5 1.7-0.1 3.8-1.3 4.9-1.4 1.3-1.6 1.2-0.8-1.1 0.5-1.7 1.2-3.9 1.2-4.9 0.1-1.2 0.4-0.7 0.9 1.1z"/>
    <path id="Layer" class="s0" d="m340.7 191.4c1.8-0.1 2.8 0.4 2.1 0.8-0.5 0.5-2 0.7-3.1 0.2-1.3-0.5-0.8-1 1-1z"/>
    <path id="Layer" class="s0" d="m435.7 192.9c0.4 0.8 0.4 2.5-0.2 3.4-1 1.8-3.8-0.9-3.9-3.9 0-1.6 2.9-1.5 4.1 0.5z"/>
    <path id="Layer" class="s0" d="m253.2 195.5c0.5 0.3-0.5 2-2.1 3.6-2.8 2.6-2.9 2.6-0.8-0.8 1.1-2 2.4-3.3 2.9-2.8z"/>
    <path id="Layer" class="s0" d="m271.5 198.9c-1.3 2.5-1.6 2.5-1.8 0.4 0-1.5 0.5-3.1 1.2-3.6 1.9-2.1 2.4 0.1 0.6 3.2z"/>
    <path id="Layer" class="s0" d="m284.6 194.5c0.8 0 1.5 1.2 1.5 2.5 0 1.3-1.2 2.4-2.5 2.4-1.4 0-1.9-0.9-1.4-2.4 0.6-1.3 1.6-2.5 2.4-2.5z"/>
    <path id="Layer" class="s0" d="m610.6 194.5c3.1 0 4.2 4.4 1.8 6.4-1.8 1.5-2.5 1-3-2.3-0.5-2.6-0.1-4.1 1.2-4.1z"/>
    <path id="Layer" class="s0" d="m259.4 196.7c0.5 0.4 0.4 2.4-0.3 4.4-0.6 1.9-1.5 3.1-2 2.8-0.4-0.5-0.3-2.5 0.4-4.5 0.6-1.9 1.4-3.1 1.9-2.7z"/>
    <path id="Layer" class="s0" d="m304.2 199.8c2 2.9 1.8 4.1-0.6 5-1.7 0.7-2.2-0.3-1.5-3.2 0.5-3 1.1-3.5 2.1-1.8z"/>
    <path id="Layer" class="s0" d="m335.1 197.8c1 0 1.5 0.5 1.2 1.1-0.4 0.9-1.8 4.1-3.5 7.6-1.4 3.4-8.3 11.4-15.2 17.9-11.6 11.3-12.4 12.5-12.9 19.8-0.3 4.4-2.1 10.5-3.9 13.6-1.8 3.1-3.3 6.5-3.3 7.8 0 4.9 30.6 27 33.4 24.2 0.5-0.6 1-2.4 1-4.2 0-3.1 0.8-3.3 29.2-2.1 16 0.6 31.4 1.8 33.9 2.6l35.3 2.7-1.7 2.5c-12 0.6-70.6-3.4-73.7-4.4-2-0.7-3.4-0.3-3.4 0.6 0 1-0.9 1.8-1.8 1.8-0.8 0-1.3-0.6-0.8-1.3 0.4-0.6-2.2-1.3-5.6-1.1-6.2 0.2-11.4 2.9-11.4 6 0 1 0.9 1 2.2-0.1 2-1.7 2.2-0.7 1.7 6.4-0.2 4.7-1.3 9.4-2.3 10.6-1 1.1-1.2 2.6-0.3 3.1 0.8 0.5 0.9 4.4 0.3 8.7-0.7 4.2-0.8 8.5-0.3 9.4 0.6 0.9 0.8 3.3 0.4 5.3-0.1 2.1 0.2 3.7 1 3.7 0.7 0 1.2 3.3 0.8 7.1-0.4 6.3 0 7.6 4.6 11.6 6.2 5 5.4 7.6-1 3.4-3.6-2.3-4.5-2.5-5.7-0.7-0.8 1.3-1.1 3-0.8 4 1.1 3.4 2.6 9.6 1.6 7.6-1.3-2.7-4.4-2.4-7.5 0.9-5 5.5-10.8 10.3-12.2 10.3-1 0-3 1.4-4.6 3.2-1.7 1.8-3.9 3.3-5.1 3.3-1.3 0-1.8 1-1.3 2.5 0.7 1.4 0 2.4-1.5 2.4-4.7 0-4.5 3.3 0.4 10.5 2.7 4.1 6 8.3 7 9.4 1.1 1.4 3.3 4.6 4.7 7.2 3 5.6 27.7 36.7 34.4 43.2 8 7.8 18.6 16.5 24.6 20.1 6.3 3.6 7.9 6.1 4.5 6.1-7.1 0-30.9-20.6-45.8-39.6-16.7-21.1-39.1-52.5-39.1-54.8 0-1.1 1.5-2.7 3.3-3.7 4.4-2.5 4.2-3.8-2.6-12.6-11.1-14.6-20.5-37.1-23.2-56.9-3.5-23.1-3.6-24.4-1.8-22.6 0.9 1 2.4 7.2 3.1 13.8 1.6 13.4 8.1 35.9 13.9 47.2 2.1 4.1 6.8 11.5 10.6 16.5l6.7 9.2 5.1-4.3c23-19.3 25.3-23.2 22.8-39.7-0.9-6.2-1.4-12.7-1.1-14.5 0.3-1.7 0.8-10.3 1-19l0.3-16-9-4.9c-11.4-6.4-25.2-16.5-26.5-19.7-1.1-3.2-3.9-3.1-4.5 0.4-0.5 1.6-1.4-0.2-2-4.1-0.8-4.4-2.1-6.9-3.8-6.9-1.8 0-2.3 1.2-1.4 4.1 0.6 2.3 0.3 5.6-0.7 7.4-1.3 2.3-1.1 4.2 0.2 6.7 1.4 2.7 1.3 3.7-0.4 4.9-3.7 2.3-4.7 1.6-4.9-3.1l-0.1-4.4-1.3 4-1.3 4.1-0.2-4.6c-0.2-2.4 0.5-4.4 1.3-4.4 0.8 0 1.5-2.7 1.5-6.2 0-3.2 0.3-7.2 0.6-8.5 0.4-1.3-0.1-2.6-0.9-2.8-0.7 0-4.1-3.2-7.6-7l-6-6.7-2.8 4.3c-2.8 4.2-2.4 6.5 1 6.5 2.6 0 6.8 13.9 4.7 16-1.1 1.2-2.3-0.6-3.6-5.7-1.3-4.6-3.2-7.8-5.4-8.8-5.2-2.3-5.2-8 0-13.3 4.4-4.4 4.4-4.4 1.5-9.8-1.6-2.9-3.4-5.4-3.9-5.4-0.5 0-1.2-3.1-1.3-7l-0.4-6.9 4.1 8.7c2.5 5.6 4.6 8.3 5.9 7.5 1.2-0.8 1.5 0 1 2.3-0.7 2-0.3 3.6 0.5 3.6 0.8 0 1.5 1 1.5 2.3 0 1.3 1.6 5.2 3.6 8.7 3.1 5 3.7 5.5 4.4 2.9 0.3-1.6-0.4-3.4-1.3-3.8-1-0.3-1.8-1.3-1.8-2.1 0-1 0.6-1.3 1.4-0.6 1 0.4 2.5-0.5 3.5-2 1.3-2.3 1.4-1.8 0.8 2.8-0.8 5-0.3 6.2 4.2 9.8 3 2.3 6.6 5.2 8.2 6.8 3.4 3.3 4.8 2.3 4.8-3.7 0-4.8 2.4-7.9 3.5-4.4 0.4 1 1.8-2.5 3.3-7.9 1.3-5.2 2.8-10.8 3.1-12.1 0.5-1.6-0.5-2.3-2.8-2.1-2.9 0.3-3.4-0.3-2.7-2.9 0.6-2.2 1.3-2.7 2.1-1.7 0.5 1.2 2.3 1.5 3.8 0.8 1.9-0.6 2.7-0.1 2.7 2 0 1.8 1.5 0 3.3-3.9 1.6-3.8 3.9-6.9 4.9-6.9 2.5 0 6.7-4.2 5.4-5.5-0.7-0.5 0.5-1 2.4-1 2.5 0 3.6-1 3.6-3.3 0-1.8 1-3.3 2.3-3.3 1.2 0 2.7-1.4 3.1-3.2 0.5-1.8 1.7-3.3 2.8-3.3z"/>
    <path id="Layer" class="s0" d="m394.3 199.1c1.8 1.8 0.5 5.2-2 5.2-0.6 0-0.9-1.4-0.5-3.4 0.7-2.1 1.5-2.8 2.5-1.8z"/>
    <path id="Layer" class="s0" d="m274.3 203.5c-1 2.3-2.1 3.8-2.4 3.5-0.5-0.4 0-2.3 1.1-4.1 2.5-4.8 3.6-4.3 1.3 0.6z"/>
    <path id="Layer" class="s0" d="m307.8 198.6l0.7 5.6c0.8 5.7-3.6 18.1-6.4 18.1-2.3 0-1.3-3.9 2-8.2 1.8-2.2 3.2-6.7 3.4-9.8z"/>
    <path id="Layer" class="s0" d="m376.2 199.4c0.9 0 1.1 0.7 0.6 1.7-0.5 0.8-1.8 1.6-2.6 1.6-1 0-1.2-0.8-0.7-1.6 0.5-1 1.8-1.7 2.7-1.7z"/>
    <path id="Layer" class="s0" d="m506.3 199.4c0.6 0 0 1.2-1.5 2.3-1.6 1.2-2.9 2.8-2.9 3.5 0 1.9-6.7 8.9-8.5 8.9-0.9 0-1.2-0.6-0.5-1.4 0.5-0.8 0.1-2-0.8-2.6-2.8-1.8-1.8-3.6 1.9-3.5 2 0 5.2-1.4 7.4-3.6 1.9-1.9 4.2-3.6 4.9-3.6z"/>
    <path id="Layer" class="s0" d="m317.1 201.1c0.9 0 1.2 1.1 0.7 2.4-0.7 1.3-1.3 2.5-1.6 2.5-0.4 0-0.7-1.2-0.7-2.5 0-1.3 0.7-2.4 1.6-2.4z"/>
    <path id="Layer" class="s0" d="m431.6 201.1c0.9 0 1.6 0.3 1.6 0.6 0 0.5-0.7 1.3-1.6 1.8-0.8 0.5-1.7 0.2-1.7-0.6 0-1 0.9-1.8 1.7-1.8z"/>
    <path id="Layer" class="s0" d="m511.7 203.5c-1.2 1.3-2.8 2.5-3.6 2.5-0.8 0-0.5-1.2 0.6-2.5 2.8-3.1 5.6-3.1 3 0z"/>
    <path id="Layer" class="s0" d="m591.9 203.9c-1.6 3.1-1.8 4-1.8 7.8 0 1.3-0.6 2.4-1.4 2.4-1.5 0 0-7.8 2.3-11.4 1.8-2.8 2.6-1.8 0.9 1.2z"/>
    <path id="Layer" class="s0" d="m290.2 202.7c0.5 0 0.8 2.8 0.6 6.1 0 3.4-0.5 5.3-0.8 4.2-0.7-1.3-2.6-1-6.9 1.5-4.7 2.6-5.4 2.8-3.6 0.5 1.3-1.5 4-3.5 6.1-4.3 2.3-0.8 3.7-2.8 3.7-4.7 0-1.8 0.4-3.3 0.9-3.3z"/>
    <path id="Layer" class="s0" d="m255 208.8c0 3.2-0.5 3.9-1.8 2.6-1.1-1.2-1.5-3.1-1-4.4 1.7-4 2.8-3.1 2.8 1.8z"/>
    <path id="Layer" class="s0" d="m338.1 206c0.5 1.1-0.2 2.8-1.2 3.7-1.3 1.3-1.8 1.2-1.8-0.6 0-1.5 0.5-3.1 1.2-3.8 0.6-0.6 1.4-0.3 1.8 0.7z"/>
    <path id="Layer" class="s0" d="m295.9 206.8c0.8 0.5 1.1 2 0.5 3.3-1.2 3.4-2.1 3.1-2.1-1 0-1.8 0.6-3 1.6-2.3z"/>
    <path id="Layer" class="s0" d="m354.9 206c0.8 0 1.5 1.1 1.5 2.4 0 1.3-1.2 2.5-2.5 2.5-1.5 0-1.9-1-1.5-2.5 0.7-1.3 1.7-2.4 2.5-2.4z"/>
    <path id="Layer" class="s0" d="m261.6 207.6c0.9 0 1.6 0.7 1.6 1.6 0 0.9-0.7 1.7-1.6 1.7-0.9 0-1.7-0.8-1.7-1.7 0-0.9 0.8-1.6 1.7-1.6z"/>
    <path id="Layer" class="s0" d="m425.7 207.6c2.8 0 4.1 1.2 4.7 4.3 0.7 4-2.3 8.8-5.5 8.8-1 0-0.5-1.2 0.8-2.6 3.6-3.6 3.3-7.2-0.7-7.2-1.8 0-3.2-0.8-3.2-1.7 0-0.9 1.8-1.6 3.9-1.6z"/>
    <path id="Layer" class="s0" d="m374.7 210.4c2.1 0.5 4.6 1.5 5.4 2.3 1 0.6 2.8 0.6 4.1-0.2 1.3-1 3.7-1.6 5.5-1.6 2.6 0 2.6 0.3-0.8 3.9-3.4 3.6-4.9 3.9-11.1 3.1-5.2-0.8-7.7-0.3-9 1.5-2.3 2.9-7.5 5-7.5 2.8 0-2.7 5.2-7.2 8-7.2 1.5 0 2.4-1.3 2.1-2.8-0.3-2 0.5-2.5 3.3-1.8z"/>
    <path id="Layer" class="s0" d="m402.1 218.1c0 2.6 0.5 2.8 2 1.3 2.9-3 4.4-2.5 3.4 1.3-0.5 1.8-2.1 3.3-3.6 3.3-3.1 0-8.5-3.3-5.4-3.3 1 0 2-0.7 2-1.5 0-0.8-1.5-1.1-3.4-0.6-4.1 1.1-7.1-2.5-4.4-5.6 3.4-4.2 9.4-1 9.4 5.1z"/>
    <path id="Layer" class="s0" d="m480.9 213c0.9 1.5 1.7 1.5 3.3-0.2 2.8-2.7 4.6-2.4 4.6 0.9 0 1.8-2.6 4.2-6.6 6-5.3 2.6-7 2.8-8.6 1-1-1.2-1.2-1.6-0.2-1.2 2 1.2 8.5-2.9 7-4.4-1.3-1.3-16.1 1.7-18.1 3.6-2.1 2.2 4.1 8.7 11 11.3l4.9 1.8-5.1 0.2c-7.4 0.1-14.4-6.7-12.9-12.6 0.6-2.5 1.1-4.4 1.3-4.4 0.1 0 1.8-0.9 3.4-1.8 4.3-2.3 14.6-2.5 16-0.2z"/>
    <path id="Layer" class="s0" d="m602.9 214c0.8 2.3-0.8 4.4-2.3 2.9-0.5-0.5-0.3-1.8 0.3-2.9 1-1.8 1.3-1.8 2 0z"/>
    <path id="Layer" class="s0" d="m339.9 214.1c0.9 0 2.1 0.7 2.6 1.7 0.5 0.8-0.2 1.6-1.5 1.6-1.5 0-2.6-0.8-2.6-1.6 0-1 0.6-1.7 1.5-1.7z"/>
    <path id="Layer" class="s0" d="m609.3 214.1c2.4 0 2.4 0.2 0 3-1.7 1.6-2.8 3.9-2.8 4.9 0 1.1-1 1.8-2 1.5-1.3-0.2-1.9 1.1-1.8 3.2 0.4 2.2-0.3 3.8-1.3 3.8-0.8 0-1.3-0.7-0.8-1.5 0.7-0.8 0-1.8-1-2.3-1.5-0.5-0.5-1.9 2.5-4.2 2.4-2.1 4.4-4.8 4.4-6.1 0-1.3 1.1-2.3 2.8-2.3z"/>
    <path id="Layer" class="s0" d="m354.7 215.8c1 0 1.7 0.6 1.7 1.6 0 0.8-0.7 1.7-1.7 1.7-0.8 0-1.6-0.9-1.6-1.7 0-1 0.8-1.6 1.6-1.6z"/>
    <path id="Layer" class="s0" d="m450.5 218.2c2.8 2.7 2.3 3-1.6 1.5-1.5-0.5-2.6-1.6-2.6-2.4 0-2.2 1.5-1.8 4.2 0.9z"/>
    <path id="Layer" class="s0" d="m420 219.7c1.4 1.8 1.6 4.1 0.5 8.2-1 3.1-1.2 6-0.7 6.5 0.5 0.5 0.3 1-0.3 1-0.5 0-1.8-2-2.8-4.2l-1.6-4.5-3.6 3.5c-2.3 1.9-6.4 3.4-11.2 3.9-6.8 0.5-7.5 0.2-7.3-2.9 0.2-3 1.1-3.3 8.3-3 4.4 0.2 9-0.3 10-1.1 1.1-0.9 2.6-1.5 3.3-1.3 3.6 0.6 5.5-0.4 5.5-2.8 0-2.3-0.5-2.3-2.4-0.7-2 1.7-2.5 1.5-2.5-1-0.1-2.9-0.1-2.9-2.4 0-2 2.5-2.5 2.7-2.5 0.9 0-1.5 0.5-3.1 1.2-3.6 1.8-2 6.5-1.3 8.5 1.1z"/>
    <path id="Layer" class="s0" d="m599 218.7c0.8 0.5 0 2-2 3.3-2 1.3-3.6 3.8-3.6 5.4 0 1.8-0.6 3.1-1.6 3.1-3 0-1.8-5.1 1.9-9 2-2.1 4.4-3.4 5.3-2.8z"/>
    <path id="Layer" class="s0" d="m533.6 222.7c-1 3.4-4.1 6.7-5.1 5.5-0.3-0.2 0.5-2.3 1.6-4.7 2.5-5.4 5.1-5.9 3.5-0.8z"/>
    <path id="Layer" class="s0" d="m489.8 220.7c0.3 0 0.6 0.6 0.6 1.6 0 0.8-0.8 1.7-1.8 1.7-0.8 0-1.1-0.9-0.6-1.7 0.5-1 1.3-1.6 1.8-1.6z"/>
    <path id="Layer" class="s0" d="m483.9 227.2c1.8 0 3.2 0.7 3.2 1.5 0 0.8-1.4 1.1-3.2 0.7-1.8-0.5-3.3-1.2-3.3-1.5 0-0.3 1.5-0.7 3.3-0.7z"/>
    <path id="Layer" class="s0" d="m249.6 237c-0.6 0-1.1-1.8-1.1-4.1 0-2.2 0.5-4 1.1-4 0.6 0 1.1 1.8 1.1 4 0 2.3-0.5 4.1-1.1 4.1z"/>
    <path id="Layer" class="s0" d="m379.3 229.2c2.2 0 3.1 0.3 2.1 0.8-1.2 0.3-3.1 0.3-4.1 0-1.1-0.5-0.3-0.8 2-0.8z"/>
    <path id="Layer" class="s0" d="m501 230.5c0.5 1-0.6 2.3-2.7 3.1-4.4 1.6-5.4 1.1-4.1-2.3 1.1-2.8 5.4-3.3 6.8-0.8z"/>
    <path id="Layer" class="s0" d="m387.3 230.5c0.9 0 1.8 0.7 1.8 1.6 0 0.8-0.4 1.7-0.7 1.7-0.5 0-1.3-0.9-1.8-1.7-0.5-0.9-0.1-1.6 0.7-1.6z"/>
    <path id="Layer" class="s0" d="m457.3 233.3c-1.1 0-2-0.6-2-1.4 0-0.8 0.9-1.4 2-1.4 1.1 0 2.1 0.6 2.1 1.4 0 0.8-1 1.4-2.1 1.4z"/>
    <path id="Layer" class="s0" d="m596.5 232.9c0.3 0.5-0.3 1.8-1.5 3.3-1.9 2.3-1.1 3.1 2.2 2.6 0.8-0.1 0.9 0.5 0.3 1.5-0.8 1.3-1.8 1.3-3.3 0-1.8-1.5-1.9-2.6-0.3-4.9 1-1.8 2.1-2.8 2.6-2.5z"/>
    <path id="Layer" class="s0" d="m298.8 234.6c0.5 0.5 0 1.8-1.1 2.9-1.7 1.5-1.8 1.3-0.8-1 0.5-1.6 1.4-2.4 1.9-1.9z"/>
    <path id="Layer" class="s0" d="m446.3 233.8c1 0 1.6 0.6 1.6 1.6 0 0.8-0.6 1.6-1.6 1.6-0.8 0-1.7-0.8-1.7-1.6 0-1 0.9-1.6 1.7-1.6z"/>
    <path id="Layer" class="s0" d="m489.6 237c-1.4 0-2.5-0.7-2.5-1.6 0-0.9 1.1-1.6 2.5-1.6 1.4 0 2.5 0.7 2.5 1.6 0 0.9-1.1 1.6-2.5 1.6z"/>
    <path id="Layer" class="s0" d="m574.6 233.9c1.8 0 4.4 0.5 5.7 1.2 2.8 1.3 4.3 6.8 1.7 6.8-0.9 0-1.7-0.6-1.7-1.6 0-0.8-1.9-2.6-4.4-3.9-3.7-2.1-4.1-2.5-1.3-2.5z"/>
    <path id="Layer" class="s0" d="m453 236.4c2.3 1.3 1.6 3.9-1 3.9-1.5 0-2-1-1.5-2.4 0.7-1.4 1.7-2 2.5-1.5z"/>
    <path id="Layer" class="s0" d="m457.2 237.5c0.4 1.5 1.5 2.5 2.3 2 0.8-0.7 1.5 1.5 1.3 4.4l-0.1 5.4-2.2-4.9c-1.3-2.8-2.2-6.1-2.1-7.4 0-1.6 0.3-1.4 0.8 0.5z"/>
    <path id="Layer" class="s0" d="m523.4 235.4c2 0 1.7 11.1-0.3 12.3-0.8 0.5-1.6 0.1-1.6-0.9 0-0.9-0.8-1.3-2-0.6-1.1 0.6-1.3 0.5-0.6-0.8 0.6-1 1.9-1.3 2.9-0.8 1.2 0.8 1.5-0.7 1-4.1-0.3-2.8-0.2-5.1 0.6-5.1z"/>
    <path id="Layer" class="s0" d="m285.4 239.2c0.5 0.5 0.7 1.9 0.2 3.1-0.5 1.3-1 0.8-1-1-0.2-1.8 0.3-2.8 0.8-2.1z"/>
    <path id="Layer" class="s0" d="m570.7 238.7c3.3 0 3.6 0.8 1.8 5.2-1 2.5-1.5 2.3-3.1-1.1-1.7-3.6-1.5-4.1 1.3-4.1z"/>
    <path id="Layer" class="s0" d="m290.7 242.3c0.3 1.6-0.2 4.1-1.2 5.7-1.5 2.6-1.6 2.6-1.8 0.2 0-1.5 0.5-4.1 1.2-5.8 1.1-2.6 1.3-2.7 1.8-0.1z"/>
    <path id="Layer" class="s0" d="m389.1 243.9c4.7 0 4.1 0.3-3.8 2.3-5.4 1.3-10.3 2.6-11.1 3.3-0.8 0.5-1.5 0.1-1.5-0.9 0-0.9 2.5-2.4 5.4-3.2 2.8-0.8 7.9-1.5 11-1.5z"/>
    <path id="Layer" class="s0" d="m557.8 245.9c6 0.5 7 1.8 3.9 6.2-2.6 3.6-3.3 3.1-2.8-2.3 0.2-1.5-1-3.1-2.6-3.4-1.6-0.5-1-0.7 1.5-0.5z"/>
    <path id="Layer" fill-rule="evenodd" class="s0" d="m416.5 247.5c1.2 0.7 2 2.1 2 3.4 0 1.2 1.1 2.5 2.3 3 3.9 1.4 8.3 11.1 5.9 12.6-1.2 0.6-1.7 1.9-1.2 2.6 0.5 0.8-3.1 1.6-7.8 1.9-5.3 0.4-9.2-0.3-9.8-1.3q-1.3-1.9 3.4-1.4c5.9 0.4 13.7-1.7 13.7-3.6 0-0.9-2.1-3.8-4.9-6.6l-4.9-5-1.4 3.9c-1.8 4.6-8.4 9.5-12.1 8.8-3.8-0.5-7.1-3.8-9.4-9.1-2.3-5.6-4.1-6.3-5.5-2.3-0.7 1.6 0.1 3.6 1.6 4.7 1.8 1.1 2.1 2.3 1.2 2.9-1 0.7-2.7 0-3.8-1.3-1.1-1.3-3.1-2.4-4.3-2.4-1.3 0-2.2-0.7-2.2-1.5 0-0.8-3.6-1.1-8.1-0.6-8.9 0.8-12.9-2-4.5-3.3 21.7-3.8 35.3-4.7 42.3-3.3 6.5 1.5 7.5 1.3 6.5-0.8-0.4-1.6-0.1-2.1 1-1.3zm-19.1 5.9c-1 0-2.1 0.6-2.6 1.6-0.5 0.8 0.2 1.7 1.5 1.7 1.4 0 2.6-0.9 2.6-1.7 0-1-0.7-1.6-1.5-1.6zm8.2 3.6c-0.8 2.1-1.2 4.1-0.8 4.4 1.1 1.1 5.5-3.4 5.5-5.7 0-3.6-3.3-2.6-4.7 1.3zm-5.9 1.1c-0.5 0.8-0.2 2 0.8 2.6 0.8 0.5 1.6-0.1 1.6-1.4 0-3-0.9-3.5-2.4-1.2z"/>
    <path id="Layer" class="s0" d="m514.3 248.5c0.3 0 0.1 1.1-0.3 2.4-0.7 1.3-1.8 2.5-2.7 2.5-0.9 0-0.8-1 0.4-2.5 1.1-1.3 2.3-2.4 2.6-2.4z"/>
    <path id="Layer" class="s0" d="m567.3 251.1c0 1.3-0.9 2-1.7 1.5-1-0.7-1.3-1.8-0.8-2.6 1.5-2.3 2.5-1.8 2.5 1.1z"/>
    <path id="Layer" class="s0" d="m427.8 253.4c0.3 0.8 1.5 1.3 2.3 0.6 0.8-0.5 1.5 0 1.5 1 0 2.5-3.8 1.2-4.3-1.3-0.1-1.1 0-1.3 0.5-0.3z"/>
    <path id="Layer" class="s0" d="m508.2 255c1 0 1.8 0.7 1.8 1.7 0 0.8-0.3 1.6-0.6 1.6-0.5 0-1.3-0.8-1.8-1.6-0.5-1-0.2-1.7 0.6-1.7z"/>
    <path id="Layer" class="s0" d="m447.6 262.9c0.3 3.9-0.7 6.7-3.8 10.4-4.2 4.9-4.2 5.1-3.7 1 0.3-2.3 1.4-5.2 2.4-6.4 1-1.3 2.3-4.1 3.1-6.3 1.5-4 1.5-4 2 1.3z"/>
    <path id="Layer" class="s0" d="m504.2 258.5c1.7-0.2 2.7 0.3 2.1 0.8-0.5 0.5-2 0.6-3.1 0.1-1.3-0.5-0.8-0.9 1-0.9z"/>
    <path id="Layer" class="s0" d="m518.7 259.8c1.1 1.1 2 2.7 2 3.9 0 1.1 2.3 1.9 5.4 1.9 3.7 0 5.2 0.7 5.2 2.7 0 1.9-1.3 2.4-4.4 2.1-4.4-0.5-9-5.2-9.7-10.2-0.3-1.7 0-1.9 1.5-0.4z"/>
    <path id="Layer" class="s0" d="m612.2 261.6c-1.3 0-2.4-0.8-2.4-1.7 0-0.9 1.1-1.6 2.4-1.6 1.4 0 2.5 0.7 2.5 1.6 0 0.9-1.1 1.7-2.5 1.7z"/>
    <path id="Layer" class="s0" d="m375.8 259.9c1 0 1.8 0.7 1.8 1.7 0 0.8-0.3 1.6-0.6 1.6-0.5 0-1.3-0.8-1.8-1.6-0.5-1-0.2-1.7 0.6-1.7z"/>
    <path id="Layer" class="s0" d="m560.7 266.1c0 2.3-3.9 5.3-7 5.3-2.8 0-2.8-0.4 0.6-3.3q6.4-5.2 6.4-2z"/>
    <path id="Layer" class="s0" d="m433.2 268.1c2.1 0 2.1 6 0 7.4-1 0.6-1.3 1.8-0.7 2.6 0.7 0.9 1.8 0.9 3.3-0.4 1.7-1.3 2.3-1.3 2.3 0 0 1-0.5 1.8-1.1 2-0.9 0.2-3.5 0.5-6.2 1-11.8 1.8-31.4 2.3-35.2 0.8-3.1-1.1-1.1-1.6 9-1.8 23.7-0.3 27-1.1 27-7.7 0-2.1 0.8-3.9 1.6-3.9z"/>
    <path id="Layer" class="s0" d="m535.4 269.9l6-0.2c6.2 0 9.8 2.6 5.6 4.3-1.3 0.5-4.4-0.2-7-1.7z"/>
    <path id="Layer" fill-rule="evenodd" class="s0" d="m517.1 279c0.9 0.7 3.7 1 6 0.9 6.2-0.7 13.7 4.9 15.9 11.6 1.6 5.7 1.6 5.9-1.5 4.2-3.3-1.8-5.4-1-5.4 2.3-0.2 2.6-10.8 1.6-13.7-1.3-2-1.8-1.3-2.1 4.4-1.3 6.2 0.8 6.7 0.6 7.8-3.6 0.9-3.6 0.4-5.1-2.7-7.5-3.8-2.8-4-2.8-6.6 1.5-4.7 8-7 8.9-12.7 5.7-6.4-3.6-9.5-11.1-5.4-13.4 2.7-1.7 10.6-1.2 13.9 0.9zm-11.3 1.5c-3 1.3-0.7 7.2 2.8 7.2 1.8 0 3.1 0.7 3.1 1.6 0 2.5 4.7 0 6.7-3.4 1.3-2.4 1-3.4-1.2-4.2-1.4-0.5-3.2 0-4.2 1.3-1.3 1.8-1.5 1.6-0.7-0.7 0.8-2.8-2.1-3.6-6.5-1.8z"/>
    <path id="Layer" class="s0" d="m491.4 280c0.5 0.5 0.7 2 0.2 3.1-0.5 1.3-1 0.9-1-0.9-0.2-1.8 0.3-2.8 0.8-2.2z"/>
    <path id="Layer" class="s0" d="m497 289.3c0 2.2-0.9 3-2.3 2.3-1.3-0.5-2-1.9-1.5-3.2 1.3-3.5 3.8-2.8 3.8 0.9z"/>
    <path id="Layer" class="s0" d="m485.2 288.7l4.9 1 0.2 14.2c0.8 51 3.7 71.3 11.9 83 4.7 7.1 9.8 11 11.8 9.2 0.4-0.5 0.9-0.3 0.9 0.6 0 2.3-4.2 4-7.3 2.8-1.3-0.6-2.5-0.3-2.6 0.4-0.4 3.9-1.3 7.6-2.3 8.5-0.7 0.6-0.8-2-0.3-5.8 0.8-5.5 0.3-7.8-3.3-13-7.9-11.3-10.8-27.7-12.6-67.6-0.3-6.7-0.7-12.8-1.8-15.3-1.2-2.5 2-11.1-1.5-11.9-5.2-1.1-2.8-0.4-7.8-0.6-9.7-0.4-10.8-1-13.6-0.9-4.8 0.1-13-0.8-16.3-1.2-2.7 0.6-9.1 0.1-15.1-0.4-1.9-0.2-3.7 0.4-3.7-0.6 0-0.8-1.3-1.9-2.8-2.2-4.4-1.2 55.6-1.4 61.3-0.2z"/>
    <path id="Layer" class="s0" d="m354.9 295.4c-1.3 2.4-1.6 2.4-1.8 0.3 0-1.4 0.5-3.1 1.1-3.6 2-2.1 2.5 0.2 0.7 3.3z"/>
    <path id="Layer" class="s0" d="m501.4 299.3c1.1 1 2.1 2.8 1.9 3.8 0 1.1-0.3 1-0.9-0.3-0.4-1-1.4-1.7-2-1.4-0.7 0.5-1.3-0.1-1.3-1.4 0-1.8 0.6-2 2.3-0.7z"/>
    <path id="Layer" class="s0" d="m356 301.9c1.2 1.2 3.3 1.5 4.8 1 2.4-1 2.4-0.8 0.6 1.3-2.6 2.8-8.3 3.3-8.3 0.8 0-3.1-2.9 1.5-3.8 5.6-0.6 3.9-0.6 3.9-0.9-0.5 0-2.4 1.1-5.7 2.7-7.3 2.2-2.3 3.3-2.5 4.9-0.9z"/>
    <path id="Layer" class="s0" d="m344.5 316.1c-0.7 0-1.2-2.7-1.2-6 0-3.4 0.5-6 1.2-6 0.7 0 1.2 2.6 1.2 6 0 3.3-0.5 6-1.2 6z"/>
    <path id="Layer" class="s0" d="m367.7 304.1c0.9 0 1.7 0.6 1.7 1.6 0 0.8-0.3 1.6-0.6 1.6-0.5 0-1.3-0.8-1.8-1.6-0.5-1-0.2-1.6 0.7-1.6z"/>
    <path id="Layer" class="s0" d="m340 306.5c1 0.5 1.7 1.6 1.7 2.6 0 0.8-0.7 1.5-1.7 1.5-0.8 0-1.6-1.1-1.6-2.6 0-1.3 0.8-2 1.6-1.5z"/>
    <path id="Layer" class="s0" d="m450 305.7c3.5 0 6.1 0.6 6.1 1.6 0 1.3-9.5 0.5-11.3-1-0.3-0.3 2-0.6 5.2-0.6z"/>
    <path id="Layer" class="s0" d="m461.8 308.5c-2.2 0-4.1-0.6-4.1-1.3 0-0.7 1.9-1.2 4.1-1.2 2.3 0 4.1 0.5 4.1 1.2 0 0.7-1.8 1.3-4.1 1.3z"/>
    <path id="Layer" class="s0" d="m471 305.7c2.3 0 1.8 1.1-1.2 2.3-1.3 0.5-1.9 0.3-1.4-0.7 0.4-1 1.6-1.6 2.6-1.6z"/>
    <path id="Layer" class="s0" d="m515.1 305.7c0.8 0 1.5 0.6 1.5 1.6 0 0.8-1.2 1.7-2.6 1.7-1.3 0-2-0.9-1.5-1.7 0.5-1 1.6-1.6 2.6-1.6z"/>
    <path id="Layer" class="s0" d="m503.7 308.3c0.8 0.5 1.1 1.6 0.5 2.5-0.5 0.8-1.7 1.1-2.5 0.5-0.8-0.5-1.1-1.7-0.5-2.5 0.5-0.8 1.6-1.1 2.5-0.5z"/>
    <path id="Layer" class="s0" d="m522.8 312.1c0.3 1.1-0.2 2.9-1 3.7-1.3 1.3-1.5 0.7-0.8-2.1 0.6-2.1 1.3-2.9 1.8-1.6z"/>
    <path id="Layer" class="s0" d="m352.6 312.9c0.5 0.5 0.5 2.1-0.2 3.6-0.6 1.5-1.4 2.4-1.8 1.9-0.4-0.4-0.4-2.1 0.2-3.6 0.7-1.4 1.5-2.4 1.8-1.9z"/>
    <path id="Layer" class="s0" d="m336.9 319.8c-1.5 4.5-1.5 4.7-1.6 0.4-0.2-2.2 0.3-4.7 1-5.2 1.8-1.9 2.1-0.3 0.6 4.8z"/>
    <path id="Layer" class="s0" d="m502.7 320.7c7.8 7.4 9.5 10.8 3.9 7.9-1.8-1.2-3.9-1.3-4.4-0.7-0.7 0.7-0.2 1.5 1 1.8 1 0.5 1.9 2 1.9 3.5 0 4.2-3.6-0.4-4.2-5.4-0.2-2.5-1.7-5.8-3-7.2-1.4-1.7-2.6-3.8-2.6-4.8 0-1.1 3.3 1.2 7.4 4.9z"/>
    <path id="Layer" class="s0" d="m489.4 290.3c2.7-2.9 43.3 25.7 45.1 27 1.8 1.3 13.3 9.3 15 11.1 1.4 1.6 0.2 6.9 0.7 5.9 0.5-0.8-9.7-6-18.1-12.7-8.3-6.8-47.2-29.9-44.5-27.9 0.6 0.5-1-0.6 1.8-3.4z"/>
    <path id="Layer" class="s0" d="m399.9 317.6c2.1 2.2-2.5 5.4-7.1 5.1-6.8-0.3-7.3-0.5-6.3-2.1 0.4-0.8 3.5-1.3 6.7-1 3.1 0.2 5.7-0.5 5.7-1.3 0-1 0.5-1.2 1-0.7z"/>
    <path id="Layer" class="s0" d="m421.9 317.1c2.5 0 1.7 1.5-2.1 3.5-3.4 1.8-3.6 1.8-1.5-0.7 1.2-1.6 2.8-2.8 3.6-2.8z"/>
    <path id="Layer" class="s0" d="m381.9 318.8c0.3 0 0.6 0.6 0.6 1.6 0 0.8-0.8 1.6-1.8 1.6-0.8 0-1.1-0.8-0.6-1.6 0.5-1 1.3-1.6 1.8-1.6z"/>
    <path id="Layer" class="s0" d="m444.3 322.5c2 0.4 3.9 1 4.6 1.7 0.7 0.5-0.7 0.6-2.6 0.3-2-0.3-4.1-1.2-4.6-1.6-0.5-0.5 0.7-0.7 2.6-0.4z"/>
    <path id="Layer" class="s0" d="m458.4 322c0.5 0 1.3 0.7 1.8 1.7 0.5 0.8 0.1 1.6-0.7 1.6-1 0-1.8-0.8-1.8-1.6 0-1 0.4-1.7 0.7-1.7z"/>
    <path id="Layer" class="s0" d="m435.7 324c2.7 0 3.9 0.3 2.9 0.8-1.1 0.3-3.4 0.3-4.9 0-1.6-0.5-0.7-0.8 2-0.8z"/>
    <path id="Layer" class="s0" d="m464.1 323.7c1.6 0 4.1 3.1 3.3 4.1-0.4 0.1-1.7-0.5-2.8-1.8-1.2-1.3-1.3-2.3-0.5-2.3z"/>
    <path id="Layer" class="s0" d="m443.7 332c1.8-0.1 2.7 0.3 2.1 0.8-0.5 0.5-2 0.7-3.1 0.2-1.3-0.5-0.8-1 1-1z"/>
    <path id="Layer" class="s0" d="m453.6 331.9c0.4 0 1 0.6 1.5 1.3 0.5 0.8-0.2 1.4-1.5 1.4-1.3 0-1.9-0.6-1.4-1.4 0.5-0.7 1.1-1.3 1.4-1.3z"/>
    <path id="Layer" class="s0" d="m398.1 335.1c0.4 1-0.2 1.2-1.5 0.7-1.5-0.5-2.6-1.3-2.6-1.7 0-1.3 3.1-0.6 4.1 1z"/>
    <path id="Layer" class="s0" d="m422.3 333.6c15.6 0.2 15 1-1.7 2-6.5 0.3-11.9 0-11.9-0.6 0-0.9 6-1.5 13.6-1.4z"/>
    <path id="Layer" class="s0" d="m541.1 336.8c1 0 1.6 0.6 1.6 1.6 0 0.8-0.6 1.6-1.6 1.6-0.8 0-1.6-0.8-1.6-1.6 0-1 0.8-1.6 1.6-1.6z"/>
    <path id="Layer" class="s0" d="m535.4 338.4c1.3 0 2.4 0.3 2.4 0.6 0 0.4-1.1 1-2.4 1.7-1.3 0.5-2.5 0.1-2.5-0.7 0-1 1.2-1.6 2.5-1.6z"/>
    <path id="Layer" class="s0" d="m507.6 343.6c0.8 2.1 3.6 6.4 6.2 9.3 4.4 5.4 5.9 11.6 2.6 11.6-1 0-1.5-0.9-1-2.2 0.5-1.4-0.5-3.6-2.1-5.1-2.3-2.1-3.1-2.1-3.8-0.5-0.4 1.1-0.9 0.2-0.9-2.5-0.2-2.4-1-4.4-2-4.4-1 0-1.3 1.5-0.7 3.3 0.5 1.8 0.4 3.3-0.6 3.3-3.1 0-3.6-3.3-1.5-10 2-6.7 2-6.9 3.8-2.8z"/>
    <path id="Layer" class="s0" d="m515.8 342.1c2.2 1.2 4 2.7 4 3.3 0 0.8 0.9 0.8 2 0.2 1-0.7 1.3-0.5 0.8 0.5-1.3 1.9 3.3 4.2 5.6 2.8 0.8-0.5 1.9 0.3 2.4 1.6 0.5 1.5 1.7 2.1 2.5 1.6 0.8-0.5 1.1-1.6 0.6-2.4-0.6-0.8 0.4-1 1.8-0.4 2 0.7 2.3 1.3 1 1.8-1.6 0.5-1.6 1.2-0.1 3 1.1 1.3 1.4 2.8 0.9 3.3-0.8 0.8-7.6-2.5-9.3-4.5-0.5-0.6-2.4-1.4-4.4-2.1-4.2-1.3-11.9-7.2-11.9-9.1 0-0.7 1.8-0.5 4.1 0.4z"/>
    <path id="Layer" class="s0" d="m533.7 343.3c1 0 2.8 0.8 4.1 1.6 1.3 0.8 1.8 1.7 0.8 1.7-0.8 0-2.7-0.9-4-1.7-1.4-0.8-1.7-1.6-0.9-1.6z"/>
    <path id="Layer" class="s0" d="m401.5 346.6c0.3 0 0.6 0.6 0.6 1.6 0 0.8-0.8 1.6-1.8 1.6-0.8 0-1.1-0.8-0.6-1.6 0.5-1 1.3-1.6 1.8-1.6z"/>
    <path id="Layer" class="s0" d="m355.7 348.2c2.3 0 3.8 0.7 3.3 1.5-1 1.3-7.5 0.6-7.5-0.8 0-0.4 1.9-0.7 4.2-0.7z"/>
    <path id="Layer" class="s0" d="m408.7 348.5c2.3 0 3.1 0.4 2.1 0.8-1.1 0.4-3.1 0.4-4.1 0-1.1-0.4-0.3-0.8 2-0.8z"/>
    <path id="Layer" class="s0" d="m363.6 351.5c0.5 0 1.3 0.6 1.8 1.6 0.5 0.8 0.1 1.6-0.7 1.6-1 0-1.8-0.8-1.8-1.6 0-1 0.3-1.6 0.7-1.6z"/>
    <path id="Layer" class="s0" d="m391.4 361.8c1.1 0.5 7.1 1.3 13.4 1.9 6.2 0.5 15 1.3 19.4 1.8 4.6 0.4 12.9 1.2 18.8 1.7 11.8 0.8 15.7 2.4 5.7 2.4-3.6-0.2-10.9-0.2-16.3-0.3-20.1-0.2-40.1-2.6-40.1-4.9 0-0.7-1.1-0.8-2.7-0.3-1.8 0.6-2.3 0.4-1.5-1 0.8-1.2 2.3-1.7 3.3-1.3z"/>
    <path id="Layer" class="s0" d="m502.4 362.7c3.2 2.7 3.5 6.1 0.8 7.7-1.2 0.7-1.3 0.5-0.7-0.6 0.7-1 0.2-3.6-0.8-5.6-1.8-3.4-1.8-3.6 0.7-1.5z"/>
    <path id="Layer" class="s0" d="m529.5 361.3c0.8 0 1.8 1.1 2.4 2.4 0.5 1.3 0.2 2.5-0.4 2.5-0.9 0-1.8-1.2-2.5-2.5-0.5-1.3-0.2-2.4 0.5-2.4z"/>
    <path id="Layer" class="s0" d="m468.7 365.4c0 1.3-1 2.6-2.3 3.1-1.8 0.6-1.8 0.1-0.5-2.3 2.1-3.9 2.8-4.1 2.8-0.8z"/>
    <path id="Layer" class="s0" d="m356.4 372.6c1.1 2.7 3.4 5.3 5 5.8 4.3 1.5 4.1 5.8-0.1 4.6-4.4-1.1-13.9-14.7-11-15.7 2.8-1 3.8-0.1 6.1 5.3z"/>
    <path id="Layer" class="s0" d="m389.9 369.4c2.3 0.9 4.1 1.2 4.1 0.7 0-0.7 1-0.3 2.1 0.7 1 0.8 5.6 2.1 10 2.7 4.4 0.7 12.4 3.1 17.8 5.3 5.4 2.1 10.8 3.6 12.1 3.1 1.3-0.5 1.8-0.2 1.3 0.6-0.5 1 0.3 1.7 2 1.7 3.4 0 10.7 4.7 7.5 4.9-1 0-2.3-0.7-2.8-1.5-0.8-1.1-12.8-3.4-23.1-4.4-1.8-0.2-3.9-0.5-4.9-0.7-0.8-0.3-3.1-0.5-4.9-0.6-2.1-0.2-3.1-1.2-3.1-3.1 0.2-1.5-0.5-2.8-1.6-3-5.6-0.3-11.1-1.8-15-3.9-2.5-1.3-5.3-1.8-6.1-1.3-1 0.5-1.1 0.2-0.5-0.8 0.7-1.3 2.5-1.3 5.1-0.4z"/>
    <path id="Layer" class="s0" d="m508.4 368.6c0.8 0.5 1.1 2 0.5 3.3-1.2 3.4-2.1 3.1-2.1-1 0-1.8 0.6-2.9 1.6-2.3z"/>
    <path id="Layer" class="s0" d="m500.9 372.7c0.5 0 1.3 0.7 1.8 1.7 0.5 0.8 0.1 1.6-0.7 1.6-1 0-1.8-0.8-1.8-1.6 0-1 0.4-1.7 0.7-1.7z"/>
    <path id="Layer" class="s0" d="m244.1 368.6c-3.6 9-14.4 25.7-37.6 33.4-8.4 2.8-27.5 10.6-42.5 17.5-15.1 6.8-34.2 15.2-42.4 18.6-8.1 3.3-18.4 7.9-22.9 10.1-4.4 2.3-11.7 5.3-16.3 6.9-4.6 1.5-12.6 5.2-17.8 8.3-5.3 3.2-11.1 4.9-12.5 5.8-2.6 1.7-4.4 3.9-5.8 4.4-2.8 1-17.7 11.4-32.9 22.9-6.7 5-13.4 7-13.4 3.9 0-0.8 2-2 4.4-2.5 2.3-0.6 7.2-3.6 11-6.5 10.4-8.5 31-21.9 37.4-24.7 3.1-1.3 9.3-4.6 13.7-7 4.4-2.6 11-5.7 14.6-6.9 3.4-1.1 10.8-4.2 16.2-7 5.4-2.6 14.5-6.7 20.4-8.8 5.9-2.2 15.9-6.4 22.1-9.5 18-8.7 55.9-25.4 57.8-25.4 3.8 0 27-12.9 29.9-16.3 4.4-4.9 5.9-6.1 7.9-9.1 3.1-4.5 10.9-13.4 8.7-8.1z"/>
    <path id="Layer" class="s0" d="m346.2 376.8c0.2 0.2-0.1 3.3-0.9 6.7-1.4 6.1-1.5 6.2-3.3 2.8-1.6-3.1-1.6-4.3 0.8-6.7 1.6-1.7 3.1-3 3.4-2.8z"/>
    <path id="Layer" class="s0" d="m506.1 380.6c2.1 0.3 3.9 1.8 3.9 2.9 0 2.1 2.3 3.1 5.8 2.3 0.9-0.2 3.1-0.5 4.9-0.7 1.8-0.3 4.9-1.3 7-2.4 5.2-2.8 4.6 0.6-0.8 4.4-9.7 6.5-18.2 5.6-22.4-2.6-2.5-4.6-2.5-4.8 1.6-3.9z"/>
    <path id="Layer" class="s0" d="m531 390.7c-1.2 1.8-2.7 3.3-3.3 3.3-0.8 0-2.8 3.2-4.7 7.2-1.8 3.9-5.4 9-8.1 11.2-5.5 4.9-0.8 6.2 2.5 8.1 1.3 0.8-8.1 10-10.9 12.5-2 1.8-3.9 3.6-3.9 4.3 0 2.3-7.9 7.3-9.6 5.7-1.1-1.1-0.6-1.6 1.2-1.6 1.5 0 2.8-0.7 2.8-1.3 0-0.8 1.9-2.3 4.2-3.5 3.6-1.6 4.1-2.6 3.4-6.5-1.1-5.6 10-25.5 20.3-36 7-7.3 9.2-8.5 6.1-3.4z"/>
    <path id="Layer" class="s0" d="m351.5 397.9c5 7.5 6 10.1 3.2 8.3-1.8-1.1-9.8-13-9.8-14.7 0-2.1 1.8-0.3 6.6 6.4z"/>
    <path id="Layer" fill-rule="evenodd" class="s0" d="m408 395.8c1.3 0.9 4.8 2.4 7.7 3.1 2.8 0.6 5.1 1.9 4.9 2.9-0.3 1 0.5 1.5 1.7 1 1.1-0.3 4.5 1.5 7.6 4.2 3 2.7 4.8 5 3.8 5-0.8 0-2.9-1.5-4.4-3.2-1.7-1.6-4.1-2.9-5.6-2.6-1.4 0.2-3.4-0.1-4.4-0.8-0.8-0.8-3.4-1.6-5.7-1.9-2.5-0.4-3.9-1.5-3.6-2.8 0.3-1.8 0-2-1.8-0.5-1.3 1.1-2.6 1.5-3.1 1.1-0.5-0.5-2.6-1.3-4.6-1.6-4.6-0.8-5.5-1.8-3.4-3.3 1-0.5 1.8-0.3 1.8 0.7 0 2.1 5.4 1.1 6.2-1.3 0.5-1.5 1.1-1.5 2.9 0zm7.2 5c-2.3 0-3.1 0.4-1.9 0.9 0.9 0.3 2.9 0.3 4 0 1-0.5 0.2-0.9-2.1-0.9z"/>
    <path id="Layer" class="s0" d="m390.7 395.9c2.3 0 3.1 0.4 2.1 0.8-1.1 0.4-3.1 0.4-4.1 0-1.1-0.4-0.3-0.8 2-0.8z"/>
    <path id="Layer" class="s0" d="m233.7 383.7c1 0-3.4 18.3-4 20.4-3.9 12.9-5.7 20.8-5.7 26.7-0.2 5.2-0.5 5.8-1.8 3.7-1-1.8-1.2-5.5-0.5-9 0.8-3.4 3.6-13.6 3.4-14.4-0.1-0.7 0.5-2.4 1.1-5.4 0.7-2.7 6.5-22 7.5-22z"/>
    <path id="Layer" class="s0" d="m381.4 402.8c1.6 0.5 4.6 1 6.5 1 2.5 0 3 0.5 1.7 1.8-1.4 1.3-3.1 1-6.4-1-2.6-1.5-3.5-2.3-1.8-1.8z"/>
    <path id="Layer" class="s0" d="m499.6 424.4c-1.9 4.8-47 51.7-48.7 46.1-0.7-2.2 40-36.2 43.3-41.2 3.3-5.1 5.4-10.5 6.3-14.1 0.7-2.6 1-8.4 2.2-9.1 1.6 0.5 0.1-0.1 1.1-0.1 0.8 0-3.3 16.2-4.2 18.4z"/>
    <path id="Layer" class="s0" d="m399.7 412.4c2.8 0 3.1 0.5 1 2-0.8 0.5-2 0.3-2.5-0.5-0.5-0.8 0.2-1.5 1.5-1.5z"/>
    <path id="Layer" class="s0" d="m372.7 417.2c0.2 2.4 10.6 10.3 21.3 16.2 7.8 4.1 10.1 6.2 8.8 8.1-0.3 0.7 0.7 1.7 2.3 2.2 1.6 0.6 4.1 2.7 5.2 5 1.2 2.2 2.8 3.6 3.6 3.1 0.7-0.5 1.3 0.4 1.3 1.7 0 3.6-0.5 3.4-7-3.1-3.1-3.1-6.2-5.8-6.9-5.8-0.8 0-3.7-2.4-6.7-5.3-7.7-7.4-10.1-9.4-12.1-9.4-1 0-2.1-1.1-2.6-2.4-0.6-1.3-1.8-2.5-2.6-2.5-2.3 0-9.3-7.7-8.2-8.8 1.7-1.6 3.6-1 3.6 1z"/>
    <path id="Layer" class="s0" d="m407 418.5c0 0.8-1.1 1.1-2.4 0.6-1.3-0.6-2-1.6-1.5-2.4 1-1.8 3.9-0.3 3.9 1.8z"/>
    <path id="Layer" class="s0" d="m418.7 420.1c-1.4 0.7-3.5 0.8-4.9 0.4-2-0.9-1.7-1.4 1.4-2 4.8-1.3 6.6-0.5 3.5 1.6z"/>
    <path id="Layer" class="s0" d="m440.2 424.2c-0.5 1.5-1.3 2.3-1.6 1.8-0.5-0.5-0.3-1.5 0.3-2.4 1.5-2.7 2.5-2.2 1.3 0.6z"/>
    <path id="Layer" class="s0" d="m523.1 433.5c2.3 0 6.7 0.9 4.9 2.2-1.1 0.4-5.9-1-6.8-1.4-1.2-0.4-0.4-0.8 1.9-0.8z"/>
    <path id="Layer" class="s0" d="m224 439.7c-0.4 3.9 1.5 12.1-0.6 10.8-0.8-0.5-1.7-17.1-1.6-18.5 0.1-3.2 3.3-4.2 2.2 7.7z"/>
    <path id="Layer" class="s0" d="m489.8 444.6c0.3 0 0.6 0.7 0.6 1.7 0 0.8-0.8 1.6-1.8 1.6-0.8 0-1.1-0.8-0.6-1.6 0.5-1 1.3-1.7 1.8-1.7z"/>
    <path id="Layer" class="s0" d="m223.9 448.3c2 4.4 4.8 19.1 1.7 12.7-0.4-0.7-1.6-2-1.5-4.6 0-3.9-1.5-11.1-0.2-8.1z"/>
    <path id="Layer" class="s0" d="m225.9 459.6c2 0 9.4 46.8 3.6 28.4-1.4-4.1-3.6-19.8-3.6-22.1 0-2.3-2.2-8.7 0-6.3z"/>
    <path id="Layer" class="s0" d="m406.4 467.5c3.3 0 2.8 1.2-1 2.2-1.8 0.4-2.9 0.1-2.3-0.7 0.5-0.8 2-1.5 3.3-1.5z"/>
    <path id="Layer" class="s0" d="m587.2 463c8.3 3.1 33.7 18.9 37.8 22.7 5.8 5.4 19.8 18 15.7 15.1-9.8-6.7-21.4-17.2-27.7-20.9-3.9-2.4-23.4-14.1-34.3-18.6-9.3-3.8-54.6-26.9-54.1-27.4 2.2-1.9 55.1 26.4 62.6 29.1z"/>
    <path id="Layer" class="s0" d="m230 482.7c1.6 1.9 3.8 13.6 3.8 14.4 0 1-0.7 1.2-1.7 0.7-0.8-0.5-2.7-12.2-2.7-13 0-1 0.4-5.8 0.6-2.1z"/>
    <path id="Layer" class="s0" d="m643.1 520.3c0.8 3.5 0.7 3.5-2.3-0.5-1.8-2.2-3.3-4.7-3.3-5.5 0-2.6 4.6 2.4 5.6 6z"/>
    <path id="Layer" class="s0" d="m346.4 514.6c7.6-2 5.9 0 3.3 1-0.4 0.8-25.4 9.1-26.2 9.1-1 0-1.1-0.8-0.6-1.6 1.5-2.2 22.8-8.3 23.5-8.5z"/>
    <path id="Layer" class="s0" d="m324.6 523.1c-0.8 2.1-11.6 7.2-13.7 6.1-2.3-0.5-1.9-1 1.3-2.5 6.4-2.8 16.6-6.7 12.4-3.6z"/>
    <path id="Layer" class="s0" d="m649.2 529.2c2.1 2.6 1.9 2.7-0.5 0.6-1.7-1.1-3-2.4-3-2.8 0-1.3 1.3-0.5 3.5 2.2z"/>
    <path id="Layer" class="s0" d="m310.9 527.6c0.1 0 1.9 1 1.9 1.5 0 0.8-12 5.3-15.6 6.3-0.8 0.3-1.5 0.5-1.6 0.8-0.4 0.2-2 0.5-3.8 0.8-1.8 0.3-3.4 1.3-3.8 2.3-0.3 0.8-0.9-1.1-3.1 0.7-1.7 1.4-3.4 1-1.6 0.3 2.8-0.6 1 0.6-2.1 1-2.5 0.4-2.3-0.2-3.6 1.1-1.2 1.1-3.3 2-4.9 2-1.7 0-3.7 1.7-3 1.4 1.2-0.4-21.1 3.9-22.4 2.5-0.5-0.4 4.7-0.5 6.4-1.2 3.2-0.9 24.2-7.3 38.1-12.5 4.6-1.7 9.6-3.5 11.4-3.8 1.8-0.5 7.3-3.1 7.7-3.2z"/>
    <path id="Layer" class="s0" d="m234.5 497.3c1.8 5.5 15.7 55.2 12.8 51-1.5-2.1-15.3-50.5-15.3-52.3 0-2.6 1.5-2 2.5 1.3z"/>
    <path id="Layer" class="s0" d="m658 538c1.5 2.8 2.3 5.9 1.9 6.9-0.4 1.1-1.3 0.4-1.9-1.4-0.5-1.8-1.8-4.5-2.6-6-0.9-1.6-1.5-3.3-1.5-3.8 0-2.1 1.8-0.3 4.1 4.3z"/>
    <path id="Layer" class="s0" d="m656.2 556.8c0.8 2.3 0.6 2.4-1.5 0.6-1.3-1.1-2.4-2.2-2.4-2.6 0-1.8 3.1-0.3 3.9 2z"/>
    <path id="Layer" class="s0" d="m675.8 599.9c1.3 0 2 7.9 0.8 10.8-0.8 2.2-1.3 1.2-1.3-3.9-0.2-3.7 0.2-6.9 0.5-6.9z"/>
    <path id="Layer" class="s0" d="m665.8 601.6c3.1 0 5.1 2.6 3 3.9-0.8 0.5-2.3-0.2-3.5-1.5-1.6-1.9-1.6-2.4 0.5-2.4z"/>
    <path id="Layer" class="s0" d="m669 616.9c-0.7 0-1.2-1.4-1.2-3.1 0-1.6 0.5-3 1.2-3 0.7 0 1.2 1.4 1.2 3 0 1.7-0.5 3.1-1.2 3.1z"/>
    <path id="Layer" class="s0" d="m676.6 615.5c0.8 1 1 4.6 0.2 8.1l-1.3 6.6-0.2-8.2c-0.2-4.7 0.5-7.3 1.3-6.5z"/>
    <path id="Layer" class="s0" d="m669.6 620.1c0.5 0.4 0.6 1.9 0.1 3.1-0.4 1.3-0.9 0.8-0.9-1-0.2-1.8 0.3-2.8 0.8-2.1z"/>
    <path id="Layer" class="s0" d="m366 621.4c0.3-0.2-1.8 1.9-4.6 4.5-5.8 5.4-6.2 8.2-2.1 13.3 4.3 5.2 10.8 3.4 13.3-3.3 0.8-2.8 1.3-6 0.8-7.3-0.7-1.4-0.2-2.5 0.8-2.5 3.6 0 2 11.4-2.3 15.5-4.9 5.1-7 5.1-12.6 0.2-7.2-6.4-6.4-15.4 1.6-18.5 2.5-1 4.8-1.8 5.1-1.9z"/>
    <path id="Layer" class="s0" d="m365.4 626.9l0.5 4.6c0.3 2.6 0.1 5.1-0.4 5.7-1.8 1.7-2.3-0.5-1.3-5.4z"/>
    <path id="Layer" class="s0" d="m668.1 642c0.3 1.1 0.3 3.1 0 4-0.5 1.2-0.8 0.4-0.8-1.9 0-2.3 0.3-3.1 0.8-2.1z"/>
    <path id="Layer" class="s0" d="m342.3 701.3c0.5 0 1.3 0.7 1.8 1.6 0.5 0.9 0.2 1.7-0.6 1.7-1 0-1.8-0.8-1.8-1.7 0-0.9 0.3-1.6 0.6-1.6z"/>
    <path id="Layer" class="s0" d="m699.2 711.1c0.5 0 0 1-1 2.3-1.3 1.5-1.3 2.4-0.3 2.9 1.1 0.4 1.1 1.5 0.1 3-1.3 1.9-1.6 1.9-2.6-0.5-0.5-1.5-0.1-3.9 1-5.2 1.1-1.3 2.4-2.5 2.8-2.5z"/>
    <path id="Layer" class="s0" d="m699.2 736c0.3 2.6 0.3 6.5 0 8.9-0.4 2.7-0.7 0.5-0.7-4.4 0-4.9 0.3-7 0.7-4.5z"/>
    <path id="Layer" class="s0" d="m622 737.3c-0.5 0.8-1.9 1.6-2.9 1.6-1.2 0-1-0.7 0.5-1.6 3.1-2 3.7-2 2.4 0z"/>
    <path id="Layer" class="s0" d="m359.3 763.4c2.1 0 2.1 0.5-0.1 3-1.7 1.6-2.8 4.2-2.8 5.7 0 1.5-0.7 2.8-1.7 2.8-2.1 0-2.1-2.2 0.4-7.4 0.9-2.3 2.9-4.1 4.2-4.1z"/>
    <path id="Layer" class="s0" d="m366.2 773.2c0 2.6-0.7 4.9-1.7 4.9-1.8 0-2.2-7-0.4-8.6 1.8-2 2.1-1.3 2.1 3.7z"/>
    <path id="Layer" class="s0" d="m376 774.4c-0.2 4.9-5.6 10.4-10.6 10.9-4.9 0.7-10.7-2.8-10.7-6.2 0-1 1-0.6 2.2 1 4.4 5.6 12.9 3.8 15.8-3.6 2.3-5.6 3.3-6.2 3.3-2.1z"/>
    <path id="Layer" class="s0" d="m712.7 794.5c2 0 3.1 5.9 1.5 8.3-1.1 2-1.5 1.8-1.6-0.1 0-1.4-0.3-3.8-0.7-5.4-0.3-1.5 0-2.8 0.8-2.8z"/>
    <path id="Layer" class="s0" d="m342.8 803c0.3 1.6 0.3 4.2 0 5.7-0.5 1.6-0.8 0.3-0.8-2.8 0-3.1 0.3-4.4 0.8-2.9z"/>
    <path id="Layer" class="s0" d="m583.1 892.1c0.3 1.1 0.3 3.4 0 4.9-0.5 1.6-0.8 0.6-0.8-2 0-2.8 0.3-3.9 0.8-2.9z"/>
    <path id="Layer" class="s0" d="m362.7 895c0.4 0.5-0.1 1.8-1.1 2.8-1.1 1.1-2 1.3-2 0.3 0-1 0.5-2.3 1.2-2.8 0.5-0.6 1.5-0.8 1.9-0.3z"/>
    <path id="Layer" class="s0" d="m355.9 897.5c1.8 0 1.6 0.9-1 4.2-2 2.5-3.4 6.1-3.4 8.2 0 2.1-0.7 3.9-1.7 3.9-2.6 0-1.9-7.8 1-12.2 1.5-2.3 3.8-4.1 5.1-4.1z"/>
    <path id="Layer" class="s0" d="m583.8 899.9l1.6 12.3c0.8 6.7 2.6 19.6 3.9 28.6 1.3 9 2.6 23.7 3.1 32.7l0.8 16.3-1.6-13.9c-0.8-7.6-2.6-22.4-3.9-32.7-1.3-10.3-2.8-24.3-3.1-31z"/>
    <path id="Layer" class="s0" d="m369.4 904.3c2.5 4-1.1 10.5-6.8 12.9-2.6 1-5.1 1.5-5.7 0.9-0.5-0.5 0-1 1.1-1 3.8 0 9.8-6.9 9.8-11.3 0.2-3.6 0.3-3.8 1.6-1.5z"/>
    <path id="Layer" class="s0" d="m359.8 904c1.6 0 1.8 2 0.5 5.6-1.5 3.6-3.8 1.6-2.8-2.3 0.5-1.8 1.5-3.3 2.3-3.3z"/>
    <path id="Layer" class="s0" d="m702.9 926.9c1 0 1.7 0.3 1.7 0.6 0 0.5-0.7 1.4-1.7 1.8-0.8 0.5-1.6 0.2-1.6-0.6 0-1 0.8-1.8 1.6-1.8z"/>
    <path id="Layer" class="s0" d="m694.1 938.8c0.5 0.5 0.7 2 0.2 3.1-0.5 1.3-1 0.8-1-0.9-0.2-1.8 0.3-2.8 0.8-2.2z"/>
    <path id="Layer" class="s0" d="m708.3 1051.3c-1.6 7-1.8 6.9-1.9-6.1 0-7.1 1.3-40.7 3-64.7 1.4-20.6 2-59.3 5.3-35.1 0.4 2.6-4.7 99-6.4 105.9z"/>
    <path id="Layer" class="s0" d="m593.7 1012.2c0.4 3.3 0 5.6-0.6 5.3-0.7-0.5-1.2-4.3-1.2-8.5 0.2-8.1 0.9-6.9 1.8 3.2z"/>
    <path id="Layer" class="s0" d="m595.7 1026.6c0.6 4.1 0.5 5.1-0.7 3.3-0.8-1.3-1.6-4.3-1.6-6.4 0-5.2 1-3.9 2.3 3.1z"/>
    <path id="Layer" class="s0" d="m358 1025.6c0 1.5-1.1 2-2.9 1.5-3.5-0.8-10.2 5.9-10.7 10.6-0.1 3.9-2.7 3.1-2.7-1 0.1-3.4 2.7-6.8 8.1-10.4 5.1-3.4 8.2-3.6 8.2-0.7z"/>
    <path id="Layer" class="s0" d="m361.3 1034.5c0 5.4-3.9 9.6-9.8 10.4-4.1 0.5-4.1 0.5-0.4 1.7 7.4 2.1 18-12.1 11.8-15.9-1-0.7-1.6 1-1.6 3.8z"/>
    <path id="Layer" class="s0" d="m354.4 1034c0.3 1.4-0.2 3.6-1.1 4.5-1.3 1.4-1.8 0.9-1.8-1.4 0-2 0.5-4 1.3-4.6 0.6-0.7 1.4 0 1.6 1.5z"/>
    <path id="Layer" class="s0" d="m693.1 1033.1c0 0.9-1.3 1.7-2.8 1.7-2.4 0-2.6-0.3-0.4-1.7 3.1-1.9 3.2-1.9 3.2 0z"/>
    <path id="Layer" class="s0" d="m598.3 1034.8c0.8 1.3 1.6 3.1 1.6 4.1 0 0.8-0.8 0.5-1.6-0.8-0.8-1.4-1.6-3.3-1.6-4.1 0-1 0.8-0.5 1.6 0.8z"/>
    <path id="Layer" class="s0" d="m603.1 1046.6c0.9 2.9 1.1 4.5 0.3 3.7-0.8-1-2-3.3-2.6-5.4-1.7-5.5 0.3-4.2 2.3 1.7z"/>
    <path id="Layer" class="s0" d="m697.9 1047.9c1.6 0 4.1 3.1 3.2 4-0.3 0.2-1.6-0.4-2.7-1.7-1.2-1.4-1.4-2.3-0.5-2.3z"/>
    <path id="Layer" class="s0" d="m605.5 1052.8c0.3 0 1 1.1 1.6 2.4 0.5 1.3 0.2 2.5-0.6 2.5-1 0-1.6-1.2-1.6-2.5 0-1.3 0.3-2.4 0.6-2.4z"/>
  </g>
  <path id="Layer" class="s0" d="m228.1 471.9c3 11.5 6.2 24.3 10.1 37.9 1.8 6.4 2.1 15.7 1.7 13.9-0.5-1.8-13.5-49.7-13.9-51.3-5.5-22.8-4.8-39.5-5.3-43.3-0.5-3.9 1.2-5.4 1.7-8.6 0.3-1.8 5.4-19.1 5.4-18.5 0 0.6 5.4-7 1.8 1.2-6.3 14-9.5 38.9-1.5 68.7z"/>
  <path id="Layer" class="s0" d="m212.1 414.3c-2.2 1-7 2.6-9.1 3.6-2.2 1.1-13.3 4.9-15.3 6.3-2 1.3-14.9 4.5-20.2 6.8-3.5 1.4-22.5 8.6-26 10.3-3.4 1.8-12.2 5.2-19.3 7.6-7.2 2.3-29.1 11.4-33.1 14-9.2 6.3-14.5 7.5-24 14.5-9.5 7-16 10-20.8 13.3-4.7 3.3-10.5 6.9-15 9.3-4.5 2.5-9.1 5-10.9 6.5-4.7 4.1-12.6 7.2-11.2 5.9 4.3-3.6 19.3-13.2 25.1-17.8 3.8-3 11.6-7.3 14.7-9.4 19.1-12.8 20.2-14 23.2-15.9 7.6-4.9 21.6-12.5 34.2-17 12.6-4.5 21.3-7.8 24.9-9.1 3.6-1.3 14.4-6.1 23.4-9.4 14-5.1 24.5-9.7 27.5-10.4 5.9-1.4 20.2-6.8 23.9-8.8 5.3-2.8 10.2-1.4 8-0.3z"/>
  <path id="Layer" class="s0" d="m473.2 459.1c-1.9 3-4 9.2-6.1 13.2-1.9 3.6-8 21.1-9.6 21.4-3.5 0.7 10.9-31.7 13.4-34.3 4.4-4.7 5.1-4.6 2.3-0.3z"/>
  <path id="Layer" class="s0" d="m380.4 517.9c7.3 1.9 12 3.1 17 4.8 5 1.7 14.8 4.3 16.4 5.1 2.8 0.9 9.9 2.9 12.6 4.1 2.6 1.1 7.3 2.8 9.7 3.6 7.4 2.5 14.9 5.6 10.7 5.8-3.1-1.8-18.2-5-22-6.9-2.5-1.3-16.3-4.9-18.8-6-4-1.8-21.6-5-24.6-6.9-2.2-1.3-30.4-5.6-30.4-7.3 0-2.1 17.9 0.8 29.4 3.7z"/>
  <path id="Layer" class="s0" d="m460.9 484.9c-1 6-11.1 54.4-13.3 56.1-3 2.5 3.4-23.6 4.4-27.7 0.8-3.5 5-22.5 5.1-23.1 0.3-2.3 4.5-10.2 3.8-5.3z"/>
  <path id="Layer" fill-rule="evenodd" class="s0" d="m600.8 577.1c0.8 0.5 6.7 33.6 6.9 34.2 1.6 6.7 5.8 29.1 7.7 35.2 2.3 7.3-4.9 55.7-8.5 63.5-3.6 7.7-1.9 15.3-5.1 23.4 1.1 9.3-2.5 12.3-4.5 17.3-1.8 4.5-5.1 21.4-6.3 23.8-2.7 5.2-10.5 37.4-12.6 40.2-1.4 1.9-2.1 4.5 2 20.1 2.4 8.7 3.6 17.3 3.6 34.8-0.1 13 0.4 30 1.3 41.5 3.2 42.3 8.6 45.9 8.7 66.1 0.1 24 1.5 31.9 8.7 49.6l7.6 35.4-26.4-3.5-3.5-20c-1.3-3.5-7.1-33.5-8.8-51.9-2.6-28.6-8.5-15.9-6.8-101.7 0.3-17.9 0-32.8 2.8-47.1 3.5-17.7 4.8-27.8 7.9-32.3 1.1 0.5 2.8-8 6.4-13.3 3.7-5.6 6.1-21.9 7.8-26.9 1.1-3.5 3.8-17.4 5.6-20.1 1.9-2.6 3.3-25.4 6-32.2 2.7-6.9 4.7-27 6.5-29.9 3.4-5.5 4.6-28.6 3.5-29-1.2-0.4 2.4-2.2 0.1-9-2.2-6.8-3.7-13.2-3.3-14.4 0.5-1.2 0.3-3.4-0.6-4.9-3.5-6.8-9.8-36.7-8.9-42.9 0.1-1.1 0.3-3.1 0.4-4.4 0.1-1.4 0.9-2.1 1.8-1.6zm-27.1 244.8c-2.8 17.4-9.2 91.9-5.2 123.7 11.2 89.7 24.9 113.6 32.3 112.2l-12.5-80.9c-2.4-22.2-3.3-34.3-4.8-44.6-1.4-8.7-1.5-19.1-2.5-19.7-0.9-0.6 0.1-58.4-2.3-66.8-2-7.2-4.4-27.6-5-23.9z"/>
  <path id="Layer" class="s0" d="m342.4 864.4c-1 13.3-5.1 195.3-5.1 198 0 5.7-1.4 10.9-3.1 5.6-1.3-4.1 5.7-233.2 7.2-239.2 1.8-7.3 8.1-302.7 8.6-310.4 0.4-5.2 0.7-3 0.9-2.7 3.5-6.2-5.5 304.3-8.5 348.7z"/>
  <path id="Layer" class="s1" d="m506.9 430.8c-0.8 0-31.3 25.8-36.8 28.4-2.7 1.2-23.3 13.8-29 15.1-1.3 0.4-12.8 7.4-18.8 8.6-3 0.6-7.6 3-11.4 3.7-1.9 0.3-12.4 1.9-17.1 2.9-6.4 1.3-11.3 0.9-17 0.9"/>
  <path id="Layer" fill-rule="evenodd" class="s0" d="m71 637.1c1.8 6.4 1 38.7-0.2 54.1-1.1 15.4-4.1 50.3-6.1 60.4 1 12.8-2.3 20.2-2.4 25.2-0.3 12.1-2.4 18.2-2.4 25-0.1 9.5-1.3 3.6-1.7 12.1-0.4 8.6 1.7 21.5 1.2 31.2-0.6 8.5 2.8 24.1 2.7 40.6-0.1 12.2 0.5 28.3 1.4 39 3.4 39.9 3.4 44.8 6 63.7 3.4 24.7 2.4 19.9 3.4 39.4l2.3 31.2-28.4-3.3-3.7-18.8c-1.4-3.3 2.1 0.2 4.7-27.7 1.1-11.5-3.2-77.4-3-89.6 0.4-22.1 1.2-53.2 1.9-69.6 0.7-16.7 1.7-12.9 3.1-27.6 1.2-13.4 3.4-25.8 5-30.6 2.1-6.1 2.3-18.6 4.3-27.3 2.1-8.8 4.9-36.6 6.5-46 1.5-9.3 1.4-51.4 1.8-58.3-0.1-8.1-1.6-31.4-2-32.9-1.7-7-1.7-14.3-4.2-23-0.3-1 2.8-2.1 3.7-1.6 0.9 0.5 5.9 33.9 6.1 34.4zm-16.7 184.7c-0.7-3.1-5.1 103.4-4.1 131.3 3.3 84.9 6.9 103.1 14.8 101.8-0.4-1.1-4.1-66.7-2.5-62.5-2.5-20.9-1-28.7-2.6-38.3-1.5-8.3-2.5-23.1-1.8-30.8-2.7-14.2-1.2-51.8-1.7-60-2.2-38.2 0.5-30.9-2.1-41.5z"/>
</svg>